<svg xmlns="http://www.w3.org/2000/svg" width="312.025" height="368.44" viewBox="0 0 312.025 368.44">
  <g id="Group_23" data-name="Group 23" transform="translate(-11156.22 3194.342)">
    <path id="Path_46" data-name="Path 46" d="M0,0H42.8V42.8H0Z" transform="translate(11408.828 -2892.389) rotate(-31)" fill="none" stroke="#fcbd8a" stroke-width="1"/>
    <path id="Path_48" data-name="Path 48" d="M0,0H28.924V28.924H0Z" transform="translate(11321.544 -3091.596) rotate(-31)" fill="#bd3469"/>
    <path id="Path_49" data-name="Path 49" d="M876.075,421.907a43.211,43.211,0,0,0-73.445-45.55Z" transform="translate(10502.657 -3360.804)" fill="#fcbd8a" stroke="#fcbd8a" stroke-width="1"/>
    <path id="Path_50" data-name="Path 50" d="M0,0H63.192V63.192H0Z" transform="translate(11180.887 -2993.063) rotate(-31)" fill="#fcbd8a"/>
    <path id="Path_52" data-name="Path 52" d="M0,0H7.911V41.15H0Z" transform="translate(11369.393 -2861.175) rotate(-31)" fill="#fcbd8a"/>
    <path id="Path_53" data-name="Path 53" d="M0,75.024A75.024,75.024,0,1,0,75.024,0,75.024,75.024,0,0,0,0,75.024Z" transform="translate(11156.906 -3116.375) rotate(-31)" fill="none" stroke="#bd3469" stroke-width="1"/>
    <path id="Path_65" data-name="Path 65" d="M0,0H18.559V18.559H0Z" transform="translate(11344.53 -3135.893) rotate(-31)" fill="none" stroke="#e73635" stroke-width="1"/>
    <path id="Path_71" data-name="Path 71" d="M0,11.225A11.225,11.225,0,1,0,11.225,0,11.225,11.225,0,0,0,0,11.225Z" transform="translate(11417.277 -2852.206) rotate(-31)" fill="#fcbd8a"/>
    <path id="Path_78" data-name="Path 78" d="M447.01,533.48h10.661v10.661H447.01Z" transform="translate(10970.935 -3550.229)" fill="#fcbd8a" stroke="#fcbd8a" stroke-width="1"/>
  </g>
</svg>
