<svg xmlns="http://www.w3.org/2000/svg" xmlns:xlink="http://www.w3.org/1999/xlink" width="216.055" height="59.446" viewBox="0 0 216.055 59.446">
  <defs>
    <linearGradient id="linear-gradient" x1="0.774" y1="0.963" x2="0.033" y2="0.228" gradientUnits="objectBoundingBox">
      <stop offset="0" stop-color="#db506c"/>
      <stop offset="1" stop-color="#ea8d9f"/>
    </linearGradient>
    <linearGradient id="linear-gradient-2" x1="0.297" y1="0.847" x2="0.749" y2="0.07" gradientUnits="objectBoundingBox">
      <stop offset="0" stop-color="#f66675"/>
      <stop offset="1" stop-color="#fcc48d"/>
    </linearGradient>
    <linearGradient id="linear-gradient-3" x1="0.5" y1="0.996" x2="0.5" y2="0.004" gradientUnits="objectBoundingBox">
      <stop offset="0" stop-color="#4c3d69"/>
      <stop offset="1" stop-color="#c73e67"/>
    </linearGradient>
  </defs>
  <g id="Group_1315" data-name="Group 1315" transform="translate(-236 -7575.407)">
    <path id="Welcome_to_the_most" data-name="Welcome to the most" d="M1.394,8.383A7.563,7.563,0,0,1,3.78,2.667,8.363,8.363,0,0,1,6.361,1,14.188,14.188,0,0,1,9.552.115l6.715-1a2.515,2.515,0,0,0,1.609-.694,1.877,1.877,0,0,0,.444-1.249,3.3,3.3,0,0,0-1.138-2.5,4.956,4.956,0,0,0-3.468-1.054A5.007,5.007,0,0,0,9.968-5.046,5,5,0,0,0,8.5-1.939L1.949-3.326a9,9,0,0,1,1-3.219A9.933,9.933,0,0,1,5.223-9.43a11.467,11.467,0,0,1,3.552-2.081,13.65,13.65,0,0,1,4.883-.8,15.573,15.573,0,0,1,5.494.86,10.263,10.263,0,0,1,3.69,2.275,8.431,8.431,0,0,1,2.053,3.3,12.213,12.213,0,0,1,.638,3.94v13.43q0,1.11.111,2.358t.222,1.97H19.1a14.526,14.526,0,0,1-.194-1.526q-.083-.971-.083-1.748a9.526,9.526,0,0,1-3.024,2.83A9.4,9.4,0,0,1,10.772,16.6,10.527,10.527,0,0,1,6.86,15.9a9.367,9.367,0,0,1-2.969-1.831,7.764,7.764,0,0,1-1.859-2.608A7.656,7.656,0,0,1,1.394,8.383ZM12.326,11.1a8.24,8.24,0,0,0,2.248-.305,4.753,4.753,0,0,0,1.915-1.054A5.334,5.334,0,0,0,17.82,7.8a7.886,7.886,0,0,0,.5-3.024V3.555L12.16,4.5A4.856,4.856,0,0,0,9.746,5.525a2.954,2.954,0,0,0-.971,2.414,3.164,3.164,0,0,0,.888,2.192A3.432,3.432,0,0,0,12.326,11.1Zm43.785-.222q0,1.387.056,2.747t.166,2.192H49.285a9.65,9.65,0,0,1-.194-1.332q-.083-.888-.083-1.831a7.566,7.566,0,0,1-2.913,2.719,9.524,9.524,0,0,1-4.745,1.11A13.139,13.139,0,0,1,35.967,15.4a12.412,12.412,0,0,1-4.19-3A14.049,14.049,0,0,1,29.03,7.856a16.08,16.08,0,0,1-1-5.744A15.934,15.934,0,0,1,29-3.492a13.989,13.989,0,0,1,2.691-4.523,12.52,12.52,0,0,1,4.134-3.024,12.534,12.534,0,0,1,5.3-1.11,12.557,12.557,0,0,1,3.08.333,10.207,10.207,0,0,1,2.248.832A6.336,6.336,0,0,1,47.981-9.9a4.491,4.491,0,0,1,.86,1.138V-24.358h7.27ZM35.467,2.113a8.058,8.058,0,0,0,1.915,5.716,6.351,6.351,0,0,0,4.856,2.053A6.313,6.313,0,0,0,47.01,7.828a8.069,8.069,0,0,0,1.942-5.771A7.686,7.686,0,0,0,47.01-3.576a6.441,6.441,0,0,0-4.772-1.97,6.487,6.487,0,0,0-4.8,2A7.719,7.719,0,0,0,35.467,2.113Zm51.887,8.768q0,1.387.055,2.747t.166,2.192H80.528a9.651,9.651,0,0,1-.194-1.332q-.083-.888-.083-1.831a7.566,7.566,0,0,1-2.913,2.719,9.524,9.524,0,0,1-4.745,1.11A13.139,13.139,0,0,1,67.21,15.4a12.412,12.412,0,0,1-4.19-3,14.049,14.049,0,0,1-2.747-4.551,16.08,16.08,0,0,1-1-5.744,15.934,15.934,0,0,1,.971-5.6,13.989,13.989,0,0,1,2.691-4.523,12.52,12.52,0,0,1,4.134-3.024,12.534,12.534,0,0,1,5.3-1.11,12.557,12.557,0,0,1,3.08.333,10.207,10.207,0,0,1,2.248.832A6.336,6.336,0,0,1,79.224-9.9a4.491,4.491,0,0,1,.86,1.138V-24.358h7.27ZM66.71,2.113a8.058,8.058,0,0,0,1.915,5.716,6.351,6.351,0,0,0,4.856,2.053,6.313,6.313,0,0,0,4.772-2.053A8.069,8.069,0,0,0,80.2,2.057a7.686,7.686,0,0,0-1.942-5.633,6.441,6.441,0,0,0-4.772-1.97,6.487,6.487,0,0,0-4.8,2A7.719,7.719,0,0,0,66.71,2.113ZM108.109,0,119.263,15.82h-9.046L103,5.387,99.951,8.605V15.82H92.571V-24.358h7.381v23.03l9.434-10.155h9.656ZM120.817,15.82v-27.3H128.2v27.3Zm21.587-27.3H147.9v6.548H142.4V6.5a3.14,3.14,0,0,0,.8,2.469,3.615,3.615,0,0,0,2.414.694q.666,0,1.332-.055a3.631,3.631,0,0,0,.943-.166v6.1a8.379,8.379,0,0,1-1.526.444,12.843,12.843,0,0,1-2.636.222,8.8,8.8,0,0,1-6.326-2.22,8.174,8.174,0,0,1-2.331-6.215V-4.935H130.14v-6.548h1.387a3.893,3.893,0,0,0,3.191-1.249,4.689,4.689,0,0,0,1.027-3.08v-3.829H142.4Z" transform="translate(304.157 7608.879)" fill="#fff"/>
    <g id="Page-1" transform="translate(236 7575.407)">
      <g id="Brring-_-Homepage" data-name="Brring-—-Homepage" transform="translate(0 0)">
        <g id="Group" transform="translate(0)">
          <g id="Brring_logo_col">
            <path id="Shape" d="M33.007,34.04a24.091,24.091,0,0,0,19.752,6.867A20.07,20.07,0,1,1,26.115,14.358,23.9,23.9,0,0,0,33.007,34.04Z" transform="translate(-14.41 6.876)" fill="url(#linear-gradient)"/>
            <path id="Shape-2" data-name="Shape" d="M41.017,40.96A24,24,0,0,1,26.7,47.827a19.931,19.931,0,0,0-4-22.6A20.11,20.11,0,0,0,.005,21.278,24.069,24.069,0,1,1,41.017,40.96Z" transform="translate(11.699 -0.043)" fill="url(#linear-gradient-2)"/>
            <path id="Shape-3" data-name="Shape" d="M35.942,18.965A19.954,19.954,0,0,1,39.96,41.51,24.008,24.008,0,0,1,13.316,14.962a20.133,20.133,0,0,1,22.626,4Z" transform="translate(-1.611 6.273)" fill="url(#linear-gradient-3)"/>
          </g>
        </g>
      </g>
    </g>
  </g>
</svg>
