<svg id="Group_754" data-name="Group 754" xmlns="http://www.w3.org/2000/svg" width="155.273" height="43.467" viewBox="0 0 155.273 43.467">
  <path id="Path_1496" data-name="Path 1496" d="M56.909,35.75V13.98h-5.2l-5.778,9.2-5.778-9.2H34.94V35.75h4.745V21.623l4.455,6.719h3.441l4.528-6.81V35.75Z" transform="translate(146.19 46.58) rotate(180)" fill="#0b1748"/>
  <path id="Path_1497" data-name="Path 1497" d="M67.192,25.026h0a6.647,6.647,0,0,0-6.647-6.846,6.556,6.556,0,0,0-6.683,6.846h0a6.647,6.647,0,0,0,6.647,6.846,6.556,6.556,0,0,0,6.683-6.846m-18.292,0h0a11.682,11.682,0,0,1,23.345,0h0a11.682,11.682,0,0,1-23.345,0" transform="translate(13.664 -3.292)" fill="#0b1748"/>
  <path id="Path_1498" data-name="Path 1498" d="M72.087,31.4A6.23,6.23,0,0,0,78.7,24.867h0a6.266,6.266,0,0,0-6.611-6.556H68.338V31.423ZM63.52,14h8.567c6.9,0,11.664,4.691,11.664,10.867h0c0,6.122-4.763,10.867-11.664,10.867H63.52Z" transform="translate(71.523 -3.133)" fill="#0b1748"/>
  <path id="Path_1499" data-name="Path 1499" d="M76.77,13.98V35.75H93.487V31.494H81.569V26.911H91.911V22.655H81.569V18.236H93.324V13.98Z" transform="translate(38.27 -3.149)" fill="#0b1748"/>
  <path id="Path_1500" data-name="Path 1500" d="M50.639,8,25.32,22.489,0,8V51.467l12.66-7.245V29.734l12.66,7.245,12.66-7.245V44.223l12.66,7.245Z" transform="translate(50.639 51.467) rotate(180)" fill="#0b1748"/>
</svg>
