<svg id="envato-market-api-2" xmlns="http://www.w3.org/2000/svg" width="176.496" height="33.46" viewBox="0 0 176.496 33.46">
  <path id="Path_7" data-name="Path 7" d="M22.639,3.78c-.889-.494-3.435-.187-6.493.759C10.793,8.2,6.274,13.589,5.959,22.244c-.056.207-.585-.03-.691-.1a12.322,12.322,0,0,1-.812-9.9c.224-.376-.511-.837-.642-.705a15.226,15.226,0,0,0-2.1,2.718,13.182,13.182,0,1,0,23.036,12.82C28.846,19.746,25.041,5.121,22.639,3.78Z" transform="translate(-0.045 -0.415)" fill="#fff"/>
  <path id="Path_8" data-name="Path 8" d="M28.029,8.987c-7.542,0-13.016,5.6-13.016,13.333,0,7.786,5.461,13.226,13.278,13.226a12.678,12.678,0,0,0,9.565-3.776,2.8,2.8,0,0,0,.822-1.87,2.125,2.125,0,0,0-2.222-2.175,2.553,2.553,0,0,0-1.818.822A8.734,8.734,0,0,1,28.3,31.2a7.857,7.857,0,0,1-7.98-7.343H37.344c1.851,0,2.751-.87,2.751-2.647a9.874,9.874,0,0,0-.105-1.648C39.072,12.939,34.6,8.986,28.029,8.986Zm0,4.133c4.091,0,6.714,2.609,6.875,6.813H20.314a7.613,7.613,0,0,1,7.711-6.813ZM56.36,8.987a9.251,9.251,0,0,0-8.142,4.705V12c0-2.619-2.029-2.751-2.436-2.751A2.431,2.431,0,0,0,43.3,12V32.422a2.609,2.609,0,1,0,5.188,0V21.476c0-4.763,2.7-8.09,6.563-8.09,3.743,0,5.564,2.455,5.564,7.51V32.422a2.609,2.609,0,1,0,5.191,0V19.265c0-4.969-2.485-10.278-9.441-10.278Zm32.91.262a2.714,2.714,0,0,0-2.583,2.076l-7.1,17.852L72.541,11.325A2.755,2.755,0,0,0,69.9,9.249a2.545,2.545,0,0,0-2.6,2.488,3.615,3.615,0,0,0,.324,1.469l8.158,19.261c.966,2.319,2.569,2.811,3.741,2.811s2.77-.483,3.745-2.809L91.487,13.1a3.794,3.794,0,0,0,.321-1.415A2.434,2.434,0,0,0,89.27,9.249Zm15.086-.263a14.782,14.782,0,0,0-8.7,2.6A2.383,2.383,0,0,0,94.5,13.635,2.019,2.019,0,0,0,96.511,15.7a2.774,2.774,0,0,0,1.54-.546,10.194,10.194,0,0,1,5.833-1.925c3.836,0,6.038,1.951,6.038,5.352v.563c-8.612.011-17.369,1.048-17.369,8.541,0,5.391,4.608,7.805,9.178,7.805a9.676,9.676,0,0,0,8.405-4.17v1.307a2.384,2.384,0,0,0,2.438,2.647,2.343,2.343,0,0,0,2.328-2.647V18.9c0-6.2-3.942-9.909-10.54-9.909Zm4.473,13.982h1.092v1.2c0,4.373-2.785,7.2-7.091,7.2-1.169,0-4.985-.274-4.985-3.776C97.846,23.442,104.113,22.968,108.829,22.968Zm19.58-9a2.094,2.094,0,0,0,2.383-2.125,2.115,2.115,0,0,0-2.383-2.173h-4.668V4.948a2.582,2.582,0,1,0-5.137,0V27.37c0,5.174,2.552,7.909,7.382,7.909a8.291,8.291,0,0,0,3.264-.589,2.329,2.329,0,0,0,1.437-2.056,2,2,0,0,0-2.068-2.068,3.689,3.689,0,0,0-.926.161,4.133,4.133,0,0,1-1.074.154c-1.965,0-2.88-1.281-2.88-4.036V13.964h4.67Zm17.155-4.977c-7.846,0-13.539,5.562-13.539,13.224a13.218,13.218,0,0,0,3.883,9.574,13.688,13.688,0,0,0,9.661,3.758c7.749,0,13.593-5.732,13.593-13.333,0-7.663-5.719-13.224-13.6-13.224Zm0,22.158c-5.38,0-8.2-4.493-8.2-8.934,0-6.1,4.251-8.878,8.2-8.878s8.2,2.777,8.2,8.878c0,6.134-4.251,8.93-8.2,8.93Z" transform="translate(17.332 -2.097)" fill="#fff"/>
</svg>
