<svg xmlns="http://www.w3.org/2000/svg" width="125.541" height="33.179" viewBox="0 0 125.541 33.179">
  <g id="Group_1326" data-name="Group 1326" transform="translate(-22)">
    <path id="Path_1501" data-name="Path 1501" d="M30.682,26.321A10.867,10.867,0,0,0,18.2,17.265L19.924,7.141,13.585,6A63.969,63.969,0,0,0,9.51,18.986a11.048,11.048,0,0,1,4.6,7.245A11.193,11.193,0,0,1,11.774,35.1a9.907,9.907,0,0,0,1.63,1.63,10.486,10.486,0,0,0,8.367,2.246A10.975,10.975,0,0,0,30.664,26.3Z" transform="translate(116.714 -6)" fill="#fff"/>
    <path id="Path_1502" data-name="Path 1502" d="M17.115,19.692,17.242,19a10.649,10.649,0,0,0-7.933-1.811L11.12,7.1,4.709,6a60.836,60.836,0,0,0-4.2,13.656c-.869,5.252-.833,10.867,1.811,14.833a10.65,10.65,0,0,0,2.21,2.3,10.468,10.468,0,0,0,8.386,2.246,10.867,10.867,0,0,0,6.574-3.84l-.507-.688C16.3,30.559,16.3,24.926,17.115,19.692Z" transform="translate(22 -6)" fill="#fff"/>
    <path id="Path_1503" data-name="Path 1503" d="M100.375,12.348,96.753,13a.29.29,0,0,0-.272.272v26.75a.308.308,0,0,0,.308.308h3.622a.29.29,0,0,0,.272-.308V12.656a.326.326,0,0,0-.308-.308ZM92.841,28.232a8.621,8.621,0,0,0-2.191-2.843l-.272-.2a7.335,7.335,0,0,0-1.286-.815h0a6.991,6.991,0,0,0,1.666-4.51,7.824,7.824,0,0,0-.67-3.151A6.919,6.919,0,0,0,88.4,14.322a7.244,7.244,0,0,0-2.354-1.467,8.947,8.947,0,0,0-3.369-.543h-8.06a.308.308,0,0,0-.29.308V40a.308.308,0,0,0,.29.308H84.655a11.157,11.157,0,0,0,3.622-.489,8.2,8.2,0,0,0,2.517-1.413,8.82,8.82,0,0,0,2.191-2.843c.127-.272.235-.507.326-.743v-.308a9.237,9.237,0,0,0,.4-2.626,8.4,8.4,0,0,0-.869-3.622ZM78.623,16.46H82.01a8.893,8.893,0,0,1,2.391.272,3.206,3.206,0,0,1,1.2.815,3.459,3.459,0,0,1,.869,2.3,3.115,3.115,0,0,1-.851,2.264,3.006,3.006,0,0,1-1.2.815,6,6,0,0,1-1.594.272H78.587V16.46Zm10.36,17.025a4.383,4.383,0,0,1-.869,1.413,4.582,4.582,0,0,1-1.558,1,8.349,8.349,0,0,1-2.753.362h-5.2V27.381h5.2a8.241,8.241,0,0,1,2.735.362,4.347,4.347,0,0,1,1.539,1,5.777,5.777,0,0,1,.887,1.376,4.329,4.329,0,0,1,.326,1.666,4.582,4.582,0,0,1-.326,1.7Zm14.272.906C103.17,36.2,103.166,32.488,103.255,34.39ZM51.094,12.348,47.472,13a.344.344,0,0,0-.254.272v26.75a.308.308,0,0,0,.29.308H51.13a.308.308,0,0,0,.254-.308V12.656A.308.308,0,0,0,51.094,12.348ZM43.524,28.232a8.567,8.567,0,0,0-2.173-2.843l-.272-.2a6.067,6.067,0,0,0-1.3-.815h0a6.991,6.991,0,0,0,1.666-4.51,7.661,7.661,0,0,0-.6-2.988,6.918,6.918,0,0,0-1.684-2.391,6.991,6.991,0,0,0-2.336-1.467,8.947,8.947,0,0,0-3.369-.543H25.376a.326.326,0,0,0-.217,0,.308.308,0,0,0,0,.217V39.859a.308.308,0,0,0,.29.308h9.907a11.157,11.157,0,0,0,3.622-.489,8.513,8.513,0,0,0,2.536-1.413A8.82,8.82,0,0,0,43.7,35.422c.127-.272.217-.507.308-.743v-.308a8.15,8.15,0,0,0,.435-2.626,8.657,8.657,0,0,0-.869-3.622ZM29.306,16.46h3.387a8.892,8.892,0,0,1,2.391.272,3.006,3.006,0,0,1,1.2.815,3.3,3.3,0,0,1,.869,2.3,3.206,3.206,0,0,1-.869,2.264,2.626,2.626,0,0,1-1.2.815,6,6,0,0,1-1.594.272H29.306ZM39.7,33.484a4.782,4.782,0,0,1-.887,1.413,4.582,4.582,0,0,1-1.558,1,8.386,8.386,0,0,1-2.771.362h-5.18V27.381h5.18a8.385,8.385,0,0,1,2.771.362,4.419,4.419,0,0,1,1.558,1,5.27,5.27,0,0,1,.887,1.376,4.329,4.329,0,0,1,.326,1.666,4.274,4.274,0,0,1-.344,1.7Zm28.978-11.3a8.1,8.1,0,0,0-5.759-1.992A8.331,8.331,0,0,0,57.614,21.8a7.245,7.245,0,0,0-2.536,3.459.217.217,0,0,0,.181.326l3.4.616a.272.272,0,0,0,.308-.145,3.894,3.894,0,0,1,3.948-2.336A3.821,3.821,0,0,1,67.05,27.8V28.5a17.749,17.749,0,0,0-5.144-.815A8.893,8.893,0,0,0,56.274,29.5a5.741,5.741,0,0,0-2.264,4.89A5.814,5.814,0,0,0,56.039,39.1,7.48,7.48,0,0,0,61,40.8a8.132,8.132,0,0,0,6.013-2.246v1.521a.308.308,0,0,0,.308.326h3.169a.308.308,0,0,0,.326-.326V27.526a6.973,6.973,0,0,0-2.173-5.433ZM65.438,35.712a5.9,5.9,0,0,1-3.912,1.34,3.93,3.93,0,0,1-2.608-.779,2.626,2.626,0,0,1-.924-2.1,2.463,2.463,0,0,1,1.141-2.191,5.433,5.433,0,0,1,2.934-.743,16.771,16.771,0,0,1,4.908.8,4.329,4.329,0,0,1-1.558,3.622Z" transform="translate(20.391 -10.479)" fill="#fff"/>
  </g>
</svg>
