<svg xmlns="http://www.w3.org/2000/svg" xmlns:xlink="http://www.w3.org/1999/xlink" width="2012" height="2012" viewBox="0 0 2012 2012">
  <defs>
    <linearGradient id="linear-gradient" x1="0.5" x2="0.5" y2="1" gradientUnits="objectBoundingBox">
      <stop offset="0" stop-color="#fff"/>
      <stop offset="1" stop-color="#fff" stop-opacity="0"/>
    </linearGradient>
  </defs>
  <path id="Exclusion_4" data-name="Exclusion 4" d="M1006,2012c-17.214,0-34.631-.441-51.768-1.309-17.005-.862-34.194-2.169-51.089-3.885-16.773-1.7-33.711-3.856-50.346-6.4-16.519-2.524-33.187-5.5-49.54-8.847-16.244-3.324-32.62-7.1-48.671-11.233-15.951-4.1-32.013-8.665-47.739-13.556-15.638-4.864-31.365-10.185-46.743-15.816-15.3-5.6-30.67-11.662-45.684-18.013-29.843-12.622-59.43-26.875-87.939-42.362-28.306-15.377-56.213-32.331-82.945-50.391-26.6-17.972-52.659-37.457-77.445-57.913-24.725-20.405-48.762-42.251-71.44-64.929s-44.523-46.714-64.929-71.44c-20.456-24.787-39.941-50.844-57.913-77.446-18.058-26.73-35.012-54.636-50.39-82.945-15.488-28.51-29.741-58.1-42.362-87.939-6.35-15.012-12.41-30.382-18.013-45.684-5.631-15.38-10.952-31.106-15.816-46.743-4.891-15.726-9.452-31.787-13.556-47.738-4.13-16.051-7.909-32.427-11.233-48.671-3.346-16.352-6.323-33.02-8.847-49.54-2.542-16.636-4.694-33.575-6.4-50.346-1.716-16.895-3.023-34.084-3.885-51.089C.44,1040.632,0,1023.214,0,1006s.441-34.631,1.309-51.768c.862-17.005,2.169-34.194,3.885-51.089,1.7-16.771,3.856-33.71,6.4-50.346,2.525-16.521,5.5-33.189,8.847-49.54,3.324-16.244,7.1-32.62,11.233-48.671,4.1-15.951,8.665-32.013,13.556-47.739,4.864-15.638,10.185-31.365,15.816-46.743,5.6-15.3,11.664-30.674,18.013-45.684,12.622-29.843,26.875-59.43,42.362-87.939,15.378-28.307,32.331-56.214,50.39-82.945,17.971-26.6,37.456-52.657,57.913-77.445,20.406-24.725,42.251-48.762,64.929-71.44s46.715-44.523,71.44-64.929c24.789-20.457,50.845-39.942,77.445-57.913,26.731-18.059,54.638-35.013,82.945-50.39,28.509-15.487,58.1-29.74,87.939-42.362,15.01-6.349,30.38-12.409,45.684-18.013,15.378-5.631,31.1-10.952,46.743-15.816,15.726-4.891,31.787-9.452,47.739-13.556,16.051-4.13,32.427-7.909,48.671-11.233,16.352-3.346,33.02-6.322,49.54-8.847,16.636-2.542,33.576-4.694,50.346-6.4,16.895-1.716,34.084-3.023,51.089-3.885C971.369.44,988.786,0,1006,0s34.631.441,51.769,1.309c17.005.862,34.194,2.169,51.089,3.885,16.771,1.7,33.71,3.856,50.346,6.4,16.52,2.524,33.188,5.5,49.54,8.847,16.244,3.324,32.62,7.1,48.671,11.233,15.951,4.1,32.013,8.665,47.738,13.556,15.637,4.863,31.363,10.185,46.743,15.816,15.3,5.6,30.672,11.663,45.684,18.013,29.842,12.622,59.428,26.874,87.939,42.362,28.308,15.378,56.215,32.332,82.945,50.39,26.6,17.972,52.658,37.456,77.446,57.913,24.725,20.406,48.761,42.251,71.44,64.929s44.524,46.715,64.929,71.44c20.456,24.787,39.941,50.843,57.913,77.445,18.06,26.732,35.013,54.639,50.391,82.945,15.487,28.509,29.74,58.1,42.362,87.939,6.35,15.014,12.411,30.385,18.013,45.684,5.63,15.378,10.952,31.1,15.816,46.743,4.891,15.726,9.452,31.787,13.556,47.739,4.13,16.051,7.909,32.427,11.233,48.671,3.346,16.353,6.323,33.021,8.847,49.54,2.542,16.635,4.694,33.574,6.4,50.346,1.716,16.895,3.023,34.084,3.885,51.089.868,17.137,1.309,34.555,1.309,51.768s-.441,34.631-1.309,51.769c-.862,17.005-2.169,34.194-3.885,51.089-1.7,16.773-3.856,33.712-6.4,50.346-2.524,16.519-5.5,33.186-8.847,49.54-3.324,16.244-7.1,32.62-11.233,48.671-4.1,15.951-8.665,32.013-13.556,47.738-4.863,15.637-10.185,31.363-15.816,46.743-5.6,15.3-11.662,30.668-18.013,45.684-12.622,29.842-26.875,59.428-42.362,87.939-15.378,28.307-32.331,56.214-50.391,82.945-17.973,26.6-37.458,52.66-57.913,77.446-20.405,24.725-42.251,48.761-64.929,71.44s-46.714,44.524-71.44,64.929c-24.786,20.455-50.842,39.94-77.446,57.913-26.731,18.059-54.637,35.013-82.945,50.391-28.51,15.487-58.1,29.74-87.939,42.362-15.016,6.351-30.386,12.411-45.684,18.013-15.38,5.631-31.106,10.953-46.743,15.816-15.726,4.891-31.787,9.452-47.738,13.556-16.051,4.13-32.427,7.909-48.671,11.233-16.354,3.346-33.021,6.323-49.54,8.847-16.635,2.542-33.573,4.694-50.346,6.4-16.895,1.716-34.084,3.023-51.089,3.885C1040.632,2011.56,1023.214,2012,1006,2012Zm0-1654a658.357,658.357,0,0,0-66.254,3.345,649.731,649.731,0,0,0-64.34,9.82c-20.877,4.272-41.771,9.645-62.1,15.968-20.1,6.253-40.133,13.584-59.535,21.79-19.222,8.13-38.28,17.311-56.644,27.287-18.234,9.905-36.21,20.826-53.428,32.458-17.135,11.576-33.919,24.126-49.885,37.3-15.926,13.143-31.409,27.215-46.017,41.823s-28.68,30.091-41.823,46.017c-13.177,15.966-25.728,32.75-37.3,49.885-11.632,17.218-22.553,35.194-32.458,53.428-9.976,18.365-19.157,37.422-27.287,56.644-8.207,19.4-15.538,39.433-21.79,59.535-6.323,20.33-11.7,41.224-15.968,62.1a649.731,649.731,0,0,0-9.82,64.34,657.725,657.725,0,0,0,0,132.509,649.734,649.734,0,0,0,9.82,64.34c4.272,20.877,9.645,41.771,15.968,62.1,6.253,20.1,13.584,40.133,21.79,59.535,8.13,19.222,17.311,38.28,27.287,56.645,9.905,18.234,20.826,36.21,32.458,53.428,11.576,17.135,24.126,33.919,37.3,49.885,13.143,15.926,27.215,31.409,41.823,46.017s30.091,28.68,46.017,41.823c15.966,13.177,32.75,25.728,49.885,37.3,17.218,11.632,35.194,22.553,53.428,32.458,18.365,9.976,37.422,19.157,56.644,27.287,19.4,8.206,39.433,15.538,59.535,21.791,20.33,6.323,41.224,11.7,62.1,15.968a649.722,649.722,0,0,0,64.34,9.82,657.73,657.73,0,0,0,132.509,0,649.725,649.725,0,0,0,64.34-9.82c20.877-4.272,41.771-9.644,62.1-15.968,20.1-6.253,40.133-13.584,59.535-21.791,19.222-8.13,38.28-17.311,56.645-27.287,18.234-9.905,36.21-20.826,53.428-32.458,17.135-11.576,33.919-24.127,49.885-37.3,15.926-13.143,31.409-27.214,46.017-41.823s28.68-30.091,41.823-46.017c13.177-15.966,25.728-32.75,37.3-49.885,11.632-17.218,22.553-35.194,32.458-53.428,9.976-18.365,19.157-37.422,27.287-56.645,8.206-19.4,15.538-39.433,21.791-59.535,6.323-20.33,11.7-41.224,15.968-62.1a649.725,649.725,0,0,0,9.82-64.34,657.73,657.73,0,0,0,0-132.509,649.722,649.722,0,0,0-9.82-64.34c-4.272-20.877-9.644-41.771-15.968-62.1-6.253-20.1-13.584-40.133-21.791-59.535-8.13-19.222-17.311-38.28-27.287-56.644-9.905-18.234-20.826-36.21-32.458-53.428-11.576-17.135-24.127-33.919-37.3-49.885-13.143-15.926-27.214-31.409-41.823-46.017s-30.091-28.68-46.017-41.823c-15.966-13.177-32.75-25.728-49.885-37.3-17.218-11.632-35.194-22.553-53.428-32.458-18.365-9.976-37.422-19.157-56.645-27.287-19.4-8.207-39.433-15.538-59.535-21.79-20.33-6.323-41.224-11.7-62.1-15.968a649.734,649.734,0,0,0-64.34-9.82A658.357,658.357,0,0,0,1006,358Z" fill="url(#linear-gradient)"/>
</svg>
