<svg xmlns="http://www.w3.org/2000/svg" xmlns:xlink="http://www.w3.org/1999/xlink" viewBox="0 0 202.75 65.46"><defs><style>.cls-1{isolation:isolate;}.cls-2{fill:#fff5d4;}.cls-3{fill:url(#_ÂÁ_Ï_ÌÌ_È_ËÂÌÚ_22);}.cls-4{fill:#482702;mix-blend-mode:screen;}.cls-5{fill:#f2cff1;mix-blend-mode:multiply;}.cls-6{fill:#aa044a;}.cls-7{fill:url(#_ÂÁ_Ï_ÌÌ_È_ËÂÌÚ_22-2);}</style><radialGradient id="_ÂÁ_Ï_ÌÌ_È_ËÂÌÚ_22" cx="51.88" cy="11.04" r="65.33" gradientUnits="userSpaceOnUse"><stop offset="0" stop-color="#ffa23f"/><stop offset="0.11" stop-color="#f99240"/><stop offset="0.32" stop-color="#e86841"/><stop offset="0.62" stop-color="#ce2444"/><stop offset="0.73" stop-color="#c30945"/><stop offset="0.77" stop-color="#c60f43"/><stop offset="0.84" stop-color="#d01f3c"/><stop offset="0.91" stop-color="#e13b30"/><stop offset="0.98" stop-color="#f76020"/><stop offset="1" stop-color="#fd6a1c"/></radialGradient><radialGradient id="_ÂÁ_Ï_ÌÌ_È_ËÂÌÚ_22-2" cx="1284.88" cy="-604.83" r="52.1" gradientTransform="translate(-1106.46 -533.67) rotate(48.9)" xlink:href="#_ÂÁ_Ï_ÌÌ_È_ËÂÌÚ_22"/></defs><g class="cls-1"><g id="Layer_2" data-name="Layer 2"><g id="layer_1-2" data-name="layer 1"><path class="cls-2" d="M67.46,12.07C62.28,7.83,56,5,49.74,2.78,42.47.24,34.07-.1,27.36,3.68c-4.73,2.67-8,7.07-12.31,10.32S7.86,21.31,5.34,26.33C2.6,31.79,1.66,37.2,3.65,43c1.19,3.51,2.43,7.11,4.79,10,8.91,10.81,27.41,12.13,40.25,9.33A35.08,35.08,0,0,0,61,57.06C69.28,51.41,75.3,41,75.72,30.9A22.37,22.37,0,0,0,67.46,12.07Z"/><path class="cls-3" d="M73.13,30c-.41,10.11-6.44,20.51-14.75,26.16A35.21,35.21,0,0,1,46.1,61.48C33.26,64.28,14.76,63,5.85,52.15c-2.36-2.86-3.6-6.46-4.79-10-2-5.83-1-11.25,1.69-16.7,2.53-5,5.31-9,9.71-12.33S20,5.49,24.78,2.83c6.7-3.78,15.11-3.45,22.37-.9C53.42,4.13,59.69,7,64.87,11.21A22.34,22.34,0,0,1,73.13,30Z"/><path class="cls-4" d="M48.21,34.63a49,49,0,0,0,7.23,1.15c2.38.18,4.66-.16,7-.16,2.78,0,6.95-2,8.14-4.68.71-1.6.32-3.22.16-4.87a31.86,31.86,0,0,0-1-5.82c-1.33-4.52-5.31-8.14-9.06-10.8a29.39,29.39,0,0,0-9.22-4A60.49,60.49,0,0,0,33.2,2.68,18.86,18.86,0,0,0,29,3.1c-2.89.73-5.26,2.64-7.37,4.65a5.57,5.57,0,0,0-2,3.07,9.16,9.16,0,0,0-.15,4.59,4.3,4.3,0,0,0,1.74,2.17c2.6,1.91,5.85,2.81,8.31,4.89,1.76,1.48,3,3.48,4.58,5.15C37.75,31.5,43,33.44,48.21,34.63Z"/><path class="cls-5" d="M49.2,58.35A38.32,38.32,0,0,0,59,53.19a27.31,27.31,0,0,0,4.18-3.86A23.15,23.15,0,0,0,65,47a12,12,0,0,1,1.52-2.39,24.17,24.17,0,0,1-4.91,3.28,32.06,32.06,0,0,1-4.19,2.36A45.66,45.66,0,0,1,45.6,52.83a26.27,26.27,0,0,1-12.89-1.7,17.94,17.94,0,0,1-7.26-5.91c-2.13-3-2.59-6.18-3.41-9.66a8.6,8.6,0,0,0-4.3-5.72c-1.14-.72-2.27-1.47-3.38-2.23-.95-.65-2.45-1.36-3.06-2.35-1.08-1.76-.31-4.7.12-6.54A15.27,15.27,0,0,1,13,15c-.31.58-2.42,1.29-3,1.84a19.06,19.06,0,0,0-3,4.37C5.82,23.1,4.61,25,3.57,27a14.2,14.2,0,0,0-1.64,4.37,12.58,12.58,0,0,0,.13,4.15A22.22,22.22,0,0,0,8,47a16.91,16.91,0,0,0,5.11,4A14.82,14.82,0,0,1,16,52.07a30.59,30.59,0,0,1,2.76,2.2,27.6,27.6,0,0,0,10.44,5.42A33.11,33.11,0,0,0,49.2,58.35Z"/><path class="cls-6" d="M27.21,33.18c-2.36,2.06-3.74,4.46-2.34,6.92A23.68,23.68,0,0,0,32.36,48c3.56,2.23,8,2.69,12.16,2.53a16.91,16.91,0,0,0,6.53-1.3c6-2.82,6.12-10.91,3.35-16-2-3.64-5.81-6.94-10.06-7.28-3.21-.26-5.66,1.37-8.5,2.53C32.8,29.74,29.72,31,27.21,33.18Z"/><path class="cls-6" d="M19.57,23.7c-1.66,0-3.56-.4-4.35-1.85a4,4,0,0,1,.19-3.52c1.08-2.24,2.84-2.89,4.79-4.18l7.55-5a17.41,17.41,0,0,1,3-1.7,4.13,4.13,0,0,1,3.47-.09,3.6,3.6,0,0,1,1.63,3.38c-.23,4.64-3.3,8.41-7.2,10.68A17.89,17.89,0,0,1,19.57,23.7Z"/><path class="cls-6" d="M6.4,39.93a8.68,8.68,0,0,0,4.16,4.31c1.24.6,3.14.9,4-.5a3.49,3.49,0,0,0,.24-2.35c-.43-2.9-1.32-8.63-3.88-10.54a3.74,3.74,0,0,0-4-.07C4.67,32.07,5.52,37.92,6.4,39.93Z"/><path class="cls-6" d="M56.9,11.72A2.61,2.61,0,0,0,57.61,13q3.8,4.14,7.6,8.29l1.67,1.83a1.38,1.38,0,0,0,.76.53,1,1,0,0,0,1-.85,2.65,2.65,0,0,0-.29-1.43c-1.84-4.39-6.19-9.81-11.32-10.27A.83.83,0,0,0,56.9,11.72Z"/><path class="cls-6" d="M27.74,59.09c-.24-.15-.5-.39-.42-.67a.62.62,0,0,1,.43-.37,6.86,6.86,0,0,1,2.39-.35,10.89,10.89,0,0,1,5,.63.76.76,0,0,1,.45.41c.08.33-.29.6-.62.72A8.75,8.75,0,0,1,27.74,59.09Z"/><path class="cls-2" d="M199,28.55c-2.28-5.69-6.49-10.92-12.27-13-4.09-1.45-8.46-1.13-12.66-2a26.4,26.4,0,0,0-12.5.63c-4.71,1.21-8.46,3.48-10.93,7.73-1.48,2.56-3,5.19-3.48,8.11-1.82,11,7.08,22.83,15.49,29.08a27.3,27.3,0,0,0,33.07-.23,17.84,17.84,0,0,0,7-14.84A46.63,46.63,0,0,0,199,28.55Z"/><path class="cls-7" d="M193.61,59.8a27.31,27.31,0,0,1-33.07.23C152.13,53.78,143.23,42,145.06,31c.48-2.92,2-5.55,3.48-8.11,2.46-4.25,6.21-6.52,10.92-7.73a26.4,26.4,0,0,1,12.5-.63c4.2.86,8.57.54,12.66,2,5.79,2.05,10,7.27,12.27,13A46.38,46.38,0,0,1,200.6,45,17.84,17.84,0,0,1,193.61,59.8Z"/><path class="cls-4" d="M177.79,47.23a39,39,0,0,0,3.1,4.94c1.13,1.53,2.54,2.72,3.78,4.13,1.46,1.67,4.83,3.15,7.07,2.45,1.34-.42,2.1-1.5,3-2.46a24.66,24.66,0,0,0,3-3.63c2-3.17,2.11-7.46,1.75-11.11A23.63,23.63,0,0,0,197,33.93a47.84,47.84,0,0,0-7.91-12.47,14.1,14.1,0,0,0-2.48-2.34,13.67,13.67,0,0,0-6.66-2,4.35,4.35,0,0,0-2.87.42,7.14,7.14,0,0,0-2.84,2.32,3.39,3.39,0,0,0-.39,2.18c.21,2.56,1.37,5,1.41,7.56a50.74,50.74,0,0,1-.69,5.45C174.19,39.29,175.78,43.48,177.79,47.23Z"/><path class="cls-5" d="M164.05,60.25a30.77,30.77,0,0,0,8.24,3.19,21.41,21.41,0,0,0,4.51.49,18.06,18.06,0,0,0,2.32-.14,10.12,10.12,0,0,1,2.23-.34,19.39,19.39,0,0,1-4.55-1.23,26.67,26.67,0,0,1-3.61-1.28,36.74,36.74,0,0,1-7.71-5.74,21.06,21.06,0,0,1-5.73-8.64,14.35,14.35,0,0,1-.26-7.47c.68-2.84,2.37-4.79,4-7.11a6.87,6.87,0,0,0,1.19-5.58c-.17-1.06-.31-2.13-.44-3.2a8.66,8.66,0,0,1-.19-3.07c.49-1.57,2.67-2.65,4-3.36a12.79,12.79,0,0,1,3.1-1c-.52.12-2-.78-2.7-.85a15.32,15.32,0,0,0-4.2.49c-1.76.3-3.55.58-5.29,1a11.62,11.62,0,0,0-3.48,1.31A10,10,0,0,0,153.07,20a17.62,17.62,0,0,0-3.77,9.56,13.27,13.27,0,0,0,.3,5.14,13.44,13.44,0,0,1,.85,2.38,24,24,0,0,1,.12,2.81A22.06,22.06,0,0,0,152.78,49,26.41,26.41,0,0,0,164.05,60.25Z"/><path class="cls-6" d="M167.65,33.85c-2.48-.35-4.64.08-5.38,2.21a18.91,18.91,0,0,0-.83,8.64C162,48,164,50.9,166.3,53.34a13.35,13.35,0,0,0,4.2,3.24c4.82,2.11,9.77-2,11.37-6.36,1.15-3.1,1.13-7.13-.89-9.87-1.54-2.06-3.8-2.68-6-3.78A23.65,23.65,0,0,0,167.65,33.85Z"/><path class="cls-6" d="M169.35,24.28c-.86-1-1.63-2.35-1.17-3.58A3.14,3.14,0,0,1,170.39,19c1.92-.53,3.23.18,5,.69l6.93,1.93a14.56,14.56,0,0,1,2.6.91,3.3,3.3,0,0,1,1.87,2,2.87,2.87,0,0,1-1.18,2.75c-2.9,2.3-6.78,2.43-10.19,1.27A14.09,14.09,0,0,1,169.35,24.28Z"/><path class="cls-6" d="M152.69,24.87a6.86,6.86,0,0,0-.41,4.76c.29,1.06,1.1,2.36,2.4,2.15a2.82,2.82,0,0,0,1.53-1.09c1.52-1.78,4.5-5.32,4.3-7.86a2.94,2.94,0,0,0-2-2.41C156.51,19.72,153.44,23.29,152.69,24.87Z"/><path class="cls-6" d="M196.11,40.43a2.18,2.18,0,0,0-.37,1.08l-1,8.92c-.08.65-.15,1.31-.22,2a1.17,1.17,0,0,0,.07.74.79.79,0,0,0,1,.16,2.09,2.09,0,0,0,.71-.92C198,49,199,43.5,196.59,40.18A.67.67,0,0,0,196.11,40.43Z"/><path class="cls-6" d="M152.36,47.74c0-.22,0-.5.18-.6a.52.52,0,0,1,.45.06,5.53,5.53,0,0,1,1.47,1.26,8.64,8.64,0,0,1,2.22,3.31.57.57,0,0,1,0,.48c-.15.23-.51.14-.76,0A7,7,0,0,1,152.36,47.74Z"/></g></g></g></svg>