<svg xmlns="http://www.w3.org/2000/svg" width="144" height="124" viewBox="0 0 144 124">
  <g id="Group_1354" data-name="Group 1354" transform="translate(-1590 -853)">
    <circle id="Ellipse_731" data-name="Ellipse 731" cx="2" cy="2" r="2" transform="translate(1590 853)" fill="#80396b"/>
    <circle id="Ellipse_731-2" data-name="Ellipse 731" cx="2" cy="2" r="2" transform="translate(1610 853)" fill="#80396b"/>
    <circle id="Ellipse_731-3" data-name="Ellipse 731" cx="2" cy="2" r="2" transform="translate(1630 853)" fill="#80396b"/>
    <circle id="Ellipse_731-4" data-name="Ellipse 731" cx="2" cy="2" r="2" transform="translate(1650 853)" fill="#80396b"/>
    <circle id="Ellipse_731-5" data-name="Ellipse 731" cx="2" cy="2" r="2" transform="translate(1670 853)" fill="#80396b"/>
    <circle id="Ellipse_731-6" data-name="Ellipse 731" cx="2" cy="2" r="2" transform="translate(1690 853)" fill="#80396b"/>
    <circle id="Ellipse_731-7" data-name="Ellipse 731" cx="2" cy="2" r="2" transform="translate(1710 853)" fill="#80396b"/>
    <circle id="Ellipse_731-8" data-name="Ellipse 731" cx="2" cy="2" r="2" transform="translate(1730 853)" fill="#80396b"/>
    <circle id="Ellipse_731-9" data-name="Ellipse 731" cx="2" cy="2" r="2" transform="translate(1590 873)" fill="#80396b"/>
    <circle id="Ellipse_731-10" data-name="Ellipse 731" cx="2" cy="2" r="2" transform="translate(1610 873)" fill="#80396b"/>
    <circle id="Ellipse_731-11" data-name="Ellipse 731" cx="2" cy="2" r="2" transform="translate(1630 873)" fill="#80396b"/>
    <circle id="Ellipse_731-12" data-name="Ellipse 731" cx="2" cy="2" r="2" transform="translate(1650 873)" fill="#80396b"/>
    <circle id="Ellipse_731-13" data-name="Ellipse 731" cx="2" cy="2" r="2" transform="translate(1670 873)" fill="#80396b"/>
    <circle id="Ellipse_731-14" data-name="Ellipse 731" cx="2" cy="2" r="2" transform="translate(1690 873)" fill="#80396b"/>
    <circle id="Ellipse_731-15" data-name="Ellipse 731" cx="2" cy="2" r="2" transform="translate(1710 873)" fill="#80396b"/>
    <circle id="Ellipse_731-16" data-name="Ellipse 731" cx="2" cy="2" r="2" transform="translate(1730 873)" fill="#80396b"/>
    <circle id="Ellipse_731-17" data-name="Ellipse 731" cx="2" cy="2" r="2" transform="translate(1590 893)" fill="#80396b"/>
    <circle id="Ellipse_731-18" data-name="Ellipse 731" cx="2" cy="2" r="2" transform="translate(1610 893)" fill="#80396b"/>
    <circle id="Ellipse_731-19" data-name="Ellipse 731" cx="2" cy="2" r="2" transform="translate(1630 893)" fill="#80396b"/>
    <circle id="Ellipse_731-20" data-name="Ellipse 731" cx="2" cy="2" r="2" transform="translate(1650 893)" fill="#80396b"/>
    <circle id="Ellipse_731-21" data-name="Ellipse 731" cx="2" cy="2" r="2" transform="translate(1670 893)" fill="#80396b"/>
    <circle id="Ellipse_731-22" data-name="Ellipse 731" cx="2" cy="2" r="2" transform="translate(1690 893)" fill="#80396b"/>
    <circle id="Ellipse_731-23" data-name="Ellipse 731" cx="2" cy="2" r="2" transform="translate(1710 893)" fill="#80396b"/>
    <circle id="Ellipse_731-24" data-name="Ellipse 731" cx="2" cy="2" r="2" transform="translate(1730 893)" fill="#80396b"/>
    <circle id="Ellipse_731-25" data-name="Ellipse 731" cx="2" cy="2" r="2" transform="translate(1590 913)" fill="#80396b"/>
    <circle id="Ellipse_731-26" data-name="Ellipse 731" cx="2" cy="2" r="2" transform="translate(1610 913)" fill="#80396b"/>
    <circle id="Ellipse_731-27" data-name="Ellipse 731" cx="2" cy="2" r="2" transform="translate(1630 913)" fill="#80396b"/>
    <circle id="Ellipse_731-28" data-name="Ellipse 731" cx="2" cy="2" r="2" transform="translate(1650 913)" fill="#80396b"/>
    <circle id="Ellipse_731-29" data-name="Ellipse 731" cx="2" cy="2" r="2" transform="translate(1670 913)" fill="#80396b"/>
    <circle id="Ellipse_731-30" data-name="Ellipse 731" cx="2" cy="2" r="2" transform="translate(1690 913)" fill="#80396b"/>
    <circle id="Ellipse_731-31" data-name="Ellipse 731" cx="2" cy="2" r="2" transform="translate(1710 913)" fill="#80396b"/>
    <circle id="Ellipse_731-32" data-name="Ellipse 731" cx="2" cy="2" r="2" transform="translate(1730 913)" fill="#80396b"/>
    <circle id="Ellipse_731-33" data-name="Ellipse 731" cx="2" cy="2" r="2" transform="translate(1590 933)" fill="#80396b"/>
    <circle id="Ellipse_731-34" data-name="Ellipse 731" cx="2" cy="2" r="2" transform="translate(1610 933)" fill="#80396b"/>
    <circle id="Ellipse_731-35" data-name="Ellipse 731" cx="2" cy="2" r="2" transform="translate(1630 933)" fill="#80396b"/>
    <circle id="Ellipse_731-36" data-name="Ellipse 731" cx="2" cy="2" r="2" transform="translate(1650 933)" fill="#80396b"/>
    <circle id="Ellipse_731-37" data-name="Ellipse 731" cx="2" cy="2" r="2" transform="translate(1670 933)" fill="#80396b"/>
    <circle id="Ellipse_731-38" data-name="Ellipse 731" cx="2" cy="2" r="2" transform="translate(1690 933)" fill="#80396b"/>
    <circle id="Ellipse_731-39" data-name="Ellipse 731" cx="2" cy="2" r="2" transform="translate(1710 933)" fill="#80396b"/>
    <circle id="Ellipse_731-40" data-name="Ellipse 731" cx="2" cy="2" r="2" transform="translate(1730 933)" fill="#80396b"/>
    <circle id="Ellipse_731-41" data-name="Ellipse 731" cx="2" cy="2" r="2" transform="translate(1590 953)" fill="#80396b"/>
    <circle id="Ellipse_731-42" data-name="Ellipse 731" cx="2" cy="2" r="2" transform="translate(1610 953)" fill="#80396b"/>
    <circle id="Ellipse_731-43" data-name="Ellipse 731" cx="2" cy="2" r="2" transform="translate(1630 953)" fill="#80396b"/>
    <circle id="Ellipse_731-44" data-name="Ellipse 731" cx="2" cy="2" r="2" transform="translate(1650 953)" fill="#80396b"/>
    <circle id="Ellipse_731-45" data-name="Ellipse 731" cx="2" cy="2" r="2" transform="translate(1670 953)" fill="#80396b"/>
    <circle id="Ellipse_731-46" data-name="Ellipse 731" cx="2" cy="2" r="2" transform="translate(1690 953)" fill="#80396b"/>
    <circle id="Ellipse_731-47" data-name="Ellipse 731" cx="2" cy="2" r="2" transform="translate(1710 953)" fill="#80396b"/>
    <circle id="Ellipse_731-48" data-name="Ellipse 731" cx="2" cy="2" r="2" transform="translate(1730 953)" fill="#80396b"/>
    <circle id="Ellipse_731-49" data-name="Ellipse 731" cx="2" cy="2" r="2" transform="translate(1590 973)" fill="#80396b"/>
    <circle id="Ellipse_731-50" data-name="Ellipse 731" cx="2" cy="2" r="2" transform="translate(1610 973)" fill="#80396b"/>
    <circle id="Ellipse_731-51" data-name="Ellipse 731" cx="2" cy="2" r="2" transform="translate(1630 973)" fill="#80396b"/>
    <circle id="Ellipse_731-52" data-name="Ellipse 731" cx="2" cy="2" r="2" transform="translate(1650 973)" fill="#80396b"/>
    <circle id="Ellipse_731-53" data-name="Ellipse 731" cx="2" cy="2" r="2" transform="translate(1670 973)" fill="#80396b"/>
    <circle id="Ellipse_731-54" data-name="Ellipse 731" cx="2" cy="2" r="2" transform="translate(1690 973)" fill="#80396b"/>
    <circle id="Ellipse_731-55" data-name="Ellipse 731" cx="2" cy="2" r="2" transform="translate(1710 973)" fill="#80396b"/>
    <circle id="Ellipse_731-56" data-name="Ellipse 731" cx="2" cy="2" r="2" transform="translate(1730 973)" fill="#80396b"/>
  </g>
</svg>
