<svg xmlns="http://www.w3.org/2000/svg" width="283" height="152" viewBox="0 0 283 152">
  <g id="_76" data-name="76" transform="translate(0.312 -0.329)">
    <path id="Fill_1" data-name="Fill 1" d="M35.164,152a7.227,7.227,0,0,1-5.092-2.009,2.8,2.8,0,0,0-.643-.424c-.421-.217-.855-.428-1.275-.632l-.548-.267.776-.568.052-.038.832-.609c-.047-.039-.092-.081-.135-.121a1.288,1.288,0,0,0-.278-.217c-.417-.212-.848-.416-1.264-.614l-.513-.245a7.562,7.562,0,0,0,.641-.452,2.9,2.9,0,0,1,1.386-.721c21.435-1.459,42.477-6.774,62.826-11.913l.05-.013c1.992-.5,4.051-1.023,6.077-1.531a654.83,654.83,0,0,0,78.407-24.472c5.519-2.145,11.235-4.553,17.473-7.36a99.969,99.969,0,0,0,12.227-6.6c-.643.217-1.295.441-1.925.657l-.007,0c-1.4.48-2.846.976-4.28,1.428-1.907.6-3.842,1.2-5.713,1.778-2.452.758-4.985,1.54-7.468,2.335a3.858,3.858,0,0,0-1.115.68c-.162.125-.329.254-.5.367l-.409.108-1.469.389c-.167.1-.332.227-.493.346a3.244,3.244,0,0,1-1.1.618c-2.755.662-5.553,1.358-8.259,2.031-6.975,1.736-14.183,3.529-21.346,4.907-10.221,1.967-20.685,3.6-30.8,5.169-2.424.377-4.927.766-7.394,1.155-1.887.3-3.832.438-5.712.573-1.341.1-2.724.2-4.076.352-.991.115-1.988.313-2.953.5-1.038.206-2.11.419-3.175.529-4.846.5-9.964.96-16.107,1.443-.071.006-.145.008-.221.008a6.62,6.62,0,0,1-1.269-.169l-.014,0a6.639,6.639,0,0,0-1.261-.166h-.089a1.969,1.969,0,0,0-.861.338,1.977,1.977,0,0,1-.862.338l-2.259.072c-3.657.117-7.436.239-11.151.239-.588,0-1.167,0-1.723-.009q-1.619-.018-3.24-.029c-5.692-.046-11.576-.094-17.321-.6A94.539,94.539,0,0,1,26.221,116.2,43.7,43.7,0,0,1,12,109.87C6.445,106.012,1.168,101.365.173,93.554a20.887,20.887,0,0,1,.481-7.882,24.369,24.369,0,0,1,3.2-7.119c1.363-2.107,2.935-4.127,4.455-6.082.943-1.213,1.917-2.464,2.831-3.724a8.563,8.563,0,0,0,.845-1.607,9.875,9.875,0,0,1,.724-1.434c.154-.237.306-.476.459-.715l.006-.01a18.764,18.764,0,0,1,2.658-3.529,143.4,143.4,0,0,1,23.19-17.727c5.039-3.165,11.72-7.269,18.717-10.944,22.313-11.722,43.3-19.915,64.162-25.048C139.109,3.5,153.624,1.136,167.581.3c3.34-.2,6.912-.3,11.241-.3,3.051,0,6.155.047,9.156.092h.008C190.5.13,193.1.17,195.652.181c4.916.022,9.914.093,14.748.161,2.62.037,5.325.075,7.986.105,15.53.175,28.925,2.041,40.95,5.706,7.857,2.395,13.541,5.594,17.887,10.068a21.3,21.3,0,0,1,5.459,11.315,20.409,20.409,0,0,1-1.6,12.41,39.106,39.106,0,0,1-12.856,14.727c-.729.5-1.478,1.01-2.2,1.5l-.011.007a77.662,77.662,0,0,0-6.4,4.641,34.054,34.054,0,0,0-3.291,3.311,36.623,36.623,0,0,1-3.057,3.113c-1.888,1.637-3.888,3.21-5.822,4.731-1.7,1.336-3.453,2.715-5.125,4.133a10.1,10.1,0,0,0-1.693,2.062,14.7,14.7,0,0,1-1.162,1.548c-.759.843-1.513,1.723-2.241,2.575a49.509,49.509,0,0,1-6.308,6.52c-4.3,3.461-9,6.581-13.538,9.6q-1,.667-2.006,1.335c-1.945,1.3-4.027,2.46-6.04,3.585l-.007,0h0c-.9.5-1.829,1.022-2.735,1.547a6.369,6.369,0,0,0-5.208,2.669l-2.648,1.2-.01,0c-2.49,1.127-5.064,2.292-7.6,3.424-.517.23-1.061.418-1.588.6-.224.077-.455.156-.681.238q-2.867,1.137-5.743,2.283l-.012,0-2.512,1c-.289.194-.574.411-.85.621a7.972,7.972,0,0,1-1.894,1.183,494.791,494.791,0,0,1-61.52,18.973c-3.346.794-6.745,1.617-10.032,2.414l-.022.005c-9.656,2.341-19.641,4.761-29.545,6.72-8.551,1.69-17.339,2.933-25.838,4.135h-.008c-3.08.436-6.266.886-9.394,1.352a26.665,26.665,0,0,1-3.5.206c-.731.011-1.487.022-2.226.072C35.561,151.993,35.36,152,35.164,152Zm76.579-21.624-3.388.835c.053.2.107.4.161.605l3.344-1C111.823,130.668,111.783,130.52,111.743,130.376Zm50.228-16.506h0a2.239,2.239,0,0,0-.42.291c-.093.071-.188.144-.264.2-.241.173-.478.374-.707.568A4.888,4.888,0,0,1,159,115.956c-12.294,3.861-24.814,7.727-36.922,11.467l-.012,0-1.972.609c-1.319.407-2.668.79-3.974,1.161q-.871.247-1.741.5a6.186,6.186,0,0,0,.838.057,7.763,7.763,0,0,0,2.286-.373c13.957-4.206,27.627-8.329,41.408-12.534a3.78,3.78,0,0,1,1.049-.208.7.7,0,0,1,.556.2,1.71,1.71,0,0,1,.171,1.309,2.451,2.451,0,0,0,.274,1.15c.072.177.147.36.2.538.094-.159.2-.319.293-.474a8.966,8.966,0,0,0,.6-1.054,6.187,6.187,0,0,0,.328-1.036,2.7,2.7,0,0,1,1.8-2.315c7-2.536,14-5.236,20.817-8.025,3.355-1.374,6.695-2.944,9.925-4.463,1.154-.543,2.344-1.1,3.518-1.645l.416-.192c2.725-1.259,5.543-2.56,8.265-3.936a19.889,19.889,0,0,0,2.415-1.534c.345-.243.7-.494,1.059-.731l-.053-.083c-.1-.153-.2-.307-.292-.46-.741.4-1.489.814-2.213,1.216-1.595.886-3.239,1.8-4.909,2.585l-.422.2c-5.392,2.537-10.967,5.16-16.545,7.516-6.473,2.734-12.907,5.249-20.575,8.183a6.764,6.764,0,0,0-.716.345,3.57,3.57,0,0,1-1.6.552,1.786,1.786,0,0,1-1.3-.613Zm-12.355-97.2a2.746,2.746,0,0,0-1.294.273,8.4,8.4,0,0,1-3.555.581c-.549.013-1.116.027-1.653.082a.211.211,0,0,0-.091.046.254.254,0,0,1-.082.045c-2.334.553-4.653,1.3-6.9,2.023-1.47.474-2.986.962-4.484,1.389C117.814,25.024,103.205,29.3,89.04,34.729c-1.015.39-2.04.808-3.031,1.213-2.071.846-4.212,1.721-6.38,2.378-.83.252-1.675.49-2.493.72-3.4.956-6.912,1.945-9.948,4.13a11.746,11.746,0,0,1-3.112,1.4c-.6.2-1.23.417-1.814.674a6.877,6.877,0,0,0-1.228.769c-.175.127-.354.258-.534.377l-5.2,3.067c-.723.324-1.467.638-2.186.942a51.448,51.448,0,0,0-4.7,2.177,125.166,125.166,0,0,0-27.531,20.3,50.834,50.834,0,0,0-5.039,6.107c-.807,1.089-1.64,2.212-2.5,3.277A21.975,21.975,0,0,0,8.317,95.23a6.485,6.485,0,0,0,1.126,4.216,14.962,14.962,0,0,0,7.942,4.392c-2.572-4.686-2.834-8.446-.825-11.829a35.826,35.826,0,0,1,5.822-7.41c7.067-6.817,15.8-11.619,23.427-15.585a251.639,251.639,0,0,1,41-16.49c9.271-2.911,18.584-5.372,27.68-7.315a274.516,274.516,0,0,1,28.269-4.53c6.022-.64,12.511-1.188,19.836-1.676,4.043-.268,8.148-.4,12.2-.4a188.573,188.573,0,0,1,28.032,2.118,97.559,97.559,0,0,1,21.293,5.31,45.673,45.673,0,0,1,9.755,4.978,21.29,21.29,0,0,1,7.066,8.274c.306.64.621.913,1.053.913a1.778,1.778,0,0,0,.8-.24c.986-.513,2-1.006,2.988-1.483,1.291-.625,2.624-1.271,3.9-1.97.38-.208.781-.415,1.168-.614a13.348,13.348,0,0,0,4.087-2.773,19.83,19.83,0,0,0,5.028-11.979c.241-4.085-.582-7.44-2.447-9.971l-.164-.223c-2.455-3.337-4.993-6.787-8.864-8.552a6.344,6.344,0,0,1-1.854-1.5,4.178,4.178,0,0,0-3.018-1.726c-.11,0-.223.006-.338.017h-.01c-.13,0-.278-.257-.436-.529a3.813,3.813,0,0,0-.281-.44,2.837,2.837,0,0,0-1.413-.8,2.293,2.293,0,0,1-1.67-1.238c-.036.017-.071.037-.1.057a.771.771,0,0,1-.246.105c-.161.025-.331.067-.5.108a3.481,3.481,0,0,1-.792.134.989.989,0,0,1-.327-.05q-1.179-.408-2.356-.822A109.5,109.5,0,0,0,220.7,11.378a64.679,64.679,0,0,0-12.958-1.44c-1.026,0-2.055.032-3.057.1-.934.059-1.89.19-2.813.317a28.925,28.925,0,0,1-3.9.356,10.43,10.43,0,0,1-3.593-.582.658.658,0,0,0-.224-.037,2.846,2.846,0,0,0-1.156.434,3.862,3.862,0,0,1-1.226.487l-2.807.35-.017,0c-4.93.618-10.027,1.256-15.059,1.668a58.7,58.7,0,0,0-6.462,1.019,44.7,44.7,0,0,1-8.564,1.11,20.813,20.813,0,0,1-2.388-.134,9.142,9.142,0,0,0-1.066-.068,4.163,4.163,0,0,0-3.462,1.524.974.974,0,0,1-.822.289c-.206,0-.433-.022-.674-.044l-.039,0c-.28-.026-.532-.047-.8-.047Zm61.766,66.994c-12.148,4.174-24.763,7.975-37.493,11.3-12.38,3.231-25.236,6.1-38.212,8.542,14.3-2.279,26.869-4.807,38.425-7.73A276.651,276.651,0,0,0,211.383,83.668ZM138.186,49.5a2.946,2.946,0,0,0-.606.057,11.709,11.709,0,0,0-2.046.707,11.62,11.62,0,0,1-2.061.711c-3.948.82-7.969,1.625-11.857,2.4l-.014,0c-6.778,1.357-13.787,2.759-20.649,4.293a85.453,85.453,0,0,0-11.288,3.66l-.022.008-1.174.441c-2.634.987-5.371,1.821-8.017,2.627a82.442,82.442,0,0,0-13.04,4.8,3.25,3.25,0,0,1-.969.249,3.553,3.553,0,0,0-.912.221c-2.073.925-4.295,1.936-6.5,3.057-.872.443-1.736.938-2.572,1.416-1.052.6-2.14,1.225-3.251,1.749-1.08.508-2.222.931-3.327,1.339-.868.321-1.764.652-2.626,1.024-4.343,1.872-8.054,4.827-11.643,7.684-.759.6-1.543,1.228-2.324,1.835a46.3,46.3,0,0,0-5.905,5.874q-.359.4-.718.8a22.76,22.76,0,0,0-2.556,3.767l-.012.02-.207.353a1.765,1.765,0,0,0-.274,1.678,2.029,2.029,0,0,0,1.7.862c1.318.15,2.658.332,3.954.508a73.66,73.66,0,0,0,9.772.887h.1c20.764,0,41.176-2.805,63.794-6.194,11.713-1.754,23.435-3.917,35.414-6.165C159.878,86.126,178.8,81.7,196.2,76.636A387.053,387.053,0,0,0,235.777,63.09c.752-.309,1.14-.615,1.219-.963.1-.428-.287-.925-.716-1.4a27.986,27.986,0,0,0-11.752-7.341,92.527,92.527,0,0,0-11.565-3.006c-1.853-.4-3.767-.808-5.632-1.266a1.392,1.392,0,0,1-.642-.55,2.754,2.754,0,0,0-.422-.452,11.043,11.043,0,0,0-1.029-.679c-.146-.089-.3-.181-.446-.275l-.347.421-.239.29.8.147.8.147-.376.495c-.32-.056-.649-.14-.968-.221a7.164,7.164,0,0,0-1.7-.292,2.778,2.778,0,0,0-.387.026,11.707,11.707,0,0,1-1.649.11A27.855,27.855,0,0,1,197,47.947a28.187,28.187,0,0,0-3.688-.334c-3.732-.009-7.525-.252-11.193-.487-1.417-.091-2.879-.185-4.317-.264-.539-.03-1.087-.081-1.617-.131-.8-.075-1.634-.153-2.45-.158h-.079c-.833,0-1.68.085-2.5.168-.35.035-.711.072-1.068.1l-.155.013c-.839.069-1.707.141-2.558.23a7.076,7.076,0,0,0-.877.173,5.053,5.053,0,0,1-1.09.184.965.965,0,0,1-.517-.122,3.6,3.6,0,0,0-1.936-.553,8.286,8.286,0,0,0-2.256.429c-.182.052-.363.1-.544.153-.134.036-.267.075-.4.113a5.213,5.213,0,0,1-1.381.274,1.71,1.71,0,0,1-1.595-1.212c-.1-.223-.505-.323-.86-.412-.1-.025-.2-.049-.282-.075-.038,0-.139.125-.21.242-.033.054-.107.186-.082.236.235.452.3.745.212.9-.055.09-.164.132-.344.132a3.018,3.018,0,0,1-.386-.036l-.02,0a2.832,2.832,0,0,0-.351-.033.571.571,0,0,0-.152.017,13.042,13.042,0,0,1-1.561.286l-.405.058c-1.008.151-2.2.326-3.382.479-.432.056-.892.074-1.338.091a6.087,6.087,0,0,0-2.717.5,2.375,2.375,0,0,1-1.173.356,3.113,3.113,0,0,1-1.491-.518l-.165-.089.006-.007.006-.007c-.131.1-.263.225-.39.342a2.144,2.144,0,0,1-1.036.661,3.357,3.357,0,0,1-.394.022,8.549,8.549,0,0,1-1.045-.087A8.507,8.507,0,0,0,138.186,49.5Zm84.564,20.629h0c-14.966,5.364-30.415,10.049-47.229,14.322-15.072,3.831-30.856,7.229-48.256,10.39l.018.078,0,.014c.032.139.065.279.1.418,1.861-.345,3.75-.688,5.577-1.02,4.008-.728,8.152-1.481,12.216-2.292,15.02-3,31.049-6.4,46.5-10.9,5.864-1.71,11.774-3.632,17.489-5.491l.978-.318c2.108-.686,4.224-1.468,6.271-2.223l.009,0c.974-.36,1.98-.731,2.973-1.088.839-.3,1.695-.6,2.523-.892l1.041-.365-.1-.3ZM158,40.8a18.545,18.545,0,0,0-2.182.12c-6.482.763-13.27,1.667-20.753,2.765-9.778,1.434-18.569,3.058-26.875,4.965a235.831,235.831,0,0,0-26.245,7.556C71.256,60,60.673,64.386,51.731,68.179A98.867,98.867,0,0,0,28.182,82.165l.091.16c.052.091.1.178.15.265.835-.536,1.675-1.084,2.488-1.615,1.767-1.153,3.591-2.344,5.426-3.447a181.805,181.805,0,0,1,29.706-14.65l1.775-.668c8.4-3.166,17.093-6.44,25.858-8.868,11.407-3.16,23.2-5.658,34.6-8.074l1.124-.238a103.236,103.236,0,0,1,10.837-1.5c1.473-.151,2.993-.307,4.482-.486,2.612-.316,5.272-.594,7.844-.863l1.137-.119c2.1-.221,4.241-.435,6.308-.642l.106-.011,2.643-.266A43.229,43.229,0,0,0,158,40.8ZM178.292,1.778c-21.131,0-64.536,4.037-117.819,31.081a198.047,198.047,0,0,0-35.558,22.9A314.868,314.868,0,0,1,61.061,33.618,287.433,287.433,0,0,1,99.081,17.131,277.23,277.23,0,0,1,138.959,6.469,284.223,284.223,0,0,1,180.678,1.8C179.948,1.785,179.145,1.778,178.292,1.778ZM142.19,47.1a.817.817,0,0,0-.219.027,13.569,13.569,0,0,0-1.557.567c-.213.087-.431.177-.646.26l2.363.639-.022.027-.022.027.053-.041.01-.007-.01,0-.009,0,.415-.5.683-.824c-.17-.022-.327-.055-.478-.087A2.884,2.884,0,0,0,142.19,47.1Zm101.4-35.93c-.152,0-.305.005-.453.01s-.329.011-.493.011c.105.117.206.245.3.369a3.235,3.235,0,0,0,.714.735c.91.6,1.849,1.181,2.756,1.746,1.433.892,2.914,1.814,4.312,2.8a31.9,31.9,0,0,1,13.788,22.21,30.826,30.826,0,0,1,.12,5.38c-.032.931-.065,1.893-.065,2.907,4.715-3.489,9.923-7.919,12.785-14.332,1.036-2.324,1.776-5.744-.577-8.841-3.857-5.074-9.607-7.207-15.168-9.271q-.8-.3-1.6-.6a14.074,14.074,0,0,0-2.4-.592c-1.674-.31-3.405-.63-4.558-2.185a4.335,4.335,0,0,0-.307.35c-.21.257-.428.523-.608.523h-.022c-1.724-.22-3.472-.495-5.161-.76-.913-.143-1.855-.291-2.783-.429A3.932,3.932,0,0,0,243.586,11.166Zm-27.46-8.915c-.01.183-.019.368-.028.552v.026l18.078.8c0-.081.008-.164.012-.246s.008-.157.013-.234L225.029,2.7l-.087,0-.239-.012Z" transform="translate(-0.312 0.329)" fill="#ff977c"/>
  </g>
</svg>
