<svg xmlns="http://www.w3.org/2000/svg" width="538.838" height="1200" viewBox="0 0 538.838 1200">
  <g id="Group_22" data-name="Group 22" transform="translate(-1.161 0.5)" opacity="0.149">
    <g id="Group_15" data-name="Group 15" transform="translate(446.157 2.549)" opacity="0.8">
      <path id="Path_30" data-name="Path 30" d="M316.262,1197.974c0-46.278-22.192-84.573-43.651-121.6-21.037-36.3-42.788-73.837-42.788-118.395s21.751-82.1,42.788-118.4c21.459-37.034,43.651-75.329,43.651-121.606,0-46.48-22.34-85.457-43.943-123.156-21.853-38.133-42.5-74.151-42.5-117.678,0-43.837,21.833-82.042,42.95-118.989,21.379-37.412,43.489-76.1,43.489-121.01s-22.11-83.393-43.491-120.6C251.657,79.8,229.824,44.858,229.824,1.023h-6.4c0,45.545,22.266,81.239,43.8,118.707,20.962,36.479,42.64,74.2,42.64,117.412s-21.681,81.145-42.646,117.834c-21.529,37.67-43.793,76.628-43.793,122.165,0,45.23,22.036,83.678,43.344,120.863,21.187,36.97,43.094,75.2,43.094,119.97,0,44.556-21.751,82.094-42.788,118.395C245.613,873.4,223.421,911.7,223.421,957.977s22.192,84.573,43.651,121.6c21.037,36.3,42.788,73.837,42.788,118.395" transform="translate(-223.421 -1.023)" fill="#fff" fill-rule="evenodd"/>
      <path id="Path_31" data-name="Path 31" d="M316.262,1197.974c0-46.278-22.192-84.573-43.651-121.6-21.037-36.3-42.788-73.837-42.788-118.395s21.751-82.1,42.788-118.4c21.459-37.034,43.651-75.329,43.651-121.606,0-46.48-22.34-85.457-43.943-123.156-21.853-38.133-42.5-74.151-42.5-117.678,0-43.837,21.833-82.042,42.95-118.989,21.379-37.412,43.489-76.1,43.489-121.01s-22.11-83.393-43.491-120.6C251.657,79.8,229.824,44.858,229.824,1.023h-6.4c0,45.545,22.266,81.239,43.8,118.707,20.962,36.479,42.64,74.2,42.64,117.412s-21.681,81.145-42.646,117.834c-21.529,37.67-43.793,76.628-43.793,122.165,0,45.23,22.036,83.678,43.344,120.863,21.187,36.97,43.094,75.2,43.094,119.97,0,44.556-21.751,82.094-42.788,118.395C245.613,873.4,223.421,911.7,223.421,957.977s22.192,84.573,43.651,121.6c21.037,36.3,42.788,73.837,42.788,118.395" transform="translate(-223.421 -1.023)" fill="#fff" stroke="#fff" stroke-width="2"/>
    </g>
    <g id="Group_16" data-name="Group 16" transform="translate(382.129 1.937)" opacity="0.7">
      <path id="Path_32" data-name="Path 32" d="M284.282,1198.276c0-46.276-22.192-84.571-43.651-121.6-21.037-36.3-42.788-73.837-42.788-118.395s21.751-82.1,42.788-118.4c21.459-37.034,43.651-75.329,43.651-121.606,0-46.48-22.34-85.457-43.943-123.158-21.851-38.131-42.5-74.149-42.5-117.676,0-43.837,21.833-82.042,42.95-118.989,21.379-37.412,43.489-76.1,43.489-121.01s-22.11-83.393-43.491-120.6C219.677,80.1,197.844,44.55,197.844.717h-6.4c0,45.543,22.266,81.848,43.8,119.318,20.962,36.479,42.64,74.2,42.64,117.412S256.2,318.591,235.234,355.28c-21.529,37.67-43.793,76.628-43.793,122.165,0,45.228,22.036,83.678,43.344,120.861,21.187,36.97,43.094,75.2,43.094,119.972,0,44.554-21.749,82.094-42.786,118.395C213.635,873.707,191.441,912,191.441,958.282s22.194,84.57,43.653,121.6c21.037,36.3,42.786,73.837,42.786,118.393" transform="translate(-191.441 -0.717)" fill="#fff" fill-rule="evenodd"/>
      <path id="Path_33" data-name="Path 33" d="M284.282,1198.276c0-46.276-22.192-84.571-43.651-121.6-21.037-36.3-42.788-73.837-42.788-118.395s21.751-82.1,42.788-118.4c21.459-37.034,43.651-75.331,43.651-121.606,0-46.48-22.34-85.457-43.943-123.158-21.851-38.131-42.5-74.149-42.5-117.676,0-43.837,21.833-82.042,42.95-118.989,21.379-37.412,43.489-76.1,43.489-121.01s-22.11-83.393-43.491-120.6C219.677,80.1,197.844,44.55,197.844.717h-6.4c0,45.543,22.266,81.848,43.8,119.318,20.962,36.479,42.64,74.2,42.64,117.412S256.2,318.591,235.234,355.28c-21.529,37.67-43.793,76.628-43.793,122.165,0,45.228,22.036,83.678,43.344,120.861,21.187,36.97,43.094,75.2,43.094,119.972,0,44.554-21.749,82.094-42.786,118.395C213.635,873.707,191.441,912,191.441,958.282s22.194,84.57,43.653,121.6c21.037,36.3,42.786,73.837,42.786,118.393" transform="translate(-191.441 -0.717)" fill="#fff" stroke="#fff" stroke-width="1.5"/>
    </g>
    <g id="Group_17" data-name="Group 17" transform="translate(318.102 1.937)" opacity="0.6">
      <path id="Path_34" data-name="Path 34" d="M252.3,1198.276c0-46.276-22.194-84.571-43.653-121.6-21.037-36.3-42.786-73.837-42.786-118.395s21.749-82.1,42.786-118.4C230.11,802.851,252.3,764.556,252.3,718.279c0-46.48-22.34-85.457-43.943-123.158-21.853-38.131-42.5-74.149-42.5-117.676,0-43.837,21.833-82.042,42.95-118.989,21.379-37.412,43.489-76.1,43.489-121.01s-22.11-83.393-43.493-120.6C187.7,80.1,165.865,44.55,165.865.717h-6.4c0,45.543,22.266,81.848,43.8,119.318,20.962,36.479,42.64,74.2,42.64,117.412s-21.681,81.145-42.648,117.834c-21.529,37.67-43.791,76.628-43.791,122.165,0,45.228,22.036,83.678,43.344,120.861,21.187,36.97,43.094,75.2,43.094,119.972,0,44.554-21.751,82.094-42.788,118.395C181.654,873.707,159.462,912,159.462,958.282s22.192,84.57,43.651,121.6c21.037,36.3,42.788,73.837,42.788,118.393" transform="translate(-159.462 -0.717)" fill="#fff" fill-rule="evenodd"/>
      <path id="Path_35" data-name="Path 35" d="M252.3,1198.276c0-46.276-22.194-84.571-43.653-121.6-21.037-36.3-42.786-73.837-42.786-118.395s21.749-82.1,42.786-118.4C230.11,802.851,252.3,764.554,252.3,718.279c0-46.48-22.34-85.457-43.943-123.158-21.853-38.131-42.5-74.149-42.5-117.676,0-43.837,21.833-82.042,42.95-118.989,21.379-37.412,43.489-76.1,43.489-121.01s-22.11-83.393-43.493-120.6C187.7,80.1,165.865,44.55,165.865.717h-6.4c0,45.543,22.266,81.848,43.8,119.318,20.962,36.479,42.64,74.2,42.64,117.412s-21.681,81.145-42.648,117.834c-21.529,37.67-43.791,76.628-43.791,122.165,0,45.228,22.036,83.678,43.344,120.861,21.187,36.97,43.094,75.2,43.094,119.972,0,44.554-21.751,82.094-42.788,118.395C181.654,873.707,159.462,912,159.462,958.282s22.192,84.57,43.651,121.6c21.037,36.3,42.788,73.837,42.788,118.393" transform="translate(-159.462 -0.717)" fill="#fff" stroke="#fff" stroke-width="1.5"/>
    </g>
    <g id="Group_18" data-name="Group 18" transform="translate(254.074 1.022)" opacity="0.5">
      <path id="Path_36" data-name="Path 36" d="M220.323,1198.734c0-46.276-22.192-84.571-43.651-121.6-21.037-36.3-42.788-73.837-42.788-118.393s21.751-82.1,42.788-118.4c21.459-37.034,43.651-75.329,43.651-121.6,0-46.482-22.34-85.457-43.943-123.158-21.853-38.131-42.5-74.151-42.5-117.676,0-43.837,21.833-82.044,42.95-118.989,21.379-37.412,43.489-76.1,43.489-121.01s-22.11-83.393-43.491-120.6C155.718,80.562,133.885,44.093,133.885.26h-6.4c0,45.545,22.266,82.765,43.8,120.235,20.962,36.479,42.64,74.2,42.64,117.412s-21.681,81.145-42.646,117.832c-21.529,37.672-43.793,76.63-43.793,122.167,0,45.228,22.036,83.678,43.344,120.861,21.187,36.97,43.094,75.2,43.094,119.972,0,44.554-21.751,82.094-42.788,118.395-21.459,37.034-43.651,75.329-43.651,121.608s22.192,84.57,43.651,121.6c21.037,36.3,42.788,73.837,42.788,118.393" transform="translate(-127.482 -0.26)" fill="#fff" fill-rule="evenodd"/>
      <path id="Path_37" data-name="Path 37" d="M220.323,1198.734c0-46.276-22.192-84.571-43.651-121.6-21.037-36.3-42.788-73.837-42.788-118.393s21.751-82.1,42.788-118.4c21.459-37.034,43.651-75.329,43.651-121.6,0-46.482-22.34-85.457-43.943-123.158-21.853-38.131-42.5-74.151-42.5-117.676,0-43.837,21.833-82.044,42.95-118.989,21.379-37.412,43.489-76.1,43.489-121.01s-22.11-83.4-43.491-120.6C155.718,80.562,133.885,44.093,133.885.26h-6.4c0,45.545,22.266,82.765,43.8,120.235,20.962,36.479,42.64,74.2,42.64,117.412s-21.681,81.145-42.646,117.832c-21.529,37.672-43.793,76.63-43.793,122.167,0,45.228,22.036,83.678,43.344,120.861,21.187,36.97,43.094,75.2,43.094,119.972,0,44.554-21.751,82.094-42.788,118.395-21.459,37.034-43.651,75.329-43.651,121.608s22.192,84.57,43.651,121.6c21.037,36.3,42.788,73.837,42.788,118.393" transform="translate(-127.482 -0.26)" fill="#fff" stroke="#fff" stroke-width="1"/>
    </g>
    <g id="Group_19" data-name="Group 19" transform="translate(190.045 1.02)" opacity="0.4">
      <path id="Path_38" data-name="Path 38" d="M188.343,1198.736c0-46.276-22.192-84.571-43.651-121.6-21.036-36.3-42.786-73.837-42.786-118.393s21.749-82.1,42.786-118.4c21.459-37.034,43.651-75.329,43.651-121.6,0-46.482-22.34-85.457-43.943-123.158-21.851-38.131-42.493-74.151-42.493-117.676,0-43.837,21.833-82.044,42.948-118.989,21.379-37.412,43.489-76.1,43.489-121.01s-22.11-83.393-43.491-120.6C123.74,80.563,101.907,44.094,101.907.259H95.5c0,45.545,22.264,82.765,43.8,120.235,20.962,36.479,42.64,74.2,42.64,117.412s-21.679,81.145-42.646,117.832C117.766,393.41,95.5,432.367,95.5,477.9c0,45.228,22.036,83.678,43.344,120.861,21.187,36.97,43.094,75.2,43.094,119.972,0,44.554-21.749,82.094-42.786,118.395C117.7,874.166,95.5,912.461,95.5,958.741s22.194,84.571,43.653,121.6c21.036,36.3,42.786,73.837,42.786,118.393" transform="translate(-95.502 -0.259)" fill="#fff" fill-rule="evenodd"/>
      <path id="Path_39" data-name="Path 39" d="M188.343,1198.736c0-46.276-22.192-84.571-43.651-121.6-21.036-36.3-42.786-73.837-42.786-118.393s21.749-82.1,42.786-118.4c21.459-37.034,43.651-75.329,43.651-121.6,0-46.482-22.34-85.457-43.943-123.158-21.851-38.131-42.493-74.151-42.493-117.676,0-43.837,21.833-82.044,42.948-118.989,21.379-37.412,43.489-76.1,43.489-121.01s-22.11-83.4-43.491-120.6C123.74,80.563,101.907,44.094,101.907.259H95.5c0,45.545,22.264,82.765,43.8,120.235,20.962,36.479,42.64,74.2,42.64,117.412s-21.679,81.145-42.646,117.832C117.766,393.41,95.5,432.367,95.5,477.9c0,45.228,22.036,83.678,43.344,120.861,21.187,36.97,43.094,75.2,43.094,119.972,0,44.554-21.749,82.094-42.786,118.395C117.7,874.166,95.5,912.461,95.5,958.741s22.194,84.571,43.653,121.6c21.036,36.3,42.786,73.837,42.786,118.393" transform="translate(-95.502 -0.259)" fill="#fff" stroke="#fff" stroke-width="1"/>
    </g>
    <g id="Group_20" data-name="Group 20" transform="translate(126.019 0.415)" opacity="0.3">
      <path id="Path_40" data-name="Path 40" d="M156.362,1199.042c0-46.276-22.192-84.571-43.651-121.6-21.036-36.3-42.786-73.837-42.786-118.393s21.749-82.1,42.786-118.4c21.459-37.034,43.651-75.329,43.651-121.6,0-46.482-22.338-85.457-43.941-123.158-21.853-38.133-42.5-74.151-42.5-117.678,0-43.835,21.833-82.042,42.95-118.989,21.379-37.41,43.487-76.1,43.487-121.01s-22.108-83.393-43.491-120.6C91.759,80.868,69.926,43.792,69.926-.043h-6.4c0,45.543,22.264,83.373,43.8,120.843,20.962,36.479,42.64,74.2,42.64,117.41s-21.679,81.147-42.646,117.834c-21.529,37.67-43.791,76.628-43.791,122.165,0,45.23,22.036,83.679,43.342,120.863,21.187,36.97,43.094,75.2,43.094,119.972,0,44.554-21.749,82.094-42.786,118.393-21.459,37.036-43.651,75.331-43.651,121.61s22.192,84.57,43.651,121.6c21.036,36.3,42.786,73.837,42.786,118.395" transform="translate(-63.523 0.043)" fill="#fff" fill-rule="evenodd"/>
      <path id="Path_41" data-name="Path 41" d="M156.362,1199.042c0-46.276-22.192-84.571-43.651-121.6-21.036-36.3-42.786-73.837-42.786-118.393s21.749-82.1,42.786-118.4c21.459-37.034,43.651-75.329,43.651-121.6,0-46.482-22.338-85.457-43.941-123.158-21.853-38.133-42.5-74.151-42.5-117.678,0-43.835,21.833-82.042,42.95-118.989,21.379-37.41,43.487-76.1,43.487-121.01s-22.108-83.393-43.491-120.6C91.759,80.868,69.926,43.792,69.926-.043h-6.4c0,45.543,22.264,83.373,43.8,120.843,20.962,36.479,42.64,74.2,42.64,117.41s-21.679,81.147-42.646,117.834c-21.529,37.67-43.791,76.628-43.791,122.165,0,45.23,22.036,83.679,43.342,120.863,21.187,36.97,43.094,75.2,43.094,119.972,0,44.554-21.749,82.094-42.786,118.393-21.459,37.036-43.651,75.331-43.651,121.61s22.192,84.57,43.651,121.6c21.036,36.3,42.786,73.837,42.786,118.395" transform="translate(-63.523 0.043)" fill="#fff" stroke="#fff" stroke-width="0.5"/>
    </g>
    <g id="Group_21" data-name="Group 21" transform="translate(61.99 0.415)" opacity="0.2">
      <path id="Path_42" data-name="Path 42" d="M124.384,1199.04c0-46.276-22.194-84.571-43.653-121.6-21.035-36.3-42.786-73.837-42.786-118.393s21.751-82.1,42.786-118.4c21.459-37.034,43.653-75.329,43.653-121.6,0-46.482-22.34-85.457-43.943-123.158-21.853-38.133-42.5-74.151-42.5-117.676,0-43.837,21.833-82.044,42.95-118.991,21.379-37.41,43.487-76.1,43.487-121.01s-22.108-83.391-43.491-120.6C59.953,81.17,38.306,43.333,37.95-.043h-6.4c.3,45.148,22.408,83.623,43.8,120.841,20.962,36.479,42.64,74.2,42.64,117.41S96.3,319.355,75.336,356.042c-21.531,37.67-43.793,76.63-43.793,122.167,0,45.228,22.036,83.677,43.344,120.861,21.187,36.97,43.094,75.2,43.094,119.972,0,44.554-21.751,82.094-42.786,118.395-21.461,37.034-43.653,75.329-43.653,121.608s22.192,84.57,43.651,121.6c21.037,36.3,42.786,73.837,42.786,118.395" transform="translate(-31.543 0.043)" fill="#fff" fill-rule="evenodd"/>
      <path id="Path_43" data-name="Path 43" d="M124.384,1199.04c0-46.276-22.194-84.571-43.653-121.6-21.035-36.3-42.786-73.837-42.786-118.393s21.751-82.1,42.786-118.4c21.459-37.034,43.653-75.329,43.653-121.6,0-46.482-22.34-85.457-43.943-123.158-21.853-38.133-42.5-74.151-42.5-117.676,0-43.837,21.833-82.044,42.95-118.991,21.379-37.41,43.487-76.1,43.487-121.01s-22.108-83.391-43.491-120.6C59.953,81.17,38.306,43.333,37.95-.043h-6.4c.3,45.148,22.408,83.623,43.8,120.841,20.962,36.479,42.64,74.2,42.64,117.41S96.3,319.355,75.336,356.042c-21.531,37.67-43.793,76.63-43.793,122.167,0,45.228,22.036,83.677,43.344,120.861,21.187,36.97,43.094,75.2,43.094,119.972,0,44.554-21.751,82.094-42.786,118.395-21.461,37.034-43.653,75.329-43.653,121.608s22.192,84.57,43.651,121.6c21.037,36.3,42.786,73.837,42.786,118.395" transform="translate(-31.543 0.043)" fill="#fff" stroke="#fff" stroke-width="0.5"/>
    </g>
    <path id="Path_44" data-name="Path 44" d="M94,1199.5c0-46.276-22.192-84.571-43.651-121.6-21.037-36.3-42.786-73.837-42.786-118.393s21.749-82.1,42.786-118.4C71.813,804.071,94,765.776,94,719.5c0-46.482-22.34-85.457-43.943-123.158-21.851-38.133-42.5-74.151-42.5-117.678,0-43.835,21.833-82.042,42.95-118.989C71.895,322.265,94,283.58,94,238.666s-22.11-83.393-43.491-120.6C29.4,81.324,7.566,43.333,7.566-.5h-6.4c0,45.543,22.266,84.286,43.8,121.756,20.962,36.479,42.64,74.2,42.64,117.41S65.92,319.813,44.954,356.5C23.425,394.17,1.161,433.128,1.161,478.665c0,45.23,22.036,83.68,43.346,120.863C65.692,636.5,87.6,674.724,87.6,719.5c0,44.554-21.751,82.094-42.786,118.395C23.355,874.929,1.161,913.224,1.161,959.5s22.194,84.57,43.653,121.6C65.848,1117.408,87.6,1154.94,87.6,1199.5" transform="translate(0)" fill="#fff" fill-rule="evenodd" opacity="0.1"/>
  </g>
</svg>
