<svg xmlns="http://www.w3.org/2000/svg" xmlns:xlink="http://www.w3.org/1999/xlink" width="1094.68" height="536.101" viewBox="0 0 1094.68 536.101">
  <defs>
    <filter id="Ellipse_339" x="311.679" y="322" width="36" height="36" filterUnits="userSpaceOnUse">
      <feOffset dy="3" input="SourceAlpha"/>
      <feGaussianBlur stdDeviation="3" result="blur"/>
      <feFlood flood-color="#191433" flood-opacity="0.098"/>
      <feComposite operator="in" in2="blur"/>
      <feComposite in="SourceGraphic"/>
    </filter>
    <filter id="Ellipse_348" x="450.679" y="183" width="36" height="36" filterUnits="userSpaceOnUse">
      <feOffset dy="3" input="SourceAlpha"/>
      <feGaussianBlur stdDeviation="3" result="blur-2"/>
      <feFlood flood-color="#191433" flood-opacity="0.098"/>
      <feComposite operator="in" in2="blur-2"/>
      <feComposite in="SourceGraphic"/>
    </filter>
    <filter id="Ellipse_349" x="178.679" y="102" width="36" height="36" filterUnits="userSpaceOnUse">
      <feOffset dy="3" input="SourceAlpha"/>
      <feGaussianBlur stdDeviation="3" result="blur-3"/>
      <feFlood flood-color="#191433" flood-opacity="0.098"/>
      <feComposite operator="in" in2="blur-3"/>
      <feComposite in="SourceGraphic"/>
    </filter>
    <filter id="Ellipse_350" x="588.679" y="51" width="36" height="36" filterUnits="userSpaceOnUse">
      <feOffset dy="3" input="SourceAlpha"/>
      <feGaussianBlur stdDeviation="3" result="blur-4"/>
      <feFlood flood-color="#191433" flood-opacity="0.098"/>
      <feComposite operator="in" in2="blur-4"/>
      <feComposite in="SourceGraphic"/>
    </filter>
    <filter id="Ellipse_352" x="873.679" y="92" width="36" height="36" filterUnits="userSpaceOnUse">
      <feOffset dy="3" input="SourceAlpha"/>
      <feGaussianBlur stdDeviation="3" result="blur-5"/>
      <feFlood flood-color="#191433" flood-opacity="0.098"/>
      <feComposite operator="in" in2="blur-5"/>
      <feComposite in="SourceGraphic"/>
    </filter>
    <filter id="Ellipse_353" x="603.679" y="259" width="36" height="36" filterUnits="userSpaceOnUse">
      <feOffset dy="3" input="SourceAlpha"/>
      <feGaussianBlur stdDeviation="3" result="blur-6"/>
      <feFlood flood-color="#191433" flood-opacity="0.098"/>
      <feComposite operator="in" in2="blur-6"/>
      <feComposite in="SourceGraphic"/>
    </filter>
    <filter id="Ellipse_354" x="587.679" y="366" width="36" height="36" filterUnits="userSpaceOnUse">
      <feOffset dy="3" input="SourceAlpha"/>
      <feGaussianBlur stdDeviation="3" result="blur-7"/>
      <feFlood flood-color="#191433" flood-opacity="0.098"/>
      <feComposite operator="in" in2="blur-7"/>
      <feComposite in="SourceGraphic"/>
    </filter>
    <filter id="Ellipse_355" x="311.68" y="312" width="39" height="38" filterUnits="userSpaceOnUse">
      <feOffset dy="3" input="SourceAlpha"/>
      <feGaussianBlur stdDeviation="3" result="blur-8"/>
      <feFlood flood-color="#191433" flood-opacity="0.098"/>
      <feComposite operator="in" in2="blur-8"/>
      <feComposite in="SourceGraphic"/>
    </filter>
    <filter id="Ellipse_356" x="450.68" y="178" width="38" height="38" filterUnits="userSpaceOnUse">
      <feOffset dy="3" input="SourceAlpha"/>
      <feGaussianBlur stdDeviation="3" result="blur-9"/>
      <feFlood flood-color="#191433" flood-opacity="0.098"/>
      <feComposite operator="in" in2="blur-9"/>
      <feComposite in="SourceGraphic"/>
    </filter>
    <filter id="Ellipse_357" x="178.68" y="95" width="39" height="39" filterUnits="userSpaceOnUse">
      <feOffset dy="3" input="SourceAlpha"/>
      <feGaussianBlur stdDeviation="3" result="blur-10"/>
      <feFlood flood-color="#191433" flood-opacity="0.098"/>
      <feComposite operator="in" in2="blur-10"/>
      <feComposite in="SourceGraphic"/>
    </filter>
    <filter id="Ellipse_358" x="589.68" y="44" width="38" height="39" filterUnits="userSpaceOnUse">
      <feOffset dy="3" input="SourceAlpha"/>
      <feGaussianBlur stdDeviation="3" result="blur-11"/>
      <feFlood flood-color="#191433" flood-opacity="0.098"/>
      <feComposite operator="in" in2="blur-11"/>
      <feComposite in="SourceGraphic"/>
    </filter>
    <filter id="Ellipse_359" x="873.68" y="91" width="39" height="38" filterUnits="userSpaceOnUse">
      <feOffset dy="3" input="SourceAlpha"/>
      <feGaussianBlur stdDeviation="3" result="blur-12"/>
      <feFlood flood-color="#191433" flood-opacity="0.098"/>
      <feComposite operator="in" in2="blur-12"/>
      <feComposite in="SourceGraphic"/>
    </filter>
    <filter id="Ellipse_360" x="603.68" y="255" width="38" height="38" filterUnits="userSpaceOnUse">
      <feOffset dy="3" input="SourceAlpha"/>
      <feGaussianBlur stdDeviation="3" result="blur-13"/>
      <feFlood flood-color="#191433" flood-opacity="0.098"/>
      <feComposite operator="in" in2="blur-13"/>
      <feComposite in="SourceGraphic"/>
    </filter>
    <filter id="Ellipse_361" x="587.68" y="363" width="39" height="39" filterUnits="userSpaceOnUse">
      <feOffset dy="3" input="SourceAlpha"/>
      <feGaussianBlur stdDeviation="3" result="blur-14"/>
      <feFlood flood-color="#191433" flood-opacity="0.098"/>
      <feComposite operator="in" in2="blur-14"/>
      <feComposite in="SourceGraphic"/>
    </filter>
  </defs>
  <g id="Group_893" data-name="Group 893" transform="translate(-390.32 -3567)">
    <g id="Group_892" data-name="Group 892" transform="translate(260.321 -2806)">
      <g id="Group_891" data-name="Group 891" transform="translate(130 6373)">
        <g id="map.334ce73d" transform="translate(0 0)">
          <path id="Union_2" data-name="Union 2" d="M-8389.265-3241.9a5.255,5.255,0,0,0-3.374,0h-3.136c-3-1.385-6.623-2.279-10.28-3.579-1.314-.471-2.815-1.585-4.248-2.227-1.077-.491-2.292-.691-3.134-1.13-1.924-1.014-4.1-4.288-6.034-5.587-1.182-.794-3.036-1.215-3.792-2.024a32.487,32.487,0,0,1-1.789-3.378c-.724-1.027-2.056-1.788-2.913-2.918-1.855-2.464-4.233-5.788-4.25-7.611s1.688-3.005,1.114-4.693-3.98-1.247-4.469-3.138c-.3-1.147,1-3.071.895-4.691,0-.944-1.821-2.229-1.112-3.594.393-.759,1.058-.635,1.788-.512a2.426,2.426,0,0,0,1.786-.164c-.944-3.241,0-8.44-3.136-9.417-1.687,1.385,1.686,4.523-1.112,5.382-2.7-1.2-2.074-4.776-2.683-7.391a28.526,28.526,0,0,1-1.328-5.146,27.594,27.594,0,0,0,.218-3.123c-.471-3.02-3.827-5.485-4.029-8.437-.083-1.452.894-2.682,1.114-4.253.15-1.064-.153-2.246,0-3.376.2-1.417.977-2.733,1.112-4.032a35.389,35.389,0,0,0-.438-8.743c-.559-2.582-2.6-4.776-2.916-7.611-.1-1.029.336-2.735.218-4.032s-.776-2.414-.894-3.816a25.782,25.782,0,0,1,.438-4.032c.237-2.8-.539-5.94-.438-8.743,0-.827.455-1.433.438-2.227,0-2.312-.792-4.641-.895-6.935-.168-4.255.474-7.275-.218-11.189-.521-2.97-1.163-7.526-2.242-9.4s-5.9-5.618-8.276-6.952c-1.567-.877-3.371-1.165-5.14-2.009-3.642-1.788-10.7-5.57-12.3-9.181-.456-1.044-.406-2.429-.895-3.576-.977-2.294-3.019-4.287-4.469-6.5-2.763-4.22-5.055-9.519-7.82-13.889a55.63,55.63,0,0,0-4.248-6.5c-.927-1.045-3.857-2.009-4.248-3.577-.506-2.076-2.039-4.911-1.786-6.5.321-2.144,4.486-3.882,4.469-5.823,0-1.688-2.227-2.632-2.681-4.034-1.129-3.374.657-5.432,2.007-8.285a31.756,31.756,0,0,1,1.348-3.14c.824-1.232,2.478-1.585,3.574-2.92.606-.741.992-2.294,1.786-3.374,1.686-2.261,4.449-3.105,5.14-5.149a42.782,42.782,0,0,0,.221-12.758c-.389-1.688-1.889-2.953-2.462-4.473-1.012-2.7-1.248-5.653-4.028-5.6-1.686,0-2.933,1.941-4.03,3.14-.268,1.585-.117,3.374-1.786,3.8-2.545.759-3.521-2.685-6.487-3.576-1.18-.355-3.068-.338-3.795-.676-2.156-.979-2.865-4.152-5.14-5.384-1.906-1.029-3.54-.674-4.7-2.244a17.561,17.561,0,0,1-.22-4.473c-2.445-1.435-4.534-6.75-7.385-8.049-1.886-.844-4.784-.759-7.161-1.57a27.776,27.776,0,0,0-3.036-1.165,18.759,18.759,0,0,1-4.027-.894c-4.434-2.194-6.743-9.332-12.3-9.179-2.342,0-4.586,2.244-6.742,2.244s-5.629-1.688-8.276-2.9-5.781-1.976-8.041-3.14c-1.818-.944-3.1-2.648-4.7-3.374-1.23-.541-3.019-.641-4.03-1.115a44.151,44.151,0,0,1-4.7-3.376c-1.686-1.165-3.506-2.953-3.574-4.473s1.687-3.238,1.788-4.926c.574-5.334-3.371-9.164-5.815-12.319-1.821-2.346-3.978-4.32-5.814-6.5a16.356,16.356,0,0,0,0-3.138,43.9,43.9,0,0,1-4.027-5.382c-1.333-1.823-3.913-3.781-4.248-5.823-.406-2.517.959-4.726,0-7.173-1.586-4.052-7.217-2.229-6.49,3.138.2,1.468,2.274,3.459,2.915,4.928s.523,3.374,1.112,5.147,2.31,3.206,2.916,5.146c.944,3.073.927,6.361,1.788,8.287s3.59,3.376,2.007,5.365c-2.124.44-2.936-1.686-4.248-2.918-.744-.691-3.374-1.991-3.793-3.579-.338-1.315.842-3.086.438-4.708-.776-3.156-7.131-3.241-7.164-6.5,0-2.041,2.663-2.279,2.7-4.253s-2.951-3.984-3.574-5.823a33.6,33.6,0,0,1-.895-6.75,41.8,41.8,0,0,0-.456-6.5,10.537,10.537,0,0,0-4.248-4.475c-1.954-1.1-3.5-.639-4.466-2.244a18.432,18.432,0,0,1-1.566-5.821c-.32-2.685,0-5.637-.22-8.44a43.543,43.543,0,0,1,0-8.723c1.114-2.161,3.118-3.24,4.248-5.384.791-1.485.894-3.376,1.786-4.926,1.686-2.92,5.21-5.62,7.6-8.44a39.515,39.515,0,0,0,6.591-9.722c.541-1.265,2.006-4.05,1.788-5.6-.288-2.161-4.351-3.934-4.03-6.5.2-1.585,2.462-1.57,3.137-3.138a15.971,15.971,0,0,0,.674-4.034c0-2.159-1.112-4.4-.674-6.75.37-1.976,3.371-2.768,1.788-4.929-.855-1.165-2-.739-3.132-.316-.966.364-1.926.726-2.685.1-1.653-1.367.3-2.82.438-5.149,0-.927-.541-1.991-.438-2.682.133-1,2.089-2.684,1.565-3.376-1.212-1.535-2.562-5.417-5.14-6.75-3.286-1.688-6.826-.541-11.395-1.35-2.8-.491-4.131-3.123-6.743-2.9-1.583.118-2.51,1.956-4.7,2.9s-5.057.624-7.163,1.112-3.169,2.061-5.429,1.891c-1.836-.135-1.854-1.806-4.013-2.009a34.953,34.953,0,0,0-3.792.676,51.922,51.922,0,0,1-13.2-.22,38.071,38.071,0,0,1-8.712-3.376c-2.63-1.23-7.569-2.75-7.367-4.706.136-1.25,4.669-2.582,6.488-3.14,2.918-.894,4.7-2.329,6.929-2.464.858,0,1.988.541,3.136.456s2.563-1.147,4.027-1.348c3.119-.44,7.535.151,7.149-2.922-.979-.772-3.2-.672-5.483-.574-3.267.142-6.675.281-6.823-2.109-.15-2.464,3.677-3.206,6.49-3.8a42.955,42.955,0,0,1,8.714-1.35c2.545.135,5.917,2.986,7.382-.22.709-2.277-.874-4.2-1.348-6.041,1.906-2.617,5.4-2.3,8.059-2.685a32.713,32.713,0,0,0,8.427-2.244,32.715,32.715,0,0,1,8.429-2.244c3.033-.388,5.981-1.537,8.731-1.788a63.285,63.285,0,0,0,6.487-.438c1.924-.371,3.945-1.435,6.052-1.335,1.4,0,2.613,1.1,4.028,1.335a12.922,12.922,0,0,0,2.17.113,13.478,13.478,0,0,1,2.078.1c1.079.22,2.057.962,3.136,1.115a12.087,12.087,0,0,0,2.619,0,12.007,12.007,0,0,1,2.521,0c1.636.235,2.78,1.147,4.248,1.332a35.9,35.9,0,0,0,4.892.157,29.8,29.8,0,0,1,5.845.3c1.265.238,2.409.859,3.792,1.112a11.246,11.246,0,0,0,2.12.122,10.644,10.644,0,0,1,1.91.1c1.769.353,3.269,2.041,5.14,2.244,3.457.354,7.35-1.5,10.956-1.79a62.964,62.964,0,0,0,8.059-.438,52.216,52.216,0,0,1,7.164-1.57,26.236,26.236,0,0,0,3.371.22c1.127-.153,2.545-1.553,3.792-1.35,1.687.268,1.363,2.379,3.137,2.92,1.953-1.012,3.893,0,6.031,0s3.963-1.029,6.272-.676c4.078.641,9.759,4.625,12.96,2.464.81-.539.624-1.485,1.348-2.92,1-1.924,2.934-4.2,2.463-6.935-4.484,0-8.765,2.261-13.872,2.464-5.16-3.241,1.382-5.249,5.14-6.752,3.1-1.215,5.563-3.932,9.406-4.473,3.136-.456,6.574.693,10.282,1.114a20.658,20.658,0,0,0,2.894.07,9.713,9.713,0,0,1,2.7.15c2.191.656,3.371,2.835,5.143,3.376.791.218,2.071.2,3.136.454,2,.456,3.808,1.52,5.812,0,1.57.288,1.688,1.958,3.374,2.246,1.482-.811,2.63-2.852,4.922-3.376a5.1,5.1,0,0,1,1.6-.013,6.334,6.334,0,0,0,1.535.013c1.821-.288,4.248-2.768,5.378-.456-.456,1.688-2.9,1.858-4.248,3.138s-3.051,3.747-2.9,4.928c.271,2.144,3.456,1.317,3.574,4.034-.474,1.568-2.292.859-3.793,1.568s-1.889,1.958-3.371,2.246a16.377,16.377,0,0,1-6.44-.355,19.561,19.561,0,0,0-4.516-.541c-.168,1.52,1.686,2.414,2.68,2.9,3.187,1.688,5.781,1.452,10.282,1.352,2.31,0,4.955.691,6.929-.676,1.247-.861,1.18-2.752,2.242-3.8a8.571,8.571,0,0,1,6.034-2.246c1.012.17,2.442,1.385,2.462,2.246,0,2.041-2.883,1.383-2.918,3.576,1.889,1.132,6.9-1.248,7.164-3.138.186-1.383-1.686-2.177-1.568-3.576.1-2.347,3.372-2.314,2.918-4.71a2.941,2.941,0,0,0-2.856-.229,4.516,4.516,0,0,1-1.85.229c-2.189-.371-4.179-3-5.14-4.708.977-1.2,3-.406,4.466-.218,1.686-2.279,4.7-3.173,8.952-3.579,1.5-.153,3.521-.741,4.248.676.354,2.126-3.136,3.374-2.462,5.821,3.016.761,4-3.374,6.49-4.927a24.228,24.228,0,0,1,4.248-1.79c1.383-.521,2.9-1.821,4.027-1.788s1.45,1.047,2.681,1.57,2.545-.321,2.915,1.114c-2.595,4.488-12.253,1.906-14.766,6.5.556,3.071-1.516,5.99.221,8.067,1.247,1.468,4.045.471,4.687,2.009.876,2.059-2.716,2.059-1.789,4.473,2.362,1.416,5.192-1.352,7.382-2.464s5.328-2.6,5.6-5.385c-1.18-2.279-5.581-.506-6.255-2.9-.37-1.3,1.351-4.218,1.788-4.708,2.325-2.615,10.483-6.346,16.332-5.823,1.112.1,2.242.776,3.372.9a20.3,20.3,0,0,0,4.761-.312c2.455-.355,4.846-.709,6.651.312,1.456-.853,3.09-.615,4.894-.377a14.97,14.97,0,0,0,3.818.157c2.6,1.535,1.889,4.809,5.816,6.276,1.062.39,2.395.12,3.792.438,1.047.255,2.159,1.47,3.371,2.028,1.687.774,3,.589,3.372,1.788s-1.232,1.924-1.112,3.138c.96.794.15,1.991.674,3.138.962,2.076,3.371,1.926,5.814,2.92,1.688.691,5.31,2.817,5.14,4.473-.1,1.112-3.369,3.055-4.464,3.576-.759.371-4.536,2.194-5.816,2.009-2.106-.3-2.933-4.588-5.816-4.473a2.4,2.4,0,0,0-1.762.7,2.386,2.386,0,0,0-.7,1.764c0,2.938,3.372,3.055,3.372,5.6.085,3.04-1.686,3.258-4.248,5.064a18.186,18.186,0,0,0-5.816-2.009c-1.433,1.688,2.345,2.312,1.114,4.473-3.592.759-6.34-1.012-9.608-2.009a18.824,18.824,0,0,1-3.371-.674c-1.266-.744-1.687-2.92-2.681-4.034a9.32,9.32,0,0,0-5.6-3.138c-2.766,0-6.743,3.374-8.95.218.927-3.1,3.976-2.9,7.3-2.691a15.234,15.234,0,0,0,6.18-.447c1.687-.674,2.36-2.532,3.811-3.376,2.9-1.686,7.585-1.889,7.164-5.147-.221-1.688-2.513-1.688-3.795-2.464-1.684-1.147-3.084-5.182-5.594-5.367-1.282-.1-2.207,1-3.574,1.114a15.911,15.911,0,0,1-3.533-.214c-1.812-.247-3.6-.491-5.182.214-1.212.691-.386,1.806-1.348,3.138s-2.612,1.385-3.371,2.464-.691,2.835-1.786,3.814c-1.839,1.688-5.716,1.891-8.041,2.685-1.046.353-2.342,1.568-3.371,1.568-1.854,0-2.63-2.479-4.7-1.568-.186,2.4,2.53,3.374,4.248,4.47s3.813,2.4,4.469,4.473c-1.823,3.864-4.722-.2-7.6-.218-3.169,0-7.8,6.056-10.5,1.112.674-2.615,3.539-3.02,4.248-5.6-3.153.539-5.9,3.206-9.626,4.035-1.568.338-3.086.251-4.469.674-2.678.792-4.551,2.767-7.382,3.814-1.112.4-2.427.288-3.574.674a59.84,59.84,0,0,0-8.712,4.034,50.354,50.354,0,0,0-7.822,4.708c-.96.826-3.372,3.762-3.372,4.691.12,1.334,2.612,1.773,2.681,3.14,0,.826-1.45,2.6-.438,3.8.647.765,1.592.632,2.7.5a8.206,8.206,0,0,1,1.989-.063c3.371.423,5.646,3.256,8.275,4.708a23.076,23.076,0,0,0,7.164,2.682,17.245,17.245,0,0,0,2.844.039c2.057-.087,3.793-.174,4.085,1.531.421,2.464-2.9,3.223-3.136,4.708,1.686,2.194-1.13,3.241-1.112,5.149a4.84,4.84,0,0,0,3.574,4.032c2.259.185,5.546-2.229,6.487-4.473,1.115-2.682.642-6.326,2.681-8.287,10.418.288,19.232-4.741,18.541-15.44a14.606,14.606,0,0,1-.454-3.544c.321-1.688,3.372-3.19,2.9-5.367,2.916-.894,2.8-5.585,5.816-6.279,1.344-.305,2.785.22,4.338.746a11.315,11.315,0,0,0,4.377.824c1.079,0,2.494-1.047,3.574-.894,2.191.3,3.5,3.005,5.14,4.253s2.983.759,3.371,2.244c-.437,2.514-2.191,2.565-2.023,4.929a4.848,4.848,0,0,0,3.372,3.814,10.706,10.706,0,0,0,5.6-1.35c3-1.42,5.559-5.687,8.056-5.149,1.972.438,3.507,6.752,3.79,8.961s-.32,4.272-.218,6.5c.285,3.779,5.058,3.374,7.384,5.367.709.606.978,2.126,1.566,2.92,1.129,1.518,2.512,1.518,2.68,3.138.423,3.865-3.507,4.2-3.136,8.438-.81,1.688-2.846,1.57-2.678,3.8.253,3.528,5.325.829,6.74,3.579.744,1.485-.115,2.582-.674,4.691,1.686,2.076,1.686,5.367-1.33,5.384-1.906.085-2.345-1.856-4.3-2.329-1.045-.253-2.463-.2-3.795-.438s-2.5-.541-3.572-.676a20.921,20.921,0,0,0-2.66-.081c-1.871.024-3.609.046-4.722-1.034a72.617,72.617,0,0,1,9.624-10.125c1.012-.909,3.2-1.535,2.68-3.374-1.9-1.69-4.248.1-6.036,1.112a20.571,20.571,0,0,1-6.268,2.92,22.075,22.075,0,0,1-4.543,0c-2.6-.17-5.212-.338-7.09.89-.421,1.688,3.374,1.03,2.9,3.579a4.466,4.466,0,0,1-4.028-.674c-1.047-.946-.438-2.346-1.112-2.922-1.147-.944-5.463-1.212-7.384-.894a5.2,5.2,0,0,0-4.7,3.8,7.979,7.979,0,0,0,3.887.308c2.054-.164,3.971-.327,4.54,1.718-1.551,2.785-5.19,4.32-4.7,8.049a5.056,5.056,0,0,0,3.2,3.629,2.4,2.4,0,0,0,1.631-.438,2.531,2.531,0,0,1,1.5-.456c1.2.118.975,1.568,2.46,1.35,2.156-.929,3.371-3.949,5.813-3.814,2.969,3.6-2.662,5.349-5.813,6.5-3.574,1.3-8.229,1.991-10.959,3.14-1.43.606-6.843,5.838-7.6,1.788-.556-2.918,2.678-2.076,3.369-4.473-3.454-.674-6.743,1.485-9.844,2.684-4.5,1.688-12.119,2.785-13.2,7.831-.218,1.01.438,2.9-.218,3.576s-3.742.641-5.141,1.115c-2.158.741-4.047,2.329-5.378,2.682-1.012.27-2.494.2-3.136.456-1.786.693-2.427,3.105-4.466,4.691-.842.659-2.681,1.132-3.372,1.791-1.162,1.147-1.314,4.05-3.371,4.473a3.75,3.75,0,0,1-1.455-.242,2.335,2.335,0,0,0-2.119.022c-.148,2.853,1.012,6.75-.216,9.637a61.284,61.284,0,0,1-8.95,5.653c-1.873,1.062-3.559,1.333-5.816,2.464-1.686.809-3.068,2.717-4.924,3.8-4.264,2.514-9.421,5.5-9.386,11.813,0,1.385.724,2.868.892,4.473.1.944-.118,1.873,0,2.92.271,2.344,1.956,5.315,0,6.933-3.016-1.23-6.844-1.686-8.95-3.795-.573-2.211,1.163-4.034.895-6.043-.221-1.688-2.478-4.488-3.81-4.708a3.566,3.566,0,0,0-2.046.547,3.944,3.944,0,0,1-1.982.567c-1.686-.135-3.219-2.429-5.378-2.682a17,17,0,0,0-4.163.137,17.311,17.311,0,0,1-4.787.081c-3.371,1.806-4.365,5.064-8.429,4.693-1.447-.1-2.78-1.217-4.466-1.57a27.881,27.881,0,0,0-6.49-.894c-3.81.253-6.572,3-9.844,4.691-2.881,1.5-6.959,3.376-7.82,6.5-.474,1.688,0,4.05-.674,5.6a27.744,27.744,0,0,1-1.786,2.9,22.568,22.568,0,0,0-2.681,17.248,39.959,39.959,0,0,0,3.775,7.748,12.362,12.362,0,0,0,6.49,3.136,28.423,28.423,0,0,0,5.14-1.112,49.919,49.919,0,0,0,5.816-.894c4.837-1.553,3.875-8.1,8.714-10.3a22.99,22.99,0,0,1,8.276-1.333,5.076,5.076,0,0,1,1.568,4.253c-.12,1.147-1.215,2.176-1.788,3.814s-.624,3.105-1.112,4.253c-.674,1.52-2.159,2.617-2.681,4.034-.354.927-.152,2.074-.438,2.9-.506,1.468-2.477,2.514-1.565,4.032,2.754,1.1,5.847.752,8.773.406a21.286,21.286,0,0,1,5.99-.186c1.686.321,5.4,2.429,5.36,5.147,0,2.041-1.567,3.374-1.786,5.6-.271,2.8-1.435,6.243-1.567,8.437-.2,3.714,5.443,10.128,9.388,10.128,4.248,0,6.743-4.237,11.8-2.009,1.686.741,3.489,3.491,5.375,3.374,1.551-.118,3.9-2.835,4.922-4.708,1.266-2.294,1.351-4.218,3.575-5.365s4.313-.643,7.382-1.79a17.747,17.747,0,0,0,3.792-2.244c1.079-.741,2.227-2.7,3.574-1.35,1.786,1.788-2.191,2.8-.676,4.708,3.1,1.688,4.688-3.055,6.929-3.14a15.746,15.746,0,0,1,4.466,2.246c1.686,1.147,2.345,2.75,4.248,3.138a7.757,7.757,0,0,0,2.255-.114,9.779,9.779,0,0,1,2.667-.1c2.277.318,3.643,2.294,5.378,2.244,2.106,0,3.118-2.346,4.922-2.685,3.945-.724,5.411.438,7.164,2.92a1.925,1.925,0,0,0,1.83-.752c.536-.543,1-1.088,1.962-.58-.977,1.958.336,2.853,1.112,4.471.506,1.047.421,1.79.895,2.246,1.06,1.012,3.134,1.012,4.685,2.009s2.577,2.97,4.466,5.147,5.228,4.54,7.822,4.691a15.041,15.041,0,0,0,3.3-.235,11.46,11.46,0,0,1,3.188-.2c4.619.573,7.5,2.885,10.736,5.384,1.8,1.383,3.371,2.362,4.027,4.015.406,1.165.2,2.717.677,4.034.994,2.785,5.055,4.135,3.574,8.961.674,1.417,2.172,1.923,3.792,2.9,1.295.794,2.393,2.464,3.79,2.682a21.659,21.659,0,0,0,2.681-.218,20.838,20.838,0,0,1,6.489,2.024,26.176,26.176,0,0,1,4.028,1.35c1.13.761,1.282,3.376,2.681,4.017a5.275,5.275,0,0,0,2.372.065,10.479,10.479,0,0,1,2.094-.065c2.395.288,5.666,1.688,7.822,1.806,1.315,0,2.41-.539,3.572-.456,5.48.423,8.579,6.987,13.874,8.963,1.684.624,4.23.186,5.358.674,1.991.862,3.659,6.937,3.792,9.62.456,8.134-5.781,10.749-9.388,16.133-.757,1.13-1.163,2.9-2.242,4.473-2.14,3.156-4.534,3.814-4.248,9.635,0,1.6.895,3.156.895,4.929a32.393,32.393,0,0,1-.675,6.937c-.37,1.483-1.585,2.682-1.788,4.032s.406,2.414.223,3.579a21.117,21.117,0,0,1-2.462,4.927c-2.074,3.832-2.513,8.32-6.743,9.857-2.462.909-5.8.4-8.429,1.348-1.095.39-2.46,1.385-3.81,2.011-3.893,1.821-9.438,4.27-10.5,8.285-.959,3.579,1.333,6.446.674,10.531a35.592,35.592,0,0,1-2.678,3.8c-.962,1.267-1.45,2.768-2.462,4.032-1.348,1.69-3.371,2.431-4.248,4.71-.271.774-.1,1.686-.438,2.9-.135.456-.96,1.147-1.348,2.009s-.338,1.823-.674,2.462c-1.027,2.059-4.062,6.752-6.27,7.393-2.5.7-5.084.07-7.433-.563-2-.539-3.838-1.075-5.312-.787.456,2.244,2.092,2.009,3.137,3.577a24.66,24.66,0,0,0,1.785,3.14c1.013,1.165,1.889,1.585,2.024,2.9a7.97,7.97,0,0,1-3.372,6.5,20.431,20.431,0,0,1-6.489,1.791c-1.687.268-5.917.286-6.741,1.348-1.147,1.553.606,5.4-.221,6.937-1.021,1.978-3.062,1.533-5.016,1.088a6,6,0,0,0-3.413-.194,4.292,4.292,0,0,0,1.789,4.252c1.4.829,3.539-.253,4.466,1.35-.456,2.229-2.848,2.517-3.371,4.71,0,2.142.724,2.7.455,4.015-.591,2.885-5.057,2.767-4.924,5.823.188,4.591,8.784,2.7,8.952,7.173.085,2.7-2.462,2.735-3.371,5.367-.474,1.417.268,1.688,0,2.9-.371,1.585-2.242,2.041-2.242,3.8,0,2.142,3.136,4.506,4.687,6.276a25.111,25.111,0,0,0,5.6,5.384c3.136,1.688,7.822,1.35,9.168,4.473-.421,1.891-2.239,2.379-4.025,2.9Zm-68.57-271.012c-1.618.726-.792,3.611.894,3.374,1.506-.255,1.317-3.525-.265-3.525A1.512,1.512,0,0,0-8457.835-3512.911Zm-54.8-5.164h.035c.115-.338.318-.574.437-.894-.189-.6-.481-.815-.762-.815C-8513.69-3519.785-8514.373-3518.138-8512.632-3518.075Zm44.246-128.293c-1.553.2-4.383-.318-4.03,2.011.288,1.906,3.222,1.215,4.925.674a21.314,21.314,0,0,0,7.853-3.812l-.035.015a6.226,6.226,0,0,0-2.1-.354C-8464.155-3647.835-8466.372-3646.629-8468.386-3646.369Zm-11.647-13.431c-.994.691-1.686,2.344-2.681,3.579s-2.241,2.261-3.136,3.374-5.343,7.546-1.788,8.287c1.518.321,4.621-2.835,4.924-4.032a13.5,13.5,0,0,1,6.035-8.963c1.888-1.13,3.774-1,4.08-3.376l-.053.017a2.1,2.1,0,0,0-1.558-.43A13.581,13.581,0,0,0-8480.033-3659.8Zm29.094,6.7c-1.468.153-3.2.456-3.374,1.57,2.377,1.062,8.715,1.841,9.408-1.115a4.6,4.6,0,0,0-2.926-.649C-8448.879-3653.294-8450.011-3653.192-8450.939-3653.1Zm-17.229-7.373c0,1.333.978,1.551.895,2.918-2.174,1.553-1.029,6.752,1.112,6.937s3.371-5.755,6.487-6.278a2.955,2.955,0,0,1,1.544.2,4.124,4.124,0,0,0,1.611.234,2.758,2.758,0,0,0,.908-2.6,2.754,2.754,0,0,0-1.821-2.094,2.746,2.746,0,0,0-1.36.216,4.372,4.372,0,0,1-1.556.24c-1.228-.085-2.529-1.247-3.571-1.35q-.22-.018-.437-.018A5.374,5.374,0,0,0-8468.168-3660.474Zm-13-6.025c1.568.268,2.478,2.412,4.028,2.682a46.6,46.6,0,0,0,7.67-.709l-.051.035c4.451-1.908-.876-7.746-2.915-8.287-3.625-.944-8.782,2.667-12.98,3.814-2.359.641-4.6.709-5.14,2.682,1.309,2.166,3.4,1.363,5.537.563a9.9,9.9,0,0,1,3.258-.832A3.327,3.327,0,0,1-8481.163-3666.5ZM-8603-3675.478c-.136.809.3,2.785,2.023,2.464.891-.907-.038-2.674-1.287-2.674A1.453,1.453,0,0,0-8603-3675.478Zm102.466-17.028c-2.833.709-3.507,6.614,0,6.5,2.34-.08,3.968-6.585.712-6.586A3.13,3.13,0,0,0-8500.53-3692.505Zm-108.265-13.2a.927.927,0,0,0,.722.55.928.928,0,0,0,.846-.329c0-.421-.253-.489-.218-.894-.173,0-.352-.009-.521-.009C-8608.47-3706.386-8608.884-3706.31-8608.795-3705.7Zm81.851-17.906c-1.889,1-4.516,1.25-4.684,2.92,3.456.658,6.572-.861,8.714-1.585h0c1.265-.438,3.035-.22,3.371-1.57-1.044-.844-2.124-1.976-3.371-2.009C-8524.6-3725.854-8525.309-3724.469-8526.944-3723.61Zm-5.072-17.265a11.4,11.4,0,0,0-2.227,4.49c3,.709,6.743-1.435,10.2-2.024h.016a7.031,7.031,0,0,1,1.332-.052c.962.024,1.852.05,2.478-.844-.466-2.166-2.042-2.8-4-2.8C-8526.707-3742.1-8529.814-3741.073-8532.017-3740.875Zm159.825.222c1.095.135,1.686-.22,1.568-1.335a1.314,1.314,0,0,0-.764-.246C-8372.184-3742.234-8372.855-3741.5-8372.191-3740.653Zm-110.689-4.693c.741-.489,1.886-1.132,1.33-2.244-1.51-.715-3.664-.654-5.945-.6a32.626,32.626,0,0,1-4.337-.081c-2.072-2.92-5.528-3.376-5.814,1.35,2.113,1.721,4.778,1.291,7.452.859a22.71,22.71,0,0,1,3.545-.385A6.154,6.154,0,0,1-8482.881-3745.346Zm83.619-17.246v.894c.962.2,1.13-.355,1.365-.894h-.018a1.072,1.072,0,0,0-.673-.237A1.079,1.079,0,0,0-8399.262-3762.591Zm744.6,451.021a5.708,5.708,0,0,0-2.661.652,8.216,8.216,0,0,1-3.153.676c-1.062,0-1.686-.639-3.136-1.11-3.2-1.008-6.738-.975-7.162-4.455-.253-1.9,1.215-2.759,1.112-4.473s-1.684-2.135-2.46-3.566a3.693,3.693,0,0,0-1.112-4.473,4.459,4.459,0,0,1,.894-3.127,29.928,29.928,0,0,0-4.483,1.8c-1.686.975-2.8,3.228-4.685,2.892-1.686-.622-.4-2.373-.674-3.784a19.573,19.573,0,0,0-3.81-6.472,31.862,31.862,0,0,0-7.6-2.911c-6.909-1.075-11.308,2.608-16.851,3.129a12.739,12.739,0,0,1-1.952-.026,9.573,9.573,0,0,0-2.3.026c-4.5.789-9.5,4.338-12.3,6.726a35.359,35.359,0,0,1-5.561-.046,24.393,24.393,0,0,0-8.529.5c-4.77,1.4-7.447,5.314-14.744,4.237-1.45-1.243-4.011-1.849-4.028-4.019,0-1.681,2.527-2.789,3.369-4.019a15.7,15.7,0,0,0,2.462-6.254c0-1.481-.994-3.262-.894-5.046.135-1.479.962-3.042.944-4.455,0-1.965-1.248-3.7-1.568-5.8-.116-.757.118-1.681,0-2.691-.15-1.378-.824-2.521-.674-3.363.305-1.479,2.039-1.681,2.462-2.892.707-2.085-.861-2.421-.894-4.911,0-1.681,1.333-2.624,2.24-4.911.423-1.058.44-3.042.894-3.781s3.051-1.681,4.028-2.22c3.372-1.681,6.169-4.793,9.622-5.365a7.207,7.207,0,0,1,1.5-.009,6.275,6.275,0,0,0,1.175.009c2.024-.353,4.566-2.05,7.382-2.676s5.055-.384,7.162-1.562a18.612,18.612,0,0,0,6.252-6.726c1.027-2.456.724-4.525,2.678-5.347a3.482,3.482,0,0,1,1.623-.17,4.766,4.766,0,0,0,1.278-.05,13.829,13.829,0,0,0,4.028-2.017c1.566-1.4,1.819-3.666,3.572-5.129a31.238,31.238,0,0,1,5.14-3.363,8.864,8.864,0,0,1,3.572-.892c3.151.27,4.617,4.658,8.056,3.783,1.228-.3,2.475-2.909,3.589-4.455,1.684-2.272,2.781-5.349,5.576-6.021a7.958,7.958,0,0,1,2.521-.076c1.422.111,2.724.22,3.513-1.034.286-1.411-1.062-2.253,0-3.127,2.613.168,7.009,3.666,10.954,3.784,2.122,0,6.067-2.3,6.488.892.186,1.413-1.585,2.556-2.006,4.019-.3,1.025.438,1.579-.22,2.674-1.819.722-3.74,1.093-3.79,3.127,0,2.541,3.607,3.731,5.814,5.145,1.516.959,2.78,2.405,3.572,2.894s1.771.587,2.242.89c1.45.942,2.478,3.079,4.481,3.129,2.274,0,4.534-2.844,5.814-5.585,1.485-3.21,1.568-7.112,2.227-10.474.218-1.127,1.027-2.22,1.348-3.365.857-3.042,2.039-7.179,4.685-8.256,2.663,2.826,3.572,8.307,3.134,12.947,1.788,1.348,4.92.909,5.358,4.021.153,1.075-.539,2.454-.438,3.566.152,1.882,1.552,3.531,1.8,5.127.438,2.977-.5,5.432.894,7.585,1.686,2.724,5.173,2.641,7.382,5.583a10.39,10.39,0,0,0,1.112,4c.2.689,0,1.8.218,2.235.724,1.5,2.645,1.683,3.372,2.894.338.622.25,1.782.674,2.909a26.39,26.39,0,0,0,3.134,4.455c1.012,1.548,2.663,3.23,2.9,4.473.456,2.22-1.162,3.751-1.568,5.568-.471,2.22,0,5.044-.892,7.365-1.044,2.676-3.607,5.332-5.6,8.695a29.62,29.62,0,0,1-6.268,7.8c-1.417,1.125-3.083,1.782-4.466,2.909a65.063,65.063,0,0,0-5.814,6.019c-2.021,2.12-4.449,3.751-6.034,5.565-2.292,2.658-3.369,6.93-7.38,7.366a23.636,23.636,0,0,0-6.488.892c-3.371,1.311-5.511,3.731-7.146,3.781h-.061C-7651.423-3309.334-7653.133-3311.355-7654.664-3311.571Zm-479.5-22.669c0-1.333,1.132-2.578,1.112-3.808s-1.769-3.219-3.136-5.814-1.821-5.323-3.136-7.362-3.223-3.219-4.25-4.92c-2.059-3.369-2.211-7.515-2.918-11.626-.22-1.348-1.149-2.8-1.35-4.464-.235-2.056.253-4.331-.22-6.032a30.463,30.463,0,0,0-2.682-4.246c-1.585-2.9-2.683-6.739-4.03-8.93s-3.794-4.314-4.032-6.739a33.35,33.35,0,0,1,.438-6.268c.235-1.566,1.4-2.813,1.788-4.466.253-1.093,0-2.357.22-3.57,1.145-5.055,6.745-6.976,6.039-13.194-.32-2.645-2.176-3.943-2.462-6.941-.135-1.4.707-2.63.674-4.026,0-1.888-1.686-4.684-2.462-6.488-2.262-4.935-3.662-9.434-6.933-13.191-1.788-2.039-4.132-3.487-5.6-5.376a14.12,14.12,0,0,1-2.682-5.594c0-1.28.979-2.072,1.35-3.369.471-1.686.506-4.767,1.112-7.38.288-1.2,1.585-4.093,1.35-6.032a9.323,9.323,0,0,0-5.38-6.032,12.668,12.668,0,0,0-5.336.257,18.726,18.726,0,0,1-4.952.419c-3.677-2.209-3.424-7.836-8.333-8.56-6.442-.944-13.037,1.686-17.458,3.57-2.547,1.115-5.059,2.815-7.386,2.916s-4.218-1.13-6.259-1.33a34.294,34.294,0,0,0-8.736.438c-2.564.454-4.892,2.29-7.168,2.46-4.336.321-8.434-3.91-11.184-6.032-1.686-1.3-3.373-2.36-4.924-3.572s-3.847-2.107-5.145-3.369c-1.686-1.686-1.686-4.667-2.683-6.926-1.1-2.661-4.4-4.615-6.933-7.16-1.889-1.888-6.241-4.717-6.745-7.144-.237-1.247.521-2.678.438-4.026-.12-1.956-1.586-3.066-1.57-4.466,0-1.971,2.362-3.487,2.9-5.138.288-.844.152-2.039.438-3.134.626-2.274,2.126-3.6,1.788-6.926-.135-1.313-1.265-2.525-1.348-4.244,0-1.18.774-1.836.674-2.916-.17-1.9-2.647-2.275-2.918-4.466s2.159-4.126,3.574-6.739c.642-1.147,1-2.913,1.57-3.79,1.247-1.9,3.374-2.831,4.25-4.7.707-1.38.928-3.369,1.568-4.464.826-1.33,2.462-2.057,4.032-3.79,1.265-1.433,1.786-3.151,2.683-3.792a22.384,22.384,0,0,1,4.03-1.566,17.653,17.653,0,0,0,9.177-8.274,9.274,9.274,0,0,1,1.786-7.6c1.367-2.292,2.361-4.5,4.706-5.814,2.8-1.583,5.432-1.684,7.388-4.682a13.959,13.959,0,0,0,2.463-5.594,6.222,6.222,0,0,0-4.251-5.375,7.5,7.5,0,0,0-2.363.192c-1.556.286-3.121.571-3.91-.866-.354-.707.135-2.36,0-3.134-.253-1.466-1.519-2.493-1.568-3.572-.1-2.106,2.074-4.279,2.683-6.739.842-3.369,0-5.814-.221-9.622,3.136-4.937,10.121-2.477,17.019-2.022,1.045,0,2.227-.253,3.374-.218,4.115.1,7.336,1.33,8.719-2.242a23.757,23.757,0,0,0,.674-7.6,17.313,17.313,0,0,0-4.7-6.25c-2.227-1.417-5.447-.794-6.747-3.371.649-2.789,2.865-2.351,5.16-1.913a7.724,7.724,0,0,0,3.8.126c1.519-.539,1.351-3.149,2.683-3.572a2.591,2.591,0,0,1,1.7.425,3.862,3.862,0,0,0,1.673.469,22.931,22.931,0,0,0,6.036-2.68c1.435-.959,1.873-2.964,3.139-3.79a17.641,17.641,0,0,1,2.917-.892,16.826,16.826,0,0,0,5.65-4.028c1.856-2.207,2.682-4.953,4.924-5.356,3-.556,9.785.589,10.291-2.68s-2.75-5.576-1.57-8.946c.944-2.663,3.374-2.192,6.748-3.792,1.686,1.162,1.165,4.464,1.333,6.488,2.074,0,6.309-.608,6.747-2.46.506-2.309-3.036-4.652-3.8-6.032s-1.012-4.161-2.68-4.466c-3.374-.656-6.747,4.684-10.965,4.684a7.484,7.484,0,0,1-6.492-4.246,18.315,18.315,0,0,1-.22-3.57c-.271-1.838-1.365-3.725-.894-6.252,1.686-2.931,5.668-3.369,8.433-4.92,1.08-.571,1.941-1.786,3.138-2.24,2.008-.741,4.977,0,6.933-1.114,1.248-.707.894-1.919,1.786-3.369.558-.892,1.923-1.415,2.682-2.46.523-.724.591-1.8,1.115-2.458,1.938-2.41,5.5-3.369,6.933-5.814.641-1.112-1.1-1.516-.674-3.134.473-1.029,1.836-.883,3.153-.737a7.327,7.327,0,0,0,1.9.063c2.227-.336,4.285-3.051,6.747-3.572s5.265-.218,7.609-1.112c1.4-.539,2.7-1.819,4.03-2.021.473,0,1.788.253,2.462.218s1.773-.554,2.918-.674c1.686-.168,3.679.406,5.82.438,3.542,0,6.9-1.06,9.849.22,1.535.674,1.367,2.41,3.376,3.134a4.818,4.818,0,0,0,2.01.052,9.387,9.387,0,0,1,1.8-.052c2.194.2,4.488,1.686,7.389,2.021a9.788,9.788,0,0,0,1.5-.009,8.78,8.78,0,0,1,1.642.009,54.566,54.566,0,0,1,9.848,3.134c2.615.892,8.183,1.989,8.283,4.466.118,2.946-4.824,3.79-6.933,3.79-3.526,0-8.18-2.056-11.807-.894,0,5.055,5.515,8.88,10.524,8.272.438-2.375-2.833-1.06-2.46-3.369,1.287-.977,2.73-.443,4.327.092a8.111,8.111,0,0,0,3.733.584c1.232-.338,1.029-2.106,1.333-3.371,2.667-1.686,5.988-3.993,10.121-2.24a1.972,1.972,0,0,1,.894-.894c.268-2.46-2.683-3.74-1.114-6.03.776-1.585,4.959-1.047,5.6.218.32,1.516-1.029,1.348-.894,2.678a3.609,3.609,0,0,0,3.576,2.024c2.192-.12,2.632-2.091,4.707-3.136.844-.421,2.056-.471,3.136-.892s2.344-1.516,3.374-1.786c.742-.2,1.874,0,2.918-.22,1.315-.286,2.717-1.348,3.794-1.33,1.35,0,2.312,1.551,4.032,1.786.929.118,1.991-.523,3.374-.674a9.572,9.572,0,0,1,1.6,0,7.828,7.828,0,0,0,1.535,0c2.144-.3,3.611-1.433,5.38-1.348,1.25,0,3.376,1.686,4.25.894,1.453-1.433-1.937-2.495-.892-3.808,3.372.251,7.083.185,10.524.674,5.06.724,9.936,3.251,14.54,3.367-.438-3.1-4-2.2-5.6-3.57a13.006,13.006,0,0,1-2.462-4.7,27.025,27.025,0,0,1,3.136-5.358c1.976-1.854,8.435-1.836,10.289.676,1.267,1.684.844,4.294,2.683,4.244,1.585,0,2.429-3.925,4.252-4.026,1.516,0,2.277,2.493,3.794,2.46,1.854,0,3.136-3.487,5.6-3.572,1.315,0,1.688.674,3.794.892,1.4-.892-.471-2.089.22-3.369,2.5-1.819,8.215-.438,11.4-1.566.892-1.062-1.132-1.821-.22-2.916,2.765-1.921,7.389-2.1,12.095-2.9,2.866-.489,5.581-2.478,7.825-2.678a9.227,9.227,0,0,1,3.572.665,10.248,10.248,0,0,0,3.175.683,12.5,12.5,0,0,0,4.03-.894c1.267-.488,2.126-1.683,3.376-2.021a11.658,11.658,0,0,1,3.642-.063,17.385,17.385,0,0,0,3.1.063c2.312-.236,4.521-1.18,6.257-.892s2.938,1.989,4.47,2.242a30.8,30.8,0,0,0,6.495.1,23.558,23.558,0,0,1,7.371.34c.776.2,1.535,1.01,2.462,1.348,2.885,1.042,4.841.722,5.38,4.244,2.262.809,3.594,2.883,6.259,3.572,1.786.471,3.575-.218,5.6-.218a62.553,62.553,0,0,1,8.283.438c1.282.2,2.344,1.145,3.577,1.348a7.772,7.772,0,0,0,1.631.011,9.951,9.951,0,0,1,1.5-.011c1.4.135,2.665.709,3.8.674,2.344,0,4.132-2.157,6.036-2.462a16.012,16.012,0,0,1,3.376.438,40.651,40.651,0,0,0,5,0,24.828,24.828,0,0,1,6.183.222,22.173,22.173,0,0,1,6.073,3.673c1.315,1.012,2.106,2.595,3.372,3.371a12.414,12.414,0,0,0,5.382,1.786c1.433-.22,1.483-1.821,2.9-2.462,2.026-.456,4.773-.2,7.5.059,3.238.3,6.446.609,8.39-.277,1.382-.641,1.112-2.107,2.244-2.914,6.745-.321,13.408.268,19.7.438a50.833,50.833,0,0,1,6.494-.22c2.209.388,3.83,2.6,6.039,3.369,1.468.506,4.065.236,6.274.674,1.483.286,2.7,1.18,3.794,1.333a30.927,30.927,0,0,0,6.95-.438c5.06-.406,11.807-.691,16.866,1.348,2.7,1.077,3.812,3.251,6.747,3.57a57.941,57.941,0,0,0,7.75.028,65.412,65.412,0,0,1,7.024-.028,25.457,25.457,0,0,0,2.683.438c1.415-.1,2.276-1.3,4.032-1.33,2.209,0,5.733,3.369,8.957,2.916,1.382-.944-1.115-2.242.218-3.134s2.985,0,4.924,0c1.062,0,2.362-.541,3.374-.438,2.464.218,4.792,2.425,7.827,3.134a27.925,27.925,0,0,0,8.738.454,24.259,24.259,0,0,1,6.039-.674,30.63,30.63,0,0,1,2.9,1.112,5.765,5.765,0,0,0,1.429.115,4.59,4.59,0,0,1,1.254.1c.794.218,1.485.909,2.244,1.112,4.165,1.2,9.7,1.769,14.1,3.134,2.58.792,5.229,2.392,7.389,2.458,1.062,0,2.006-.454,3.372-.438,6.747,0,14.709,2.865,14.083,9.168-3.871.822-7.43-.462-11.028-1.747-3.755-1.341-7.554-2.685-11.792-1.625a3.557,3.557,0,0,0-2.682,3.136c.3,3.891,10.121,3.57,10.965,7.378a3.651,3.651,0,0,1-3.088.366,4.563,4.563,0,0,0-1.6-.146,16.324,16.324,0,0,0-6.747,3.572c-1.518,1.416-2.835,5.053-4.471,5.374a7.721,7.721,0,0,1-3.487-.707,8.867,8.867,0,0,0-4.576-.641c-1.095.235-2.159,1.686-3.136,1.786a9.044,9.044,0,0,1-2.554-.026c-1.8-.185-3.565-.371-4.6,1.594.807,2.039.318,4.885,2.006,6.032,1.095.741,2.46.168,3.794.674s2.445,2.493,3.795,3.572,2.294.892,2.917,2c.135,1.686-.656,1.836-.456,2.916.355,1.869,3.289,2.29,3.374,3.57.1,1.686-1.854,1.265-2.227,2.9-.133,1.045,1.2,1.315,1.333,2.68.085.909-.741,1.869-.674,2.914.1,1.483,1.265,2.477,1.112,3.792a3.464,3.464,0,0,1-2.024,2.458c-4.285-2.746-8.147-6.536-12.751-10.108s-12.195-8.053-12.971-15.651c0-1.165,2.462-2.074,2.9-3.792.188-.707-.286-1.686-.218-2.678.153-2.628,2.327-5.155,2.244-6.739s-3.374-4.887-4.926-5.376c-1.3.691,0,2.039-.218,3.134a4.42,4.42,0,0,1-3.374,3.134c-1.919.168-3.066-.936-4.37-2.037a6.946,6.946,0,0,0-7.048-1.755,5.646,5.646,0,0,0-3.577,6.27c.186.977,2.885,2.021,2.683,3.369s-6.106,1.686-7.389,1.566c-3.609-.286-5.465-2.981-8.721-2.914-1.6,0-3,1.33-4.248,1.566a30.585,30.585,0,0,1-8.315-.161c-5.166-.558-10.049-1.119-11.588,2.842-.338.877-.153,2-.456,2.914a30.915,30.915,0,0,1-1.788,3.136c-.271.689-.218,2.054-.674,3.132s-4.639,4.785-.894,5.814a2.007,2.007,0,0,0,1.18-.1,2.752,2.752,0,0,1,1.282-.122c1.923.253,5.06,3.369,7.389,3.369,1.348,0,3.221-1.516,4.25-1.566,2.074-.1,3.574,1.23,5.144,2s3.812,2.292,4.924,2.242c2.109-.1,1.1-1.566,3.138-2.242,3.862,1.147,5.683,5.24,9.4,8.427,1.348,1.178,3.374,2.189,5.145,3.79,1.012.909,4.115,3.369,4.25,4.464s-.876,1.518-1.132,2.46c-.353,1.365.491,2.359-.436,3.369-3.579-1.315-4.37-4.835-6.933-7.818-.944-1.112-1.906-2.425-3.374-4.026-.659-.724-3.036-3.234-4.488-2.678-2.815,1.06,1.535,5.323,2.244,6.265,1.485,1.971,3.458,4.617,3.594,6.741,0,1.33-.879,3.758-.894,6.032a38.18,38.18,0,0,1,.218,4.244,29.183,29.183,0,0,1-1.568,4.248c-.523,1.686-.641,3.587-1.112,4.684a8.444,8.444,0,0,1-5.821,4.464c-1.854,0-2.647-1.433-4.468-1.333-2.75.135-3.256,2.663-4.926,4.684.135,2.207.826,2.966.438,4.464-.606,2.377-3.9,2.781-3.794,5.14s3.021,2.61,4.468,3.572a37.59,37.59,0,0,1,7.389,6.739c1.25,1.585,3.036,4.566,2.918,6.252-.168,2.207-6.544,5.291-9.192,4.464s-1.688-3.169-2.227-5.358c-.456-1.686-1.789-2.425-2.462-3.79-.353-.724-.2-1.871-.674-2.678-1.35-2.277-3.711-1.029-6.494-2.462-1.821-.944-1.3-2.9-2.006-4.7-.964-2.41-5.062-3.539-8.283-2.9-2.395.456-3.138,2.477-5.38,2.9-3.291-1.937.674-6.741-3.374-7.159-3.088-.323-5.062,4.429-6.95,5.812-1.215.927-3.372,1.13-3.577,2.46-.268,2.46,2.6,1.971,4.909,2.914s2.345,3.236,4.25,3.372c1.6.1,2.665-1.686,4.25-1.788a11.115,11.115,0,0,1,6.747,2.024c-1.112,2.713-7.135,4.7-7.168,8.272,0,2.072,2.395,2.427,4.25,3.79,1.568,1.162,3.626,4.431,5.818,6.741.944.977,2.479,1.686,2.917,2.24,1.029,1.483.877,3.286,2.009,4.246.185,1.23-.556,1.518-.438,2.68.556,1.684,3.036,1.3,3.574,2.913-.456,3.858,1.147,7.48-2.006,8.948-1.45,6.907-3.1,12.315-7.827,16.09-4.25,3.369-9.868,4.381-15,6.032-1.33.421-2.395,1.836-3.574,2.242-2.988,1.01-8.283.386-8.433,4.026-.12,1.786,2.277,2.864,2.462,4.684a5.778,5.778,0,0,1-4.032,5.812c-1.3.135-4.1-.759-4.25-3.134-.168-2.663,3.374-3.758,3.576-5.358.471-2.846-2.462-5.611-5.82-5.358-2.951.22-9.681,6.15-9.849,9.386-.135,2.425,4.807,7.463,6.492,8.946,6.292,5.526,12.956,8.845,11.807,22.359-1.568,3.369-5.583,4.144-8.719,6.032-2.394,1.43-3.576,5.879-7.606,6.265-1.688-.554-.674-3.082-1.114-4.244-.606-1.686-3.812-2.395-5.818-4.028-1.688-1.348-2.327-3.454-3.577-4.7-1.568-1.533-3.912-1.869-5.818-2.9-1.2-.659-2.141-2.966-3.374-2.9-1.974,0-1.282,1.971-1.788,5.055s-2.765,5.491-2.024,9.166c.318,1.5,2.192,2.711,3.138,4.244,1.551,2.53,1.686,5.493,3.372,6.926,1.044.959,2.833,1.162,4.032,2,2.377,1.686,6.544,5.358,7.386,7.38.979,2.36,0,5.055.674,7.6.742,2.865,4.488,4.92,2.246,7.818a18.136,18.136,0,0,1-5.82-2.914,17.906,17.906,0,0,1-6.494-6.741,20.322,20.322,0,0,1-1.786-2.678c-.776-2.006-.606-4.281-1.333-6.739a20.906,20.906,0,0,0-4.926-7.162c-1.568-1.483-4.351-2.342-4.469-4.464-.17-3,1.012-6.521.892-10.11a25.312,25.312,0,0,0-.674-2.46c-.235-1.686.168-3.823-.235-5.375a25.112,25.112,0,0,0-2.009-4.026,41.92,41.92,0,0,1-1.788-4.246c-.91-2.578-1.921-7.565-4.03-7.818s-4.453,4.2-7.386,4.248a4.085,4.085,0,0,1-3.8-2.68c-.286-1.365.709-2.763.674-4.246,0-3-2.209-4.163-3.81-6.268-.641-.859-.809-2.056-1.35-2.68-1.012-1.213-2.968-1.886-4.25-3.132a17.667,17.667,0,0,1-3.138-4.028c-.861-1.686-1.145-4.026-2.462-4.246s-2.715,1.585-4.032,2.021a37.057,37.057,0,0,1-6.039,1.112c-4.486.3-8.127-.892-7.606,4.464-.707,2.41-3.238,2.427-4.924,3.572-2.142,1.45-3.694,4.381-6.039,6.741-1.129,1.145-2.783,1.854-3.794,2.913s-1.114,2.292-2.024,3.134c-2.379,2.259-5.971,2.443-7.608,5.594-.1,3.707,1.686,6.521,1.334,10.11-.187,1.686-1.4,3.033-1.57,4.7s.591,2.948.236,4.466c-.2.809-1.095,1.248-1.8,2.24s-.876,2.072-1.333,2.68c-.759.959-1.991,1.684-2.7,2.458-1.13,1.35-1.365,2.309-2.462,2.462-4.909.707-6.106-8.61-8.283-12.52-.995-1.8-3.034-3.369-4.03-5.592-1.147-2.512-1.5-5.646-3.136-8.427a55.192,55.192,0,0,1-4.25-7.38c-.794-2.122-1.485-4.785-2.244-7.16a38.387,38.387,0,0,1-1.788-7.6c-.186-2.9.556-4.684-1.788-5.814-2.157.506-3.121,2.678-5.6,2.678s-8.806-4.126-6.935-7.816c-1.568-2.207-5.5-3.372-8.433-6.032-1.686-1.5-3.271-5.055-6.256-5.358a15.716,15.716,0,0,0-2.683.438,34.559,34.559,0,0,1-3.6,0,37.093,37.093,0,0,0-3.788,0,47.5,47.5,0,0,1-9.395.438c-2.192-.235-4.907-.658-7.168-.894-2.865-.286-6.747-.977-8.28-2.46-1-.909-1.4-3.84-3.138-4.246-2.074-.489-3.221,1.13-5.06,1.568-4.1.944-7.523-.844-10.306-2.678-1.956-1.3-3.76-1.991-5.145-2.916-3.374-2.274-4.015-9.116-9.174-9.166-1.806,0-4.656,1.112-4.927,3.134-.168,1.415,1.686,4.061,2.462,5.138,2.514,3.539,7.118,4.852,8.433,9.6a3.085,3.085,0,0,0,1.494-.074c.827-.157,1.723-.316,2.3.292.859,2.039,0,5.814,2.006,6.741,9.31,1.533,11.959-3.555,16.125-7.162,2.412,1.568,1.688,2.948,2.462,4.684a7.4,7.4,0,0,0,3.8,3.808c1.129.421,2.563,0,4.25.674,1.062.406,5.465,4.567,5.6,6.05s-2.9,5.8-3.81,6.924-2.262,1.686-2.685,2.68-.218,2.408-.454,2.914c-.406.894-2.427,2.057-3.577,3.134a45.269,45.269,0,0,1-3.794,2.9c-1.416,1.08-2.294,2.578-3.794,3.134-2.985,1.1-5.8.624-8.283,2.242-1.686,1.045-1.686,3.369-3.574,4.684s-5.55,1.33-8.436,2.678c-1.906.859-3.051,2.545-4.688,3.134a3.407,3.407,0,0,1-1.125.114,3.9,3.9,0,0,0-1.119.1c-1.483.371-2.865,1.433-4.25,1.788-1.095.283-2.277.133-3.372.454-3.374.994-6.612,4.5-10.121,2.46-1.686-3.758-1.906-8.424-3.794-11.794-.977-1.686-2.885-2.224-3.577-4.028-.1-1.433,1.686-1.045,1.786-2.242-.571-2.407-2.848-3.537-4.248-5.594-.691-.992-.995-2.425-1.786-3.57-2.667-3.875-7.929-5.9-8.958-10.734-.271-1.315,0-2.342-.218-3.369a12.752,12.752,0,0,0-2.683-4.684c-.859-.992-2.6-1.684-3.576-3.134-.659-.959-.792-2.325-1.348-3.369a37.086,37.086,0,0,0-8.959-10.732c-1.821.268-3.777.386-4.688,1.566a34.5,34.5,0,0,0,3.794,7.818,44.663,44.663,0,0,1,4.25,7.162c.355.927.288,2.155.676,3.134,1.4,3.537,5.836,4.632,6.748,8.725.589,2.73-.135,4.634.674,7.38s4.656,4.178,6.274,6.741c1.317,2.057,1.317,5.055,2.244,6.924,1.333,2.865,5.06,4.111,7.827,6.032,2.462,1.686,4.233,4.4,6.257,6.268,1.2,1.08,2.851,1.282,3.138,2.46.371,1.518-.641,2.024-.894,3.372,1.686,1.786,3.374,5.053,6.274,5.373,1.18.118,2.683-1.079,4.471-1.348a6.528,6.528,0,0,1,1.4,0,5.459,5.459,0,0,0,1.28,0c1.2-.218,2.227-1.28,3.592-1.568,2.279-.489,4.944-.286,7.829-.674s4.621-2.66,6.745-2c2.294,2.528.659,5.391,0,7.818-.218.859-.218,1.686-.438,2.46-1.212,3.976-4.368,6.924-5.818,10.5-.438,1.095-.371,2.443-.894,3.572-1.688,3.587-5.062,7.109-7.844,10.11a44.324,44.324,0,0,1-4.468,4.464c-1.686,1.315-3.559,2.039-5.38,3.369a48.372,48.372,0,0,0-9.853,9.84c-.977,1.348-1.448,2.9-2.46,4.026-1.452,1.686-3.711,2.427-4.926,4.028a45.664,45.664,0,0,0-2.683,5.812c-1.232,2.563-3.794,4.281-3.371,7.818.167,1.35,1.382,2.192,1.786,3.572a15.045,15.045,0,0,1-.218,6.924c1.265,3.068,2.174,6.47,4.468,8.424.271,4.516-.371,8.913,0,12.738.235,2.445,1.18,4.229.22,6.488a20.962,20.962,0,0,1-6.039,6.739c-2.109,1.365-5.347,1.686-7.606,3.369-1.568,1.147-2.885,3.134-4.471,4.481-2.63,2.192-6.259,4.246-6.494,6.488-.135,1.28,1.012,3.217,1.333,4.464.876,3.369,1.686,8.054.22,11.626-1.686,3.875-9.835,3.066-10.745,7.16-.286,1.247.541,2.242.438,3.572a30.251,30.251,0,0,1-2.244,6.488c-.994,1.854-3.236,2.68-4.688,4.246-1.836,1.989-2.765,4.852-4.706,6.924a67.071,67.071,0,0,1-9.63,8.272,28.126,28.126,0,0,1-12.969,4.7,23.314,23.314,0,0,1-3.74-.157,19.235,19.235,0,0,0-4.693-.061c-1.047.151-2.194,1.112-3.576,1.33a5.173,5.173,0,0,1-1.246,0,4.846,4.846,0,0,0-1.219,0c-1.4.236-2.715,1.348-4.03,1.348A7.89,7.89,0,0,1-8134.161-3334.24Zm67.94-83.72c1.029-1.686,2.329-6.268,0-7.38h-.438C-8067.654-3423.471-8068.733-3419.04-8066.221-3417.96ZM-8083-3441.65h.017c.895-1.686-1.415-2.713-1.788-4.481-.438-2.056.506-4.481-1.348-5.594h-.659C-8088.435-3448.053-8086.208-3442-8083-3441.65Zm6.293-27.192c-.626,2.072.371,3.705-.456,5.812.876,1.686,3.086,1.989,5.818,1.786,1.483-.741,1.3-2,2.008-3.439v0c.757-1.551,2.53-3.186,2.242-5.055-.258-1.746-1.734-2.438-3.459-2.438C-8073.094-3472.174-8076.169-3470.679-8076.711-3468.842Zm-75.616-139.188a17.487,17.487,0,0,1,6.276,2.242c2.109,1.483,1.806,3.84,4.25,4.682,1.045.355,2.918.153,4.25.456,3.256.709,5.683,3.369,8.063,3.134,3.744-.438,2.041-3.958,2.462-6.486.962-5.711,12.112-5.443,14.321-1.568,1.686.438,3.068,0,4.924.674,1.08.353,1.873,1.518,2.918,1.786a4.87,4.87,0,0,0,1.511.02,7.231,7.231,0,0,1,1.406-.02c4.283.489,8.18,3.675,11.807,3.134,2.344-.336,4.03-2.545,6.256-2.678a11.671,11.671,0,0,1,4.868.99c2.069.754,4.106,1.507,6.773.576,3.372-1.2,2.647-4.7,3.792-8.272.794-2.427,2.362-4.111,2.479-5.982.118-2.392-.909-4.211-1.112-7.6-2.39-1.444-4.429-.447-6.534.55a8.815,8.815,0,0,1-4.867,1.237c-2.58-.321-4.42-3.369-7.168-2.9-1.5.218-2.261,2.172-3.812,2.46a5.657,5.657,0,0,1-3.674-.772,5.082,5.082,0,0,0-4.373-.558c-4.789-3.64-6.933-9.589-8.062-16.328-2.613-3.369-6.595-.639-8.433,1.568-1.18,0-2.647-.641-2.9.674-.876,4.126,5.851,4.564,5.818,7.378,0,1.821-2.63,1.686-3.794,2.9s-.423,2.512-2.006,3.371c-4.42.521-5.871-1.888-5.821-5.814-1.906-2.9-4.318-5.055-6.039-7.38a9.11,9.11,0,0,1-1.788-3.572c-.15-1.045.491-2.375.22-3.57-.488-2.142-4.471-3.742-6.933-4.922a40.875,40.875,0,0,1-7.995-4.058c-1.333-1.114-1.957-3.068-3.136-3.792s-2.244-.506-3.138-1.112c-1.232-.859-1.029-2.292-2.682-2.678-.842-.3-2.142.844-2.683,1.568-1.1,4.868,2.885,5.206,4.691,7.378,1.248,1.485,1.871,3.725,3.136,4.7s3.188.859,4.926,1.568c1.2.486,1.971,1.987,3.136,2.678,2.142,1.3,5.565,1.516,5.821,4.026a3.191,3.191,0,0,1-2.259.055c-1.224-.227-2.5-.456-3.105.84-.271,1.448,1.147,2.189,1.112,3.572a4.639,4.639,0,0,1-4.671,4.229c-.218-1.315,1.165-2.375,1.112-3.808-.1-2.848-5.818-7.194-8.719-8.424-1.368-.606-3.021-.659-4.25-1.35a31.989,31.989,0,0,1-7.389-6.03c-1.6-2.124-2.968-6.032-6.494-5.812-1.433.083-2.615,1.4-3.794,2.022a31.945,31.945,0,0,0-3.374,1.786,7.847,7.847,0,0,1-3.576,1.784,9.246,9.246,0,0,1-3.655-.822,7.114,7.114,0,0,0-3.952-.744,6.385,6.385,0,0,0-2.462,1.786,31.085,31.085,0,0,1,.22,3.572c-.726,1.263-2.9,1.18-4.471,2.021a30.864,30.864,0,0,0-6.259,5.594c-1.212,1.2-2.31,2.189-2.46,3.134s.622,2.139.454,3.134a10.618,10.618,0,0,1-3.574,4.246c-.794.539-1.839.624-2.683,1.112-1.688,1.045-2.547,2.41-4.03,2.678-3.914.724-11.015-.792-10.965,3.372,0,2.761,3.779,2.778,6.038,2.678a27.01,27.01,0,0,1,3.717.172,12.241,12.241,0,0,0,3.891.046,32.14,32.14,0,0,0,3.794-2.24c.812-.355,1.686-.373,2.244-.676,1.332-.672,2.092-1.684,3.136-2.24a27.968,27.968,0,0,1,8.047-1.937c1.368-.079,2.764-.024,4.247.033a50.206,50.206,0,0,0,5.873-.033c1.383-.1,2.768-.995,4.25-1.115a16.733,16.733,0,0,1,4.161.438,17.8,17.8,0,0,0,3.445.456c1.368,0,2.885-1.365,4.471-1.348a4.6,4.6,0,0,1,4.032,2.46c.186.656-.371,1.684-.22,2.68.253,1.684,1.686,2.29,1.57,3.369-.12,1.4-3.611,3.267-3.138,4.92.3,1.06,2.817,2.172,4.03,2.914a14.581,14.581,0,0,0,4.927,2.006,7.066,7.066,0,0,0,1.808-.111,8.78,8.78,0,0,1,1.322-.133A3.958,3.958,0,0,1-8152.327-3608.031Zm129.05-54.722c-1.688,1.263-3.711,2.139-4.706,2.914a5.77,5.77,0,0,0-2.009,3.574c.135,1.38,2.126,2.189,2.92,4.026.4.944.318,2.124.674,2.916.977,2.157,3.474,3.555,5.362,5.356,1.333,1.282,5.062,4.061,5.145,5.594,0,1.282-1.145,1.553-1.568,2.916a16.67,16.67,0,0,0-.674,5.594c.488,2.46,3.036,2.543,5.362,3.572s4.539,2.846,6.933,2.9a9.429,9.429,0,0,0,6.762-2.242c1.115-7.75-4.924-8.339-6.039-13.865.523,0,.255-.641.676-.674a3.3,3.3,0,0,1,2.043-.013c1.01.2,1.969.4,2.427-.663,0-2.643-3.376-4.615-6.748-3.369-.979-.674-1.1-2.172-1.333-3.57-2.53-1.5-8.821-4.8-8.738-7.818,0-2.477,3.291-3.875,6.933-3.792,1.535-1.162.559-4.75-.894-5.594a21.834,21.834,0,0,0-4.632-.573A12.6,12.6,0,0,0-8023.277-3662.753Zm-65.764-.861c-2.512.27-4.032,4.111-5.38,6.049-.709,1.012-1.856,1.533-2.244,2.46-.235.556,0,1.433-.218,2.242-.776,2.475-2.92,3.369-2.7,5.594.2,1.937,2.31,2.813,2.464,4.464-.155,1.686-2.9.824-2.685,2.916,4,3.369,4.235-1.553,6.276-2.242a9.357,9.357,0,0,1,3.443-.026,11.931,11.931,0,0,0,3.487.026c1.686-.371,3-1.971,4.926-2.68a13.851,13.851,0,0,1,4.25-.892c7.118-.286,11.722,4.331,17.9,4.466a48.434,48.434,0,0,0,7.844-.491h.015c6.071-1.095,3.374-6.217.22-8.034-2.327-1.383-5.06-2.6-7.827-4.248-1.585-.959-7.574-2.763-7.606-4.682s4.453-2.8,2.682-6.488c-3.07-.741-10.341.421-9.851,3.79.286,1.956,2.6.877,3.136,2.916-2.191.776-4.856,2.831-7.168,2.46-2.73-.421-3.374-3.792-4.924-5.814-2,0-3.352-1.81-5.589-1.81A4.193,4.193,0,0,0-8089.041-3663.614Zm103.849,3.339c-3.576.892.186,6.283,2.665,5.812h.015c3.428-.668.376-5.866-2.231-5.866A1.844,1.844,0,0,0-7985.192-3660.276Zm52.592-1.33c1.568.083,2.042-.794,2.225-2.024h0a.966.966,0,0,0-.875-.611A1.8,1.8,0,0,0-7932.6-3661.606Zm104.693-32.873c-.253,2.222-2.615,3.758-2.462,6.03-.859,1.012-2.327,1.4-2.462,3.134,1.416.979,2.042-.774,3.136-1.786,1.738-1.6,4.353-2.56,4.926-4.481a8,8,0,0,0-2.244-7.6C-7829.593-3698.742-7827.74-3696.047-7827.908-3694.479Zm-322.04.456a13.391,13.391,0,0,0,5.521-1.583c2-.881,4.021-1.762,6.117-1.551,1.821.186,2.9,1.466,4.25,1.348,2.159-.2,4-2.7,5.6-3.572-.674-3.758,0-8.728,3.574-8.948a6.124,6.124,0,0,1,2.744.9c1.794.9,3.463,1.808,3.75-.9.186-1.8-1.906-3.369-3.374-3.369s-2.985,2.545-4.03.456c0-2.056,2.309-1.5,3.574-2.024.944-.371,1.688-1.413,2.682-1.784,2.152-.757,4.641-.6,6.977-.447,3.445.229,6.562.456,7.8-2.233-2.927-2.495-7.127-1.337-11.176-.177-2.486.711-4.916,1.424-6.955,1.291a7.354,7.354,0,0,1-5.989-4.013c-.235-.689,0-1.684-.218-2.9a37.241,37.241,0,0,1-.962-3.843c.218-4.043,10.289-4.8,10.289-9.84-1.923-1.836-7.557-1.533-9.4.438-.658.709-.624,2.157-1.568,3.572-2.008,3.049-8.433,3.369-10.526,7.144a7.989,7.989,0,0,0-.895,4.464c.606,2.174,5.348,2.748,5.45,4.97.253,3.74-5.736,3.286-6.495,6.488-.338,1.45.709,3.369.456,4.682-.456,2.342-2.732,1.686-5.6,2.916-1.468.641-2.885,2.966-4.471,3.134a3.711,3.711,0,0,1-1.9-.34,2.642,2.642,0,0,0-1.477-.333c-1.465.268-.977,2.074-3.136,2.46a5.958,5.958,0,0,1-2.065-.2c-1.385-.286-2.728-.572-2.859.872-.135,1.416,2.7,2.192,4.468,2.006,1.4-.135,2.427-1.1,3.794-1.114C-8153.337-3696.047-8151.619-3694.075-8149.948-3694.023ZM-7982.78-3757c0,.253,0,.624-.218.676-.306,4.885,6.745,6.115,6.745,10.108-.05,2-2.242,2.157-1.568,4.567l-.033.068a4.659,4.659,0,0,0,5.4-2.3,4.645,4.645,0,0,0-1.151-5.751c-.809-.776-3.559-1.079-4.691-2.9-1.242-1.992-1.2-4.542-3.673-4.542A4.662,4.662,0,0,0-7982.78-3757Zm99.38-12.079a8.567,8.567,0,0,0-4.926,1.786c-.842.438-2.562.691-2.006,2,2.159-.321,6.427-1.282,6.95-3.858Zm-148.214,399.12a32.33,32.33,0,0,1-.216-4c-.268-1.791-1.319-3.348-1.1-5.341.5-4.519,4.872-6.7,5.088-10.444.166-2.8-1.417-5.576-1.119-8.422h0a10.047,10.047,0,0,1,2.885-5.772c2.037-1.524,4.8-1.359,6.858-2.445a17.335,17.335,0,0,0,5.3-4c1.069-1.389,1.119-2.964,2-4,.6-.719,1.937-.9,2.654-1.773s.5-2.244,1.55-3.114c3.07-1.322,3.956,4.335,4.438,8.2a27.434,27.434,0,0,1,.652,3.112c-.316,1.775-2.27,2.142-2.87,3.348-.151,4.872-2.052,9.089-3.771,13.091-1.468,3.448-2.318,7.249-3.538,10.228-.434,1.088-1.367,1.926-1.769,2.879-1.668,3.784-2.185,9.711-5.09,11.333a23.175,23.175,0,0,1-6.207,1.557A6.312,6.312,0,0,1-8031.614-3369.963Zm431.622-57.789c-2.724-.608-4.828.133-6.73-1.348-2.12-1.686-2.641-5.291-4.911-7.38a10.092,10.092,0,0,0-6.242-2.24c-3.55.386-3.515,4.447-6.73,6.265a17.08,17.08,0,0,0-3.31.017,9.013,9.013,0,0,1-3.838-.236c-2.305-.776-3.618-3.958-5.8-4.246a8.858,8.858,0,0,0-3.306.809c-2.233.8-4.617,1.594-5.107-.589-.672-2.781,3.75-3.69,4.021-5.594s-1.681-4.955-2.673-5.812-2.255-.912-3.367-1.568-2.017-1.987-3.363-2.678c-4.678-2.445-11.776-1.45-13.61-5.376-.318-.689.168-1.466-.218-2.458s-2.288-1.686-2.911-2.68c-1.581-2.728-.471-6.739,2.237-7.159,2.44-.353,7.251,2.663,7.805,4.481.305.959-.2,2.021,0,3.134s2.222,4.547,4.021,4.7c2.305.185,3.668-3.369,5.805-4.7a10.966,10.966,0,0,1,5.8-1.786c1.9.151,3.164,1.684,5.349,2.46,1.566.589,3.5.824,5.367,1.348s3.027,1.416,4.678,2c5.314,1.937,11.641,3.066,14.5,6.486.792.944.774,2.327,1.8,3.371s6.1,1.886,6.239,4.026c.118,1.686-2.12,1.686-2.22,3.369-.183,3.219,4.357,3.033,5.131,6.671,1.682.456,8.782,5.543,6.477,7.818a1.294,1.294,0,0,1-.958.421C-7597.138-3426.219-7598.442-3427.42-7599.992-3427.752Zm-144.716-8.324c-2.5-.373-4.656-.17-7.118-.441-3.114-.357-5.927-2.1-8.874-2.477a14.143,14.143,0,0,0-2.647.007,12.774,12.774,0,0,1-2.693-.007c-1.993-.305-9.445-3.156-9.545-5.09s3.35-2.663,6.446-2.257c3.987.51,6.647,4.039,11.772,3.308,1.206-.168,2.109-1.086,3.348-1.119a10.557,10.557,0,0,1,3.686.8,10.184,10.184,0,0,0,4.521.761c.669.729.216,1.322.233,2.478,2.6,1.406,6.865,1.151,8.2,3.816a3.407,3.407,0,0,1-2.646,1.087A34.161,34.161,0,0,1-7744.708-3436.076Zm-35.248-10.45a65.458,65.458,0,0,1-10.655-10.121,24.739,24.739,0,0,1-3.546-4.03c-1.154-2.142-1.575-4.486-2.876-6.494s-3.346-3.018-4.451-4.924c-.918-1.57-1.019-3.644-1.989-5.145s-2.458-2.006-3.563-3.138c-.7-.741-1.1-1.873-1.773-2.682-2.792-3.372-8.161-5.06-8.363-10.119,1.138-1.315,2.31.489,4.434.894a9.953,9.953,0,0,0,2.011.081,6.114,6.114,0,0,1,1.986.137c2.024.676,3.346,3.865,5.552,5.6,1.2.979,2.761,1.686,3.982,2.682s2.274,2.7,3.345,3.374c1.437.894,3.443,1.483,5.334,2.7,2.561,1.688,7.142,3.374,7.762,6.747.15.826-.384,2.242-.218,2.9.3,1.18,1.791,1.686,2.661,2.682s1.322,3.121,2.876,3.374a1.65,1.65,0,0,0,1.579-.724,1.787,1.787,0,0,1,1.666-.726,9.312,9.312,0,0,1,3.11,4.486c0,1.585-2.425,1.483-3.11,3.576-1.038,3.221.469,6.863-1.322,8.433a10.06,10.06,0,0,1-3.182.516A10.1,10.1,0,0,1-7779.957-3446.526Zm61.47-1.167c-2.266-.689,0-3.906-.458-6.383-.421-2.185-2.521-2.632-2.689-4.353-.135-1.413,1.522-2.909,2.011-4.338.713-2.065.257-6.058,2.691-6.161,1.2,0,2.809,2.565,3.585,2.737,1.341.323,2.8-.342,4.392-1.008a9.137,9.137,0,0,1,5.286-.99h0c.255,3.167-3.991,3.443-5.157,5.938,1.86,2.89,2.588,6.883,4.719,9.584-.085,1.719.338,4.026-.676,4.8-4.517.879-6.955-7.382-8.762-10.324-3.187.616-.642,10.615-4.2,10.616A2.553,2.553,0,0,1-7718.487-3447.693Zm-19.322-6.638c-1.814-.168-3.849-2.837-6.983-2.887-1.187,0-2.593.75-3.814.667-.933-.116-1.712-.984-3.118-1.367-1.695-.467-3.289-.218-4.035-.669-1.542-.933-1.3-3.587-1.812-5.088s-2.355-2.338-3.389-4.423c-1.476-3.02-2.1-9.779,1.795-10.413a5.094,5.094,0,0,1,2.3.336,4.112,4.112,0,0,0,1.974.332c2.17-.534,1.78-3.337,3.594-4.438,1-.635,2.846-.368,4.27-.885a9.624,9.624,0,0,0,3.594-3.1c.949-1.1,1.694-2.97,2.914-3.753s2.7-.936,3.812-1.771c2.951-2.218,3.053-5.306,5.391-7.977,2-2.25,5.083,2.17,5.406,3.989,1.119,1.4,3.391,1.753,4.272,3.339-1.321,3.9-5.085,4.237-4.272,9.744a15.609,15.609,0,0,0,1.356,3.773c.644,1.3,2.541,2.687,2.473,3.537-.153,1.67-3.524,1.585-4.27,3.339s0,1.668-.22,4.2c-.949,1.8-3.492,2.237-4.27,4.44-.951,2.636.135,6.041-2.017,7.977-1.4,0-2.935,1.116-4.617,1.116C-7737.587-3454.316-7737.7-3454.321-7737.809-3454.331Zm39.928-149.927c-1.433-1.915-3.463-2.946-3.531-4.49s3.162-4.283,4.194-5.384c1.25-1.372,3.711-3.912,5.291-4.268a16.06,16.06,0,0,1,3.984-.236,10.039,10.039,0,0,0,4.187-.44c1.93-.848,2.045-3.947,3.095-4.726s1.9-.473,2.645-.9a8.241,8.241,0,0,0,3.095-8.991c-.733-2.506-4.826-5.251-2.2-8.315,3.91.423,9.068,4.353,9.718,8.315.249,1.54-.6,3.1-.452,4.708a21.767,21.767,0,0,0,1.315,3.149h0c.9,2.693,1.513,5.352,2.211,7.857-2.427,3.081-7.253,1.947-10.814,3.592-1.664.778-2.146,3.607-3.762,4.045a2.558,2.558,0,0,1-1.941-.534,3.1,3.1,0,0,0-1.585-.582c-3.177,0-4.726,5.4-8.618,4.048-2.231,1.354.083,6.521-2.646,6.961a2.068,2.068,0,0,1-.315.025C-7695.755-3600.423-7696.769-3602.787-7697.881-3604.258Zm-538.507-81.031c.312-1.96,2.188-2.342,2.849-3.969,0-1.278-1.3-1.943-1.089-3.321.264-1.66,1.5-1.095,3.293-1.76,1.335-.449,1.811-2.009,3.555-3.038,2.916-1.792,8.019-.417,8.232,1.76.214,1.659-1.548,1.893-2.189,3.736s.116,3.686-.658,4.848-2.486.947-3.721,1.311c-1.8.546-4.7,2.132-7.107,2.132A3.442,3.442,0,0,1-8236.388-3685.289Z" transform="translate(8689.32 3778)" fill="#3f295b"/>
          <path id="Path_3119" data-name="Path 3119" d="M426.412,78.2a3.788,3.788,0,0,0-2.066-3.581c-.758-.4-1.894-.219-2.737-.675-2.221-1.2-3.03-3.7-4.338-4.256.172-2.449-.688-4.239,0-5.826A13.426,13.426,0,0,1,422.3,59.6c2-.692,4.08,0,5.25-1.57a1.5,1.5,0,0,1,1.135.219c0,1.418-1.222,1.689-1.376,2.922.275,2.043,3.941.76,4.338,2.685-.345,2.094-2.273,2.5-2.29,4.036s2.772,3.85,4.113,5.608c1,1.3,2.755,2.262,3.65,3.58s.964,2.533,1.6,3.141c1.2,1.115,3.908,1.3,4.113,2.922.259,2.144-2.7,2.99-2.288,5.37-3.133,2.415-8.366,1.165-13.479,1.79-2.306.287-4.854,2.55-7.317.675-.568-1.5,2.032-1.689,2.291-3.141-.172-1.317-1.894-1.132-2.289-2.247.671-1.688,2.737-2.094,2.513-4.711,1.326-1.368,3.788-.844,4.148-2.686Z" transform="translate(51.667 7.186)" fill="#3f295b"/>
        </g>
        <path id="Path_3125" data-name="Path 3125" d="M0,50.184Q239.88,137.832,431.627,0" transform="translate(617.747 118.009) rotate(180)" fill="none" stroke="#fff" stroke-linecap="round" stroke-linejoin="bevel" stroke-width="2" stroke-dasharray="1 8" fill-rule="evenodd"/>
        <path id="Path_3126" data-name="Path 3126" d="M0,43.52Q119.908,74.13,191.494,0" transform="translate(760.084 140.284) rotate(136)" fill="none" stroke="#fff" stroke-linecap="round" stroke-linejoin="bevel" stroke-width="2" stroke-dasharray="1 8" fill-rule="evenodd"/>
        <path id="Path_3127" data-name="Path 3127" d="M381.234,74.731Q476.317,46.1,518.375,52.209c42.058,6.107,82.4,11.992,137.141,63.679" transform="translate(-55.765 262.632)" fill="none" stroke="#fff" stroke-linecap="round" stroke-linejoin="bevel" stroke-width="2" stroke-dasharray="1 8" fill-rule="evenodd"/>
        <path id="Path_4425" data-name="Path 4425" d="M0,43.52Q119.908,74.13,191.494,0" transform="translate(493.666 233.575) rotate(150)" fill="none" stroke="#fff" stroke-linecap="round" stroke-linejoin="bevel" stroke-width="2" stroke-dasharray="1 8" fill-rule="evenodd"/>
        <g transform="matrix(1, 0, 0, 1, 0, 0)" filter="url(#Ellipse_339)">
          <circle id="Ellipse_339-2" data-name="Ellipse 339" cx="9" cy="9" r="9" transform="translate(320.68 328)" fill="#fb5083"/>
        </g>
        <path id="Path_4426" data-name="Path 4426" d="M381.234,74.731Q476.317,46.1,518.375,52.209c42.058,6.107,82.4,11.992,137.141,63.679" transform="translate(231.954 -11.6)" fill="none" stroke="#fff" stroke-linecap="round" stroke-linejoin="bevel" stroke-width="2" stroke-dasharray="1 8" fill-rule="evenodd"/>
        <path id="Path_4427" data-name="Path 4427" d="M0,23.6Q95.083-5.033,137.141,1.073c42.058,6.107,82.4,11.992,137.141,63.679" transform="matrix(0.985, 0.174, -0.174, 0.985, 208.422, 90.391)" fill="none" stroke="#fff" stroke-linecap="round" stroke-linejoin="bevel" stroke-width="2" stroke-dasharray="1 8" fill-rule="evenodd"/>
        <g transform="matrix(1, 0, 0, 1, 0, 0)" filter="url(#Ellipse_348)">
          <circle id="Ellipse_348-2" data-name="Ellipse 348" cx="9" cy="9" r="9" transform="translate(459.68 189)" fill="#fb5083"/>
        </g>
        <g transform="matrix(1, 0, 0, 1, 0, 0)" filter="url(#Ellipse_349)">
          <circle id="Ellipse_349-2" data-name="Ellipse 349" cx="9" cy="9" r="9" transform="translate(187.68 108)" fill="#fb5083"/>
        </g>
        <g transform="matrix(1, 0, 0, 1, 0, 0)" filter="url(#Ellipse_350)">
          <circle id="Ellipse_350-2" data-name="Ellipse 350" cx="9" cy="9" r="9" transform="translate(597.68 57)" fill="#fb5083"/>
        </g>
        <g transform="matrix(1, 0, 0, 1, 0, 0)" filter="url(#Ellipse_352)">
          <circle id="Ellipse_352-2" data-name="Ellipse 352" cx="9" cy="9" r="9" transform="translate(882.68 98)" fill="#fb5083"/>
        </g>
        <g transform="matrix(1, 0, 0, 1, 0, 0)" filter="url(#Ellipse_353)">
          <circle id="Ellipse_353-2" data-name="Ellipse 353" cx="9" cy="9" r="9" transform="translate(612.68 265)" fill="#fb5083"/>
        </g>
        <g transform="matrix(1, 0, 0, 1, 0, 0)" filter="url(#Ellipse_354)">
          <circle id="Ellipse_354-2" data-name="Ellipse 354" cx="9" cy="9" r="9" transform="translate(596.68 372)" fill="#fb5083"/>
        </g>
        <path id="Path_4428" data-name="Path 4428" d="M0,34.928Q96.235,59.495,153.688,0" transform="matrix(-0.777, -0.629, 0.629, -0.777, 593.235, 291.725)" fill="none" stroke="#fff" stroke-linecap="round" stroke-linejoin="bevel" stroke-width="2" stroke-dasharray="1 8" fill-rule="evenodd"/>
        <g transform="matrix(1, 0, 0, 1, 0, 0)" filter="url(#Ellipse_355)">
          <ellipse id="Ellipse_355-2" data-name="Ellipse 355" cx="10.5" cy="10" rx="10.5" ry="10" transform="translate(320.68 318)" fill="#fb5083" opacity="0.244"/>
        </g>
        <g transform="matrix(1, 0, 0, 1, 0, 0)" filter="url(#Ellipse_356)">
          <circle id="Ellipse_356-2" data-name="Ellipse 356" cx="10" cy="10" r="10" transform="translate(459.68 184)" fill="#fb5083" opacity="0.244"/>
        </g>
        <g transform="matrix(1, 0, 0, 1, 0, 0)" filter="url(#Ellipse_357)">
          <circle id="Ellipse_357-2" data-name="Ellipse 357" cx="10.5" cy="10.5" r="10.5" transform="translate(187.68 101)" fill="#fb5083" opacity="0.244"/>
        </g>
        <g transform="matrix(1, 0, 0, 1, 0, 0)" filter="url(#Ellipse_358)">
          <ellipse id="Ellipse_358-2" data-name="Ellipse 358" cx="10" cy="10.5" rx="10" ry="10.5" transform="translate(598.68 50)" fill="#fb5083" opacity="0.244"/>
        </g>
        <g transform="matrix(1, 0, 0, 1, 0, 0)" filter="url(#Ellipse_359)">
          <ellipse id="Ellipse_359-2" data-name="Ellipse 359" cx="10.5" cy="10" rx="10.5" ry="10" transform="translate(882.68 97)" fill="#fb5083" opacity="0.244"/>
        </g>
        <g transform="matrix(1, 0, 0, 1, 0, 0)" filter="url(#Ellipse_360)">
          <circle id="Ellipse_360-2" data-name="Ellipse 360" cx="10" cy="10" r="10" transform="translate(612.68 261)" fill="#fb5083" opacity="0.244"/>
        </g>
        <g transform="matrix(1, 0, 0, 1, 0, 0)" filter="url(#Ellipse_361)">
          <circle id="Ellipse_361-2" data-name="Ellipse 361" cx="10.5" cy="10.5" r="10.5" transform="translate(596.68 369)" fill="#fb5083" opacity="0.244"/>
        </g>
      </g>
    </g>
  </g>
</svg>
