<?xml version="1.0" encoding="utf-8"?>
<!-- Generator: Adobe Illustrator 23.0.1, SVG Export Plug-In . SVG Version: 6.00 Build 0)  -->
<svg version="1.1" id="Layer_1" xmlns="http://www.w3.org/2000/svg" xmlns:xlink="http://www.w3.org/1999/xlink" x="0px" y="0px"
	 viewBox="0 0 216.1 59.4" style="enable-background:new 0 0 216.1 59.4;" xml:space="preserve">
<style type="text/css">
	.st0{display:none;fill:#0B1748;}
	.st1{display:none;}
	.st2{display:inline;}
	.st3{fill:url(#Shape_1_);}
	.st4{fill:url(#Shape-2_1_);}
	.st5{fill:url(#Shape-3_1_);}
	.st6{fill:#0B1748;}
	.st7{font-family:'VarelaRound-Regular';}
	.st8{font-size:57.1178px;}
</style>
<g id="Group_1315" transform="translate(-236 -7575.407)">
	<path id="Welcome_to_the_most" class="st0" d="M305.6,7617.3c-0.1-2.2,0.8-4.2,2.4-5.7c0.8-0.7,1.6-1.3,2.6-1.7
		c1-0.4,2.1-0.7,3.2-0.9l6.7-1c0.6,0,1.2-0.3,1.6-0.7c0.3-0.3,0.5-0.8,0.4-1.2c0-1-0.4-1.9-1.1-2.5c-1-0.8-2.2-1.2-3.5-1.1
		c-1.4-0.1-2.7,0.4-3.7,1.3c-0.8,0.8-1.4,1.9-1.5,3.1l-6.6-1.4c0.1-1.1,0.5-2.2,1-3.2c0.6-1.1,1.3-2.1,2.3-2.9
		c1-0.9,2.3-1.6,3.6-2.1c1.6-0.6,3.2-0.8,4.9-0.8c1.9,0,3.7,0.2,5.5,0.9c1.4,0.5,2.6,1.3,3.7,2.3c0.9,0.9,1.6,2.1,2.1,3.3
		c0.4,1.3,0.6,2.6,0.6,3.9v13.4c0,0.7,0,1.5,0.1,2.4c0.1,0.8,0.1,1.5,0.2,2h-6.8c-0.1-0.5-0.2-1-0.2-1.5c-0.1-0.6-0.1-1.2-0.1-1.7
		c-0.8,1.2-1.8,2.1-3,2.8c-1.5,0.9-3.3,1.3-5,1.2c-1.3,0-2.7-0.2-3.9-0.7c-1.1-0.4-2.1-1-3-1.8c-0.8-0.7-1.4-1.6-1.9-2.6
		C305.8,7619.4,305.5,7618.3,305.6,7617.3z M316.5,7620c0.8,0,1.5-0.1,2.2-0.3c0.7-0.2,1.4-0.6,1.9-1.1c0.6-0.5,1-1.2,1.3-1.9
		c0.4-1,0.5-2,0.5-3v-1.2l-6.2,0.9c-0.9,0.1-1.7,0.5-2.4,1c-0.7,0.6-1,1.5-1,2.4c0,0.8,0.3,1.6,0.9,2.2
		C314.5,7619.7,315.5,7620.1,316.5,7620z M360.3,7619.8c0,0.9,0,1.8,0.1,2.7c0,0.9,0.1,1.6,0.2,2.2h-7c-0.1-0.4-0.2-0.9-0.2-1.3
		c-0.1-0.6-0.1-1.2-0.1-1.8c-0.7,1.2-1.7,2.1-2.9,2.7c-1.5,0.8-3.1,1.2-4.7,1.1c-1.9,0-3.7-0.3-5.4-1.1c-1.6-0.7-3-1.7-4.2-3
		c-1.2-1.3-2.1-2.9-2.7-4.5c-0.7-1.8-1-3.8-1-5.7c0-1.9,0.3-3.8,1-5.6c0.6-1.7,1.5-3.2,2.7-4.5c1.2-1.3,2.6-2.3,4.1-3
		c1.7-0.8,3.5-1.1,5.3-1.1c1,0,2.1,0.1,3.1,0.3c0.8,0.2,1.5,0.5,2.2,0.8c0.6,0.3,1.1,0.6,1.5,1.1c0.3,0.3,0.6,0.7,0.9,1.1v-15.6h7.3
		V7619.8z M339.6,7611c-0.1,2.1,0.6,4.1,1.9,5.7c1.2,1.4,3,2.1,4.9,2.1c1.8,0,3.5-0.7,4.8-2.1c1.4-1.6,2.1-3.7,1.9-5.8
		c0.1-2.1-0.6-4.1-1.9-5.6c-1.2-1.3-3-2-4.8-2c-1.8,0-3.5,0.7-4.8,2C340.2,7606.9,339.5,7608.9,339.6,7611z M391.5,7619.8
		c0,0.9,0,1.8,0.1,2.7c0,0.9,0.1,1.6,0.2,2.2h-7c-0.1-0.4-0.2-0.9-0.2-1.3c-0.1-0.6-0.1-1.2-0.1-1.8c-0.7,1.1-1.7,2.1-2.9,2.7
		c-1.5,0.8-3.1,1.2-4.7,1.1c-1.9,0-3.7-0.3-5.4-1.1c-1.6-0.7-3-1.7-4.2-3c-1.2-1.3-2.1-2.9-2.7-4.6c-0.7-1.8-1-3.8-1-5.7
		c0-1.9,0.3-3.8,1-5.6c0.6-1.7,1.5-3.2,2.7-4.5c1.2-1.3,2.6-2.3,4.1-3c1.7-0.8,3.5-1.1,5.3-1.1c1,0,2.1,0.1,3.1,0.3
		c0.8,0.2,1.5,0.5,2.2,0.8c0.6,0.3,1.1,0.7,1.5,1.1c0.3,0.3,0.6,0.7,0.9,1.1v-15.6h7.3V7619.8z M370.9,7611
		c-0.1,2.1,0.6,4.1,1.9,5.7c1.2,1.4,3,2.1,4.9,2.1c1.8,0,3.5-0.7,4.8-2.1c1.4-1.6,2.1-3.7,1.9-5.8c0.1-2.1-0.6-4.1-1.9-5.6
		c-1.2-1.3-3-2-4.8-2c-1.8,0-3.5,0.7-4.8,2C371.4,7606.9,370.7,7608.9,370.9,7611z M412.3,7608.9l11.2,15.8h-9l-7.2-10.4l-3,3.2v7.2
		h-7.4v-40.2h7.4v23l9.4-10.2h9.7L412.3,7608.9z M425,7624.7v-27.3h7.4v27.3H425z M446.6,7597.4h5.5v6.5h-5.5v11.4
		c-0.1,0.9,0.2,1.8,0.8,2.5c0.7,0.5,1.6,0.8,2.4,0.7c0.4,0,0.9,0,1.3-0.1c0.3,0,0.6-0.1,0.9-0.2v6.1c-0.5,0.2-1,0.3-1.5,0.4
		c-0.9,0.2-1.8,0.2-2.6,0.2c-2.3,0.1-4.6-0.7-6.3-2.2c-1.6-1.6-2.5-3.9-2.3-6.2v-12.7h-4.9v-6.5h1.4c1.2,0.1,2.4-0.4,3.2-1.2
		c0.7-0.9,1.1-2,1-3.1v-3.8h6.7L446.6,7597.4z"/>
	<g id="Page-1" transform="translate(236 7575.407)" class="st1">
		<g id="Brring-_-Homepage" transform="translate(0 0)" class="st2">
			<g id="Group" transform="translate(0)">
				<g id="Brring_logo_col">
					
						<linearGradient id="Shape_1_" gradientUnits="userSpaceOnUse" x1="-183.2972" y1="439.7215" x2="-184.0382" y2="440.4565" gradientTransform="matrix(38.3437 0 0 -38.3139 7057.9639 16905.584)">
						<stop  offset="0" style="stop-color:#DB506C"/>
						<stop  offset="1" style="stop-color:#EA8D9F"/>
					</linearGradient>
					<path id="Shape" class="st3" d="M18.6,40.9c5.2,5.2,12.5,7.7,19.8,6.9c-4.6,10.1-16.5,14.5-26.6,10s-14.5-16.5-10-26.6
						c2-4.4,5.5-7.9,9.9-9.9C10.9,28.5,13.4,35.8,18.6,40.9z"/>
					
						<linearGradient id="Shape-2_1_" gradientUnits="userSpaceOnUse" x1="-184.7634" y1="441.8757" x2="-184.3114" y2="442.6527" gradientTransform="matrix(47.9833 0 0 -47.8767 8891.5566 21196.0254)">
						<stop  offset="0" style="stop-color:#F66675"/>
						<stop  offset="1" style="stop-color:#FCC48D"/>
					</linearGradient>
					<path id="Shape-2" class="st4" d="M52.7,40.9c-3.9,3.8-8.9,6.3-14.3,6.9c3.6-7.6,2-16.7-4-22.6c-6-5.9-15.1-7.5-22.7-3.9
						C13.2,8,25.2-1.4,38.4,0.1S61,13.5,59.5,26.7C58.9,32.1,56.5,37.1,52.7,40.9z"/>
					
						<linearGradient id="Shape-3_1_" gradientUnits="userSpaceOnUse" x1="-181.904" y1="436.2061" x2="-181.904" y2="437.1981" gradientTransform="matrix(28.6538 0 0 -28.5654 5238.1216 12508.2373)">
						<stop  offset="0" style="stop-color:#4C3D69"/>
						<stop  offset="1" style="stop-color:#C73E67"/>
					</linearGradient>
					<path id="Shape-3" class="st5" d="M34.3,25.2c5.9,5.9,7.6,14.9,4,22.5c-13.2,1.5-25.1-7.9-26.6-21.1c-0.2-1.8-0.2-3.7,0-5.5
						C19.3,17.7,28.4,19.3,34.3,25.2L34.3,25.2z"/>
				</g>
			</g>
		</g>
	</g>
</g>
<text transform="matrix(1 0 0 1 66.0377 49.292)" class="st6 st7 st8">Leon</text>
<image style="overflow:visible;" width="397" height="450" id="Vector_Smart_Object_xA0_Image" xlink:href="B4FD26A5.png"  transform="matrix(0.1223 0 0 0.1223 14.0769 2.7587)">
</image>
</svg>
