<svg xmlns="http://www.w3.org/2000/svg" width="111.468" height="14.912" viewBox="0 0 111.468 14.912">
  <path id="Simple_Pricing" data-name="Simple Pricing" d="M-42.838,0V-11.344h-2.1l-4.032,9.232-4-9.232h-2.128V0h1.552V-8.832L-49.7,0h1.44l3.872-8.832V0Zm1.41-2.064A2.4,2.4,0,0,0-38.852.24a2.806,2.806,0,0,0,2.48-1.28A5.63,5.63,0,0,0-36.292,0h1.472a7.239,7.239,0,0,1-.1-1.264V-5.12c0-1.5-.9-2.816-3.2-2.816a2.968,2.968,0,0,0-3.152,2.5l1.44.336a1.633,1.633,0,0,1,1.744-1.552c1.168,0,1.664.624,1.664,1.376,0,.272-.128.512-.592.576l-2.08.3A2.38,2.38,0,0,0-41.428-2.064Zm2.784,1.04a1.167,1.167,0,0,1-1.248-1.12A1.151,1.151,0,0,1-38.772-3.3l2.352-.352V-3.3A2.018,2.018,0,0,1-38.644-1.024Zm6.21-2.848c0-1.584.9-2.7,2.272-2.7s2.208,1.088,2.208,2.672S-28.8-1.12-30.178-1.12C-31.618-1.12-32.434-2.288-32.434-3.872Zm4.5,2.832A6.446,6.446,0,0,0-27.858,0H-26.4a12.176,12.176,0,0,1-.08-1.424v-10.16H-27.97v4.976a2.366,2.366,0,0,0-2.352-1.3A3.782,3.782,0,0,0-33.97-3.872c0,2.288,1.392,4.08,3.648,4.08a2.576,2.576,0,0,0,2.384-1.376Zm4.242-3.6a2.07,2.07,0,0,1,2.1-1.968A1.939,1.939,0,0,1-19.488-4.64Zm4.432,2a2.1,2.1,0,0,1-2.16,1.552,2.285,2.285,0,0,1-2.32-2.336h5.792a3.381,3.381,0,0,0,.032-.48c0-2.4-1.328-4.032-3.7-4.032A3.841,3.841,0,0,0-25.3-3.872,3.839,3.839,0,0,0-21.424.24a3.488,3.488,0,0,0,3.456-2.432ZM-12.012,0V-1.12A2.746,2.746,0,0,0-9.516.208c2.288,0,3.584-1.808,3.584-4.1,0-2.24-1.2-4.032-3.536-4.032a2.807,2.807,0,0,0-2.544,1.312v-4.976H-13.5V0Zm4.544-3.888c0,1.664-.9,2.752-2.272,2.752-1.328,0-2.288-1.088-2.288-2.752s.96-2.7,2.288-2.7C-8.348-6.592-7.468-5.552-7.468-3.888Zm4.306,7.1L1.846-7.7H.23l-2.3,5.312L-4.474-7.7H-6.2L-2.89-.848-4.81,3.216ZM10.858.24a4.953,4.953,0,0,0,5.008-3.648L14.474-3.92A3.606,3.606,0,0,1,10.858-1.2c-2.064,0-4.032-1.52-4.032-4.48s1.968-4.464,4.032-4.464a3.36,3.36,0,0,1,3.536,2.672l1.456-.512a4.818,4.818,0,0,0-4.992-3.6,5.622,5.622,0,0,0-5.632,5.9A5.574,5.574,0,0,0,10.858.24Zm10.21-8.016a2.83,2.83,0,0,0-.5-.048,2.41,2.41,0,0,0-2.3,1.472V-7.7H16.8V0h1.5V-3.856c0-1.7.848-2.368,2.112-2.368a4.694,4.694,0,0,1,.656.048ZM22.814-4.64a2.07,2.07,0,0,1,2.1-1.968A1.939,1.939,0,0,1,27.022-4.64Zm4.432,2a2.1,2.1,0,0,1-2.16,1.552,2.285,2.285,0,0,1-2.32-2.336h5.792a3.381,3.381,0,0,0,.032-.48c0-2.4-1.328-4.032-3.7-4.032a3.841,3.841,0,0,0-3.68,4.064A3.839,3.839,0,0,0,25.086.24a3.488,3.488,0,0,0,3.456-2.432Zm2.034.576A2.4,2.4,0,0,0,31.856.24a2.806,2.806,0,0,0,2.48-1.28A5.63,5.63,0,0,0,34.416,0h1.472a7.239,7.239,0,0,1-.1-1.264V-5.12c0-1.5-.9-2.816-3.2-2.816a2.968,2.968,0,0,0-3.152,2.5l1.44.336a1.633,1.633,0,0,1,1.744-1.552c1.168,0,1.664.624,1.664,1.376,0,.272-.128.512-.592.576l-2.08.3A2.38,2.38,0,0,0,29.28-2.064Zm2.784,1.04a1.167,1.167,0,0,1-1.248-1.12A1.151,1.151,0,0,1,31.936-3.3l2.352-.352V-3.3A2.018,2.018,0,0,1,32.064-1.024ZM38.866,0V-1.12a2.746,2.746,0,0,0,2.5,1.328c2.288,0,3.584-1.808,3.584-4.1,0-2.24-1.2-4.032-3.536-4.032a2.807,2.807,0,0,0-2.544,1.312v-4.976H37.378V0ZM43.41-3.888c0,1.664-.9,2.752-2.272,2.752-1.328,0-2.288-1.088-2.288-2.752s.96-2.7,2.288-2.7C42.53-6.592,43.41-5.552,43.41-3.888ZM47.6,0V-7.7H46.116V0ZM45.78-10.608a1.072,1.072,0,0,0,1.072,1.072,1.076,1.076,0,0,0,1.088-1.072A1.079,1.079,0,0,0,46.852-11.7,1.076,1.076,0,0,0,45.78-10.608ZM56.31-7.7H54.23L50.9-4.288v-7.3H49.414V0H50.9V-2.32l1.072-1.072L54.486,0h1.888L53.03-4.448Z" transform="translate(55.094 11.696)" fill="#0b1748"/>
</svg>
