<svg id="Group_1676" data-name="Group 1676" xmlns="http://www.w3.org/2000/svg" width="130.653" height="34.297" viewBox="0 0 130.653 34.297">
  <g id="shutterstock_1_" data-name="shutterstock (1)" transform="translate(96.494)">
    <path id="Path_9" data-name="Path 9" d="M178.987,28.04c-.356-.061-1.553-.261-1.905-.326-1.892-.339-3.514-.783-3.514-2.686,0-1.635,1.714-2.4,3.846-2.4a14.842,14.842,0,0,1,6.273,1.6l1.739-4.588a16.764,16.764,0,0,0-7.958-1.86c-4.085,0-9.072,2.144-9.072,7.479,0,4.775,3.412,6.307,6.7,6.885.454.084,1.882.328,2.29.4,2.211.374,3.427,1.2,3.427,2.645,0,1.836-1.725,2.7-4.337,2.7a16.986,16.986,0,0,1-7.343-1.538l-1.926,4.49c.6.308,3.454,1.919,9.025,1.919,5.41,0,9.742-2.677,9.742-7.661-.04-4.637-3.159-6.4-6.985-7.053M195.493,9.424l-5.115,2.83v5.99h-2.7v4.892h2.694V33.715c0,4.52,1.856,8.576,8.405,8.576h2.049v-4.9h-.767c-3.221,0-4.574-1.858-4.574-4.383V23.138h5.876V18.246h-5.876Z" transform="translate(-167.206 -9.424)" fill="#0b1748"/>
  </g>
  <g id="shutterstock_1_2" data-name="shutterstock (1)" transform="translate(23.068 9.321)">
    <path id="Path_9-2" data-name="Path 9" d="M178.987,28.333c-.356-.061-1.553-.261-1.905-.326-1.892-.339-3.514-.783-3.514-2.686,0-1.635,1.714-2.4,3.846-2.4a14.842,14.842,0,0,1,6.273,1.6l1.739-4.588a16.764,16.764,0,0,0-7.958-1.86c-4.085,0-9.072,2.144-9.072,7.479,0,4.775,3.412,6.307,6.7,6.885.454.084,1.882.328,2.29.4,2.211.374,3.427,1.2,3.427,2.645,0,1.836-1.725,2.7-4.337,2.7a16.986,16.986,0,0,1-7.343-1.538l-1.926,4.49c.6.308,3.454,1.919,9.025,1.919,5.41,0,9.742-2.677,9.742-7.661-.04-4.637-3.159-6.4-6.985-7.053m8.7-9.8Z" transform="translate(-167.206 -18.072)" fill="#0b1748"/>
  </g>
  <path id="Path_10" data-name="Path 10" d="M142.168,24.3h-5.32a1.533,1.533,0,0,0-1.532,1.529V31.6h-5.248V25.83a6.777,6.777,0,0,1,6.783-6.777h5.313V24.3Zm-4.33,13.549h5.324a1.534,1.534,0,0,0,1.529-1.531V30.547h5.248v5.771a6.779,6.779,0,0,1-6.777,6.779h-5.324Z" transform="translate(-130.067 -9.75)" fill="#0b1748"/>
  <path id="Path_10-2" data-name="Path 10" d="M97.633,18.247h5.874v4.892H97.633v9.872c0,2.524,1.353,4.383,4.569,4.383h.768v4.9h-2.05c-6.551,0-8.405-4.058-8.405-8.576V23.139H83.907v9.872c0,2.524,1.353,4.383,4.571,4.383h.765v4.9H87.193c-6.548,0-8.405-4.058-8.405-8.576V23.139H76.194V18.247h2.594v-5.99l5.12-2.83v8.822h8.609v-5.99l5.12-2.83Z" transform="translate(-32.596 -9.424)" fill="#0b1748"/>
  <path id="Path_10-3" data-name="Path 10" d="M125.7,26.337c0-4.4-3.351-8.263-9.379-8.263-6.841,0-9.468,4.271-9.468,8.263v7.986c0,5.524,3.529,8.729,9.468,8.729,5.238,0,7.958-3.03,8.767-4.848l-4.32-2.6a4.789,4.789,0,0,1-4.412,2.568c-3.162,0-4.379-1.766-4.379-3.978l-.019-1.316H125.7Zm-5.12,2.4H111.95V26.987c0-1.952.981-4.044,4.341-4.044,3.238,0,4.286,2.039,4.286,3.95Z" transform="translate(-32.668 -9.717)" fill="#0b1748"/>
</svg>
