<svg xmlns="http://www.w3.org/2000/svg" width="125.193" height="21.688" viewBox="0 0 125.193 21.688">
  <g id="Group_757" data-name="Group 757" transform="translate(-0.071)">
    <path id="Path_1511" data-name="Path 1511" d="M0,35.1V14.434H5.669V17.2a6.357,6.357,0,0,1,5.814-3.151,6.574,6.574,0,0,1,5.922,3.3,8.512,8.512,0,0,1,6.574-3.3c4.818,0,7.516,2.608,7.516,7.426V35.1h-6.14V23.906c0-2.9-.634-4.2-2.97-4.2s-3.622,1.431-3.622,4.2V35.1H12.678V23.906c0-2.9-.634-4.2-2.97-4.2s-3.622,1.431-3.622,4.2V35.1Z" transform="translate(49 -14.014)" fill="#0b1748"/>
    <path id="Path_1512" data-name="Path 1512" d="M30.569,29.933a5.144,5.144,0,0,0,3.622-1.521,4.854,4.854,0,0,0,1.431-3.622,5.053,5.053,0,1,0-5.035,5.071ZM22.582,17.255a11.537,11.537,0,0,1,15.775-.217,10.559,10.559,0,0,1,3.477,7.806,10.342,10.342,0,0,1-3.188,7.7,11.247,11.247,0,0,1-8.132,3.169A10.8,10.8,0,0,1,22.582,17.2Z" transform="translate(3.687 -14.028)" fill="#0b1748"/>
    <path id="Path_1513" data-name="Path 1513" d="M33.72,35.132V14.485h5.941v2.771a6.719,6.719,0,0,1,6.031-3.169,6.828,6.828,0,0,1,7.245,7.426v13.62H46.688V23.939c0-2.88-.616-4.184-3.043-4.184s-3.622,1.413-3.622,4.184V35.132Z" transform="translate(-33.649 -13.992)" fill="#0b1748"/>
    <path id="Path_1514" data-name="Path 1514" d="M67.789,29.933a5.089,5.089,0,1,0-3.622-8.657,4.926,4.926,0,0,0-1.376,3.568,5.053,5.053,0,0,0,5,5.089ZM59.8,17.255a11.537,11.537,0,0,1,15.775-.217,10.668,10.668,0,0,1,3.514,7.679,10.36,10.36,0,0,1-3.224,7.77,11.32,11.32,0,0,1-8.114,3.224A10.7,10.7,0,0,1,59.675,32.4a10.6,10.6,0,0,1-3.115-7.552A10.36,10.36,0,0,1,59.8,17.2Z" transform="translate(26.877 -14.028)" fill="#0b1748"/>
    <path id="Path_1515" data-name="Path 1515" d="M62.522,34.947v-4.31L53.738,19.643h8.784V14.3H46.675v4.89L54.426,29.6h-7.9v5.343Z" transform="translate(62.742 -13.807)" fill="#0b1748"/>
  </g>
</svg>
