<svg xmlns="http://www.w3.org/2000/svg" width="132.061" height="29.289" viewBox="0 0 132.061 29.289">
  <g id="Group_1327" data-name="Group 1327" transform="translate(-1300.617 -1425.192)">
    <path id="Path_1516" data-name="Path 1516" d="M121.976,27.669c0-2.246-1.521-4.4-5.125-4.4a5.035,5.035,0,0,0-5.144,4.4Zm5.814,7.245a10.342,10.342,0,0,1-10.323,7.063,11.084,11.084,0,0,1-8.422-3.242,11.917,11.917,0,0,1-3.4-8.6,11.772,11.772,0,0,1,3.188-8.331,11.03,11.03,0,0,1,7.969-3.477c7.009,0,11.265,4.383,11.265,11.573v1.811h-16.3a5.433,5.433,0,0,0,5.633,5.071,4.926,4.926,0,0,0,5.216-3.477ZM70.142,28.466a4.238,4.238,0,0,1,1.123-3.278A4.075,4.075,0,0,1,74.4,23.865a3.894,3.894,0,0,1,3.133,1.159,4.166,4.166,0,0,1,1.123,3.242V41.234h6.194V27.2c0-4.944-2.626-8.911-8.259-8.911a7.788,7.788,0,0,0-6.556,3.332V18.758H64V41.126H70.2Zm-16.3-9.545h6.176V41.234H53.842ZM39.281,37.485a2.608,2.608,0,0,1-2.028-.616,2.771,2.771,0,0,1-1.014-1.956c0-1.811,1.232-2.59,2.862-2.789l5.216-.688v.96a4.763,4.763,0,0,1-1.322,3.821,4.419,4.419,0,0,1-3.713,1.268Zm-9.056-2.264c0,3.622,2.97,6.756,7.878,6.756a7.244,7.244,0,0,0,6.647-3.3,22.278,22.278,0,0,0,.217,2.68h5.759a30.244,30.244,0,0,1-.326-3.622V26.872c0-4.51-2.717-8.512-9.943-8.512-6.194,0-9.418,3.858-9.744,7.389l5.433,1.2a4.021,4.021,0,0,1,4.383-3.622c2.608,0,3.821,1.286,3.821,2.9,0,.761-.453,1.395-1.811,1.612l-5.6.851c-3.785.326-6.756,2.644-6.756,6.538ZM28.414,24.934a16.3,16.3,0,0,0-1.811-.217c-3.169,0-5.9,1.5-5.9,6.393v10.2H14.378V18.921h6.031v3.332a6.683,6.683,0,0,1,6.448-3.5,4.618,4.618,0,0,1,1.413,0Z" transform="translate(1304.617 1412.483)" fill="#fff"/>
    <path id="Path_101229" data-name="Path 101229" d="M14.67,35.163v-5.27H7.552a10.269,10.269,0,0,1,1.811,1.3,9.581,9.581,0,0,1,2.391,3.966ZM1.811,29.892H0v5.27H9.961A8.259,8.259,0,0,0,6.9,31.305a10.179,10.179,0,0,0-5.089-1.413ZM12.841,18.12a6.611,6.611,0,0,1,1.811.217V13.284a9.056,9.056,0,0,0-3.4-.543,6.5,6.5,0,0,0-7.136,6.864v8.911h6.067V20.565c0-1.739.887-2.445,2.608-2.445ZM10.179,36.539v5.27H4.745V38.695a3.4,3.4,0,0,0-.67-2.119Z" transform="translate(1391.617 1412.483)" fill="#fff"/>
    <path id="Path_101230" data-name="Path 101230" d="M14.67,35.163v-5.27H7.552a10.269,10.269,0,0,1,1.811,1.3,9.581,9.581,0,0,1,2.391,3.966ZM1.811,29.892H0v5.27H9.961A8.259,8.259,0,0,0,6.9,31.305a10.179,10.179,0,0,0-5.089-1.413ZM12.841,18.12a6.611,6.611,0,0,1,1.811.217V13.284a9.056,9.056,0,0,0-3.4-.543,6.5,6.5,0,0,0-7.136,6.864v8.911h6.067V20.565c0-1.739.887-2.445,2.608-2.445ZM10.179,36.539v5.27H4.745V38.695a3.4,3.4,0,0,0-.67-2.119Z" transform="translate(1300.617 1412.483)" fill="#fff"/>
  </g>
</svg>
