<svg xmlns="http://www.w3.org/2000/svg" width="153.256" height="31.888" viewBox="0 0 153.256 31.888">
  <g id="Group_1674" data-name="Group 1674" style="isolation: isolate">
    <g id="amazon-2_2_" data-name="amazon-2 (2)" transform="translate(26.086 0.256)">
      <path id="Path_5" data-name="Path 5" d="M307.549,263.361c8.237,0,12.7,7.042,12.7,16.038,0,8.678-4.909,15.594-12.7,15.594-8.049,0-12.449-7.042-12.449-15.844C295.036,270.276,299.5,263.361,307.549,263.361Zm0,5.843c-4.091,0-4.339,5.6-4.339,9.055s-.063,10.878,4.276,10.878c4.276,0,4.527-5.974,4.527-9.621a27.517,27.517,0,0,0-.818-7.546,3.478,3.478,0,0,0-3.647-2.766Z" transform="translate(-295.099 -263.361)" fill="#fff" fill-rule="evenodd"/>
    </g>
    <g id="amazon-2_2_2" data-name="amazon-2 (2)" transform="translate(55.07 0)">
      <path id="Path_5-2" data-name="Path 5" d="M179.91,280.764c0,2.137.063,3.961-1.006,5.911a4.45,4.45,0,0,1-3.836,2.512c-2.137,0-3.395-1.637-3.395-4.025,0-4.716,4.207-5.6,8.237-5.6Zm5.534,13.519a1.137,1.137,0,0,1-1.321.127,13.886,13.886,0,0,1-3.207-3.709c-3.018,3.081-5.217,4.025-9.115,4.025-4.654,0-8.3-2.893-8.3-8.614a9.412,9.412,0,0,1,5.911-9.055c3.018-1.321,7.231-1.572,10.434-1.95v-.692c0-1.321.127-2.893-.692-4.025a3.723,3.723,0,0,0-3.081-1.449,4.187,4.187,0,0,0-4.464,3.333c-.127.5-.441,1.006-.943,1.006l-5.345-.565a.966.966,0,0,1-.818-1.131c1.256-6.544,7.106-8.489,12.388-8.489,2.705,0,6.226.692,8.363,2.766,2.705,2.512,2.454,5.911,2.454,9.557v8.614c0,2.578,1.07,3.709,2.075,5.156.378.5.441,1.132,0,1.449-1.194.943-3.207,2.705-4.339,3.647Z" transform="translate(-163.498 -263.095)" fill="#fff" fill-rule="evenodd"/>
    </g>
    <g id="amazon-2_2_3" data-name="amazon-2 (2)" transform="translate(115.934 0.251)">
      <path id="Path_5-3" data-name="Path 5" d="M201.671,294.36h-5.534a1.136,1.136,0,0,1-1.006-.943V265a1.052,1.052,0,0,1,1.069-1.006h5.156a1.025,1.025,0,0,1,1.006.943v3.709h.127a7.327,7.327,0,0,1,7.293-5.283c3.458,0,5.659,1.7,7.169,5.283a7.881,7.881,0,0,1,7.671-5.283,7.8,7.8,0,0,1,6.413,3.144c1.761,2.39,1.383,5.843,1.383,8.929v17.983a1.052,1.052,0,0,1-1.069,1.007h-5.47a1.08,1.08,0,0,1-1.006-1.007V278.326a37.7,37.7,0,0,0-.127-5.345,2.922,2.922,0,0,0-3.272-2.454,3.7,3.7,0,0,0-3.333,2.326,17.423,17.423,0,0,0-.5,5.47v15.091a1.052,1.052,0,0,1-1.07,1.006h-5.534a1.08,1.08,0,0,1-1.006-1.006V278.326c0-3.144.5-7.86-3.395-7.86-3.961,0-3.836,4.527-3.836,7.86v15.091a1.1,1.1,0,0,1-1.131.943Z" transform="translate(-195.131 -263.354)" fill="#fff" fill-rule="evenodd"/>
    </g>
    <g id="amazon-2_2_4" data-name="amazon-2 (2)" transform="translate(0 0.25)">
      <path id="Path_5-4" data-name="Path 5" d="M270.713,269.3V265a1.007,1.007,0,0,1,1.063-1.063h19.165A1.106,1.106,0,0,1,292.065,265v3.635c0,.6-.528,1.388-1.455,2.711L280.692,285.5a21.544,21.544,0,0,1,10.909,2.319,1.966,1.966,0,0,1,.991,1.653v4.563c0,.661-.661,1.388-1.388.991a21.873,21.873,0,0,0-20.232.067,1.039,1.039,0,0,1-1.388-.991v-4.364a4.942,4.942,0,0,1,.727-2.909l11.5-16.467h-9.984a1.106,1.106,0,0,1-1.125-1.063Z" transform="translate(-269.575 -263.936)" fill="#fff" fill-rule="evenodd"/>
    </g>
    <g id="amazon-2_2_5" data-name="amazon-2 (2)" transform="translate(85.986 0.256)">
      <path id="Path_5-5" data-name="Path 5" d="M307.549,263.361c8.237,0,12.7,7.042,12.7,16.038,0,8.678-4.909,15.594-12.7,15.594-8.049,0-12.449-7.042-12.449-15.844C295.036,270.276,299.5,263.361,307.549,263.361Zm0,5.843c-4.091,0-4.339,5.6-4.339,9.055s-.063,10.878,4.276,10.878c4.276,0,4.527-5.974,4.527-9.621a27.517,27.517,0,0,0-.818-7.546,3.478,3.478,0,0,0-3.647-2.766Z" transform="translate(-295.099 -263.361)" fill="#fff" fill-rule="evenodd"/>
    </g>
  </g>
</svg>
